<?xml version="1.0" encoding="UTF-8" standalone="no"?><svg xmlns="http://www.w3.org/2000/svg" xmlns:xlink="http://www.w3.org/1999/xlink" contentStyleType="text/css" height="414px" preserveAspectRatio="none" style="width:637px;height:414px;background:#FFFFFF;" version="1.1" viewBox="0 0 637 414" width="637px" zoomAndPan="magnify"><defs/><g><rect fill="none" height="111.5" style="stroke:#000000;stroke-width:1.5;" width="315" x="69" y="203.6641"/><line style="stroke:#181818;stroke-width:0.5;stroke-dasharray:5.0,5.0;" x1="37" x2="37" y1="82.6094" y2="332.1641"/><line style="stroke:#181818;stroke-width:0.5;stroke-dasharray:5.0,5.0;" x1="136" x2="136" y1="82.6094" y2="332.1641"/><line style="stroke:#181818;stroke-width:0.5;stroke-dasharray:5.0,5.0;" x1="344" x2="344" y1="82.6094" y2="332.1641"/><text fill="#000000" font-family="sans-serif" font-size="14" lengthAdjust="spacing" textLength="58" x="5" y="79.5332">Recruiter</text><ellipse cx="37" cy="13.5" fill="#E2E2F0" rx="8" ry="8" style="stroke:#181818;stroke-width:0.5;"/><path d="M37,21.5 L37,48.5 M24,29.5 L50,29.5 M37,48.5 L24,63.5 M37,48.5 L50,63.5 " fill="none" style="stroke:#181818;stroke-width:0.5;"/><text fill="#000000" font-family="sans-serif" font-size="14" lengthAdjust="spacing" textLength="58" x="5" y="345.6973">Recruiter</text><ellipse cx="37" cy="357.2734" fill="#E2E2F0" rx="8" ry="8" style="stroke:#181818;stroke-width:0.5;"/><path d="M37,365.2734 L37,392.2734 M24,373.2734 L50,373.2734 M37,392.2734 L24,407.2734 M37,392.2734 L50,407.2734 " fill="none" style="stroke:#181818;stroke-width:0.5;"/><text fill="#000000" font-family="sans-serif" font-size="14" lengthAdjust="spacing" textLength="108" x="79" y="79.5332">TechnicalAdvisor</text><ellipse cx="136" cy="13.5" fill="#E2E2F0" rx="8" ry="8" style="stroke:#181818;stroke-width:0.5;"/><path d="M136,21.5 L136,48.5 M123,29.5 L149,29.5 M136,48.5 L123,63.5 M136,48.5 L149,63.5 " fill="none" style="stroke:#181818;stroke-width:0.5;"/><text fill="#000000" font-family="sans-serif" font-size="14" lengthAdjust="spacing" textLength="108" x="79" y="345.6973">TechnicalAdvisor</text><ellipse cx="136" cy="357.2734" fill="#E2E2F0" rx="8" ry="8" style="stroke:#181818;stroke-width:0.5;"/><path d="M136,365.2734 L136,392.2734 M123,373.2734 L149,373.2734 M136,392.2734 L123,407.2734 M136,392.2734 L149,407.2734 " fill="none" style="stroke:#181818;stroke-width:0.5;"/><rect fill="#E2E2F0" height="31.6094" rx="2.5" ry="2.5" style="stroke:#181818;stroke-width:0.5;" width="60" x="314" y="50"/><text fill="#000000" font-family="sans-serif" font-size="14" lengthAdjust="spacing" textLength="46" x="321" y="71.5332">System</text><rect fill="#E2E2F0" height="31.6094" rx="2.5" ry="2.5" style="stroke:#181818;stroke-width:0.5;" width="60" x="314" y="331.1641"/><text fill="#000000" font-family="sans-serif" font-size="14" lengthAdjust="spacing" textLength="46" x="321" y="352.6973">System</text><polygon fill="#181818" points="332,110.9609,342,114.9609,332,118.9609,336,114.9609" style="stroke:#181818;stroke-width:1.0;"/><line style="stroke:#181818;stroke-width:1.0;" x1="37" x2="338" y1="114.9609" y2="114.9609"/><text fill="#000000" font-family="sans-serif" font-size="13" lengthAdjust="spacing" textLength="165" x="44" y="110.1045">Create new interview request</text><polygon fill="#181818" points="48,141.3125,38,145.3125,48,149.3125,44,145.3125" style="stroke:#181818;stroke-width:1.0;"/><line style="stroke:#181818;stroke-width:1.0;stroke-dasharray:2.0,2.0;" x1="42" x2="343" y1="145.3125" y2="145.3125"/><text fill="#000000" font-family="sans-serif" font-size="13" lengthAdjust="spacing" textLength="141" x="54" y="140.4561">Response of the request</text><line style="stroke:#181818;stroke-width:1.0;" x1="344" x2="386" y1="175.6641" y2="175.6641"/><line style="stroke:#181818;stroke-width:1.0;" x1="386" x2="386" y1="175.6641" y2="188.6641"/><line style="stroke:#181818;stroke-width:1.0;" x1="345" x2="386" y1="188.6641" y2="188.6641"/><line style="stroke:#181818;stroke-width:1.0;" x1="345" x2="355" y1="188.6641" y2="184.6641"/><line style="stroke:#181818;stroke-width:1.0;" x1="345" x2="355" y1="188.6641" y2="192.6641"/><text fill="#000000" font-family="sans-serif" font-size="13" lengthAdjust="spacing" textLength="279" x="351" y="170.8076">Determination of eligible TechnicalAdvisor / X / Y</text><path d="M69,203.6641 L370,203.6641 L370,212.0156 L360,222.0156 L69,222.0156 L69,203.6641 " fill="#EEEEEE" style="stroke:#000000;stroke-width:1.5;"/><rect fill="none" height="111.5" style="stroke:#000000;stroke-width:1.5;" width="315" x="69" y="203.6641"/><text fill="#000000" font-family="sans-serif" font-size="13" font-weight="bold" lengthAdjust="spacing" textLength="256" x="84" y="218.1592">Random selection of X TechnicalAdvisor</text><line style="stroke:#181818;stroke-width:1.0;" x1="137" x2="147" y1="260.7188" y2="256.7188"/><line style="stroke:#181818;stroke-width:1.0;" x1="137" x2="147" y1="260.7188" y2="264.7188"/><line style="stroke:#181818;stroke-width:1.0;" x1="136" x2="343" y1="260.7188" y2="260.7188"/><text fill="#000000" font-family="sans-serif" font-size="13" lengthAdjust="spacing" textLength="146" x="153" y="239.5107">Send an email containing</text><text fill="#000000" font-family="sans-serif" font-size="13" lengthAdjust="spacing" textLength="180" x="157" y="255.8623">the "Accept" and "Reject" links</text><rect fill="none" height="41.4453" style="stroke:#000000;stroke-width:1.5;" width="95" x="311" y="268.7188"/><path d="M311,268.7188 L373,268.7188 L373,276.7188 L363,286.7188 L311,286.7188 L311,268.7188 " fill="#EEEEEE" style="stroke:#000000;stroke-width:2.0;"/><text fill="#000000" font-family="sans-serif" font-size="13" font-weight="bold" lengthAdjust="spacing" textLength="17" x="324" y="284.2139">ref</text><text fill="#000000" font-family="sans-serif" font-size="12" lengthAdjust="spacing" textLength="87" x="315" y="303.1758">Asynchrone Job</text><!--MD5=[47df8640161f85a46a30a24554cc1e6f]
@startuml
actor Recruiter
actor TechnicalAdvisor
participant System

Recruiter -> System: Create new interview request
System - -> Recruiter: Response of the request
System ->> System: Determination of eligible TechnicalAdvisor / X / Y

group Random selection of X TechnicalAdvisor
    System ->> TechnicalAdvisor: Send an email containing \n the "Accept" and "Reject" links
    ref over System
        Asynchrone Job
    end ref
end

@enduml

PlantUML version 1.2022.7(Mon Aug 22 13:01:30 EDT 2022)
(GPL source distribution)
Java Runtime: OpenJDK Runtime Environment
JVM: OpenJDK 64-Bit Server VM
Default Encoding: Cp1252
Language: en
Country: US
--></g></svg>