<?xml version="1.0" encoding="UTF-8" standalone="no"?><svg xmlns="http://www.w3.org/2000/svg" xmlns:xlink="http://www.w3.org/1999/xlink" contentStyleType="text/css" height="657px" preserveAspectRatio="none" style="width:1265px;height:657px;background:#FFFFFF;" version="1.1" viewBox="0 0 1265 657" width="1265px" zoomAndPan="magnify"><defs/><g><rect fill="none" height="336.9609" style="stroke:#000000;stroke-width:1.5;" width="1157" x="102" y="221.0156"/><line style="stroke:#181818;stroke-width:0.5;stroke-dasharray:5.0,5.0;" x1="53" x2="53" y1="82.6094" y2="574.9766"/><line style="stroke:#181818;stroke-width:0.5;stroke-dasharray:5.0,5.0;" x1="185" x2="185" y1="82.6094" y2="574.9766"/><line style="stroke:#181818;stroke-width:0.5;stroke-dasharray:5.0,5.0;" x1="303" x2="303" y1="82.6094" y2="574.9766"/><line style="stroke:#181818;stroke-width:0.5;stroke-dasharray:5.0,5.0;" x1="405" x2="405" y1="82.6094" y2="574.9766"/><line style="stroke:#181818;stroke-width:0.5;stroke-dasharray:5.0,5.0;" x1="789.5" x2="789.5" y1="82.6094" y2="574.9766"/><line style="stroke:#181818;stroke-width:0.5;stroke-dasharray:5.0,5.0;" x1="1060" x2="1060" y1="82.6094" y2="574.9766"/><line style="stroke:#181818;stroke-width:0.5;stroke-dasharray:5.0,5.0;" x1="1188" x2="1188" y1="82.6094" y2="574.9766"/><text fill="#000000" font-family="sans-serif" font-size="14" lengthAdjust="spacing" textLength="91" x="5" y="79.5332">RecruiterActor</text><ellipse cx="53.5" cy="13.5" fill="#E2E2F0" rx="8" ry="8" style="stroke:#181818;stroke-width:0.5;"/><path d="M53.5,21.5 L53.5,48.5 M40.5,29.5 L66.5,29.5 M53.5,48.5 L40.5,63.5 M53.5,48.5 L66.5,63.5 " fill="none" style="stroke:#181818;stroke-width:0.5;"/><text fill="#000000" font-family="sans-serif" font-size="14" lengthAdjust="spacing" textLength="91" x="5" y="588.5098">RecruiterActor</text><ellipse cx="53.5" cy="600.0859" fill="#E2E2F0" rx="8" ry="8" style="stroke:#181818;stroke-width:0.5;"/><path d="M53.5,608.0859 L53.5,635.0859 M40.5,616.0859 L66.5,616.0859 M53.5,635.0859 L40.5,650.0859 M53.5,635.0859 L66.5,650.0859 " fill="none" style="stroke:#181818;stroke-width:0.5;"/><text fill="#000000" font-family="sans-serif" font-size="14" lengthAdjust="spacing" textLength="141" x="112" y="79.5332">TechnicalAdvisorActor</text><ellipse cx="185.5" cy="13.5" fill="#E2E2F0" rx="8" ry="8" style="stroke:#181818;stroke-width:0.5;"/><path d="M185.5,21.5 L185.5,48.5 M172.5,29.5 L198.5,29.5 M185.5,48.5 L172.5,63.5 M185.5,48.5 L198.5,63.5 " fill="none" style="stroke:#181818;stroke-width:0.5;"/><text fill="#000000" font-family="sans-serif" font-size="14" lengthAdjust="spacing" textLength="141" x="112" y="588.5098">TechnicalAdvisorActor</text><ellipse cx="185.5" cy="600.0859" fill="#E2E2F0" rx="8" ry="8" style="stroke:#181818;stroke-width:0.5;"/><path d="M185.5,608.0859 L185.5,635.0859 M172.5,616.0859 L198.5,616.0859 M185.5,635.0859 L172.5,650.0859 M185.5,635.0859 L198.5,650.0859 " fill="none" style="stroke:#181818;stroke-width:0.5;"/><rect fill="#E2E2F0" height="31.6094" rx="2.5" ry="2.5" style="stroke:#181818;stroke-width:0.5;" width="69" x="269" y="50"/><text fill="#000000" font-family="sans-serif" font-size="14" lengthAdjust="spacing" textLength="55" x="276" y="71.5332">Interview</text><rect fill="#E2E2F0" height="31.6094" rx="2.5" ry="2.5" style="stroke:#181818;stroke-width:0.5;" width="69" x="269" y="573.9766"/><text fill="#000000" font-family="sans-serif" font-size="14" lengthAdjust="spacing" textLength="55" x="276" y="595.5098">Interview</text><rect fill="#E2E2F0" height="31.6094" rx="2.5" ry="2.5" style="stroke:#181818;stroke-width:0.5;" width="114" x="348" y="50"/><text fill="#000000" font-family="sans-serif" font-size="14" lengthAdjust="spacing" textLength="100" x="355" y="71.5332">InterviewRquest</text><rect fill="#E2E2F0" height="31.6094" rx="2.5" ry="2.5" style="stroke:#181818;stroke-width:0.5;" width="114" x="348" y="573.9766"/><text fill="#000000" font-family="sans-serif" font-size="14" lengthAdjust="spacing" textLength="100" x="355" y="595.5098">InterviewRquest</text><rect fill="#E2E2F0" height="31.6094" rx="2.5" ry="2.5" style="stroke:#181818;stroke-width:0.5;" width="83" x="748.5" y="50"/><text fill="#000000" font-family="sans-serif" font-size="14" lengthAdjust="spacing" textLength="69" x="755.5" y="71.5332">Notification</text><rect fill="#E2E2F0" height="31.6094" rx="2.5" ry="2.5" style="stroke:#181818;stroke-width:0.5;" width="83" x="748.5" y="573.9766"/><text fill="#000000" font-family="sans-serif" font-size="14" lengthAdjust="spacing" textLength="69" x="755.5" y="595.5098">Notification</text><rect fill="#E2E2F0" height="31.6094" rx="2.5" ry="2.5" style="stroke:#181818;stroke-width:0.5;" width="114" x="1003" y="50"/><text fill="#000000" font-family="sans-serif" font-size="14" lengthAdjust="spacing" textLength="100" x="1010" y="71.5332">MessageQueue</text><rect fill="#E2E2F0" height="31.6094" rx="2.5" ry="2.5" style="stroke:#181818;stroke-width:0.5;" width="114" x="1003" y="573.9766"/><text fill="#000000" font-family="sans-serif" font-size="14" lengthAdjust="spacing" textLength="100" x="1010" y="595.5098">MessageQueue</text><rect fill="#E2E2F0" height="31.6094" rx="2.5" ry="2.5" style="stroke:#181818;stroke-width:0.5;" width="122" x="1127" y="50"/><text fill="#000000" font-family="sans-serif" font-size="14" lengthAdjust="spacing" textLength="108" x="1134" y="71.5332">TechnicalAdvisor</text><rect fill="#E2E2F0" height="31.6094" rx="2.5" ry="2.5" style="stroke:#181818;stroke-width:0.5;" width="122" x="1127" y="573.9766"/><text fill="#000000" font-family="sans-serif" font-size="14" lengthAdjust="spacing" textLength="108" x="1134" y="595.5098">TechnicalAdvisor</text><polygon fill="#181818" points="291.5,110.9609,301.5,114.9609,291.5,118.9609,295.5,114.9609" style="stroke:#181818;stroke-width:1.0;"/><line style="stroke:#181818;stroke-width:1.0;" x1="53.5" x2="297.5" y1="114.9609" y2="114.9609"/><text fill="#000000" font-family="sans-serif" font-size="13" lengthAdjust="spacing" textLength="118" x="60.5" y="110.1045">Create new interview</text><polygon fill="#181818" points="64.5,141.3125,54.5,145.3125,64.5,149.3125,60.5,145.3125" style="stroke:#181818;stroke-width:1.0;"/><line style="stroke:#181818;stroke-width:1.0;stroke-dasharray:2.0,2.0;" x1="58.5" x2="302.5" y1="145.3125" y2="145.3125"/><text fill="#000000" font-family="sans-serif" font-size="13" lengthAdjust="spacing" textLength="141" x="70.5" y="140.4561">Response of the request</text><line style="stroke:#181818;stroke-width:1.0;" x1="1058" x2="1048" y1="175.6641" y2="171.6641"/><line style="stroke:#181818;stroke-width:1.0;" x1="1058" x2="1048" y1="175.6641" y2="179.6641"/><line style="stroke:#181818;stroke-width:1.0;" x1="303.5" x2="1059" y1="175.6641" y2="175.6641"/><text fill="#000000" font-family="sans-serif" font-size="13" lengthAdjust="spacing" textLength="187" x="310.5" y="170.8076">Produce Message New Interview</text><line style="stroke:#181818;stroke-width:1.0;" x1="406" x2="416" y1="206.0156" y2="202.0156"/><line style="stroke:#181818;stroke-width:1.0;" x1="406" x2="416" y1="206.0156" y2="210.0156"/><line style="stroke:#181818;stroke-width:1.0;" x1="405" x2="1059" y1="206.0156" y2="206.0156"/><text fill="#000000" font-family="sans-serif" font-size="13" lengthAdjust="spacing" textLength="194" x="422" y="201.1592">Consume Message New Interview</text><path d="M102,221.0156 L300,221.0156 L300,229.3672 L290,239.3672 L102,239.3672 L102,221.0156 " fill="#EEEEEE" style="stroke:#000000;stroke-width:1.5;"/><rect fill="none" height="336.9609" style="stroke:#000000;stroke-width:1.5;" width="1157" x="102" y="221.0156"/><text fill="#000000" font-family="sans-serif" font-size="13" font-weight="bold" lengthAdjust="spacing" textLength="153" x="117" y="235.5107">Run Iteration Of Process</text><polygon fill="#181818" points="1176,257.7188,1186,261.7188,1176,265.7188,1180,261.7188" style="stroke:#181818;stroke-width:1.0;"/><line style="stroke:#181818;stroke-width:1.0;" x1="405" x2="1182" y1="261.7188" y2="261.7188"/><text fill="#000000" font-family="sans-serif" font-size="13" lengthAdjust="spacing" textLength="209" x="412" y="256.8623">Select X of Eligible TechnicalAdvisor</text><polygon fill="#181818" points="416,288.0703,406,292.0703,416,296.0703,412,292.0703" style="stroke:#181818;stroke-width:1.0;"/><line style="stroke:#181818;stroke-width:1.0;stroke-dasharray:2.0,2.0;" x1="410" x2="1187" y1="292.0703" y2="292.0703"/><text fill="#000000" font-family="sans-serif" font-size="13" lengthAdjust="spacing" textLength="193" x="422" y="287.2139">List X of Eligible TechnicalAdvisor</text><line style="stroke:#181818;stroke-width:1.0;stroke-dasharray:2.0,2.0;" x1="405" x2="447" y1="322.4219" y2="322.4219"/><line style="stroke:#181818;stroke-width:1.0;stroke-dasharray:2.0,2.0;" x1="447" x2="447" y1="322.4219" y2="335.4219"/><line style="stroke:#181818;stroke-width:1.0;stroke-dasharray:2.0,2.0;" x1="406" x2="447" y1="335.4219" y2="335.4219"/><polygon fill="#181818" points="416,331.4219,406,335.4219,416,339.4219,412,335.4219" style="stroke:#181818;stroke-width:1.0;"/><text fill="#000000" font-family="sans-serif" font-size="13" lengthAdjust="spacing" textLength="371" x="412" y="317.5654">Create Interview Request and TechnicalAdvisorSelectionProcess</text><line style="stroke:#181818;stroke-width:1.0;" x1="1058" x2="1048" y1="365.7734" y2="361.7734"/><line style="stroke:#181818;stroke-width:1.0;" x1="1058" x2="1048" y1="365.7734" y2="369.7734"/><line style="stroke:#181818;stroke-width:1.0;" x1="405" x2="1059" y1="365.7734" y2="365.7734"/><text fill="#000000" font-family="sans-serif" font-size="13" lengthAdjust="spacing" textLength="239" x="412" y="360.917">Produce Message New Interview Request</text><line style="stroke:#181818;stroke-width:1.0;" x1="791" x2="801" y1="396.125" y2="392.125"/><line style="stroke:#181818;stroke-width:1.0;" x1="791" x2="801" y1="396.125" y2="400.125"/><line style="stroke:#181818;stroke-width:1.0;" x1="790" x2="1059" y1="396.125" y2="396.125"/><text fill="#000000" font-family="sans-serif" font-size="13" lengthAdjust="spacing" textLength="246" x="807" y="391.2686">Consume Message New Interview Request</text><line style="stroke:#181818;stroke-width:1.0;" x1="1186" x2="1176" y1="426.4766" y2="422.4766"/><line style="stroke:#181818;stroke-width:1.0;" x1="1186" x2="1176" y1="426.4766" y2="430.4766"/><line style="stroke:#181818;stroke-width:1.0;" x1="790" x2="1187" y1="426.4766" y2="426.4766"/><text fill="#000000" font-family="sans-serif" font-size="13" lengthAdjust="spacing" textLength="159" x="797" y="421.6201">Get TechnicalAdvisor Detail</text><polygon fill="#181818" points="801,452.8281,791,456.8281,801,460.8281,797,456.8281" style="stroke:#181818;stroke-width:1.0;"/><line style="stroke:#181818;stroke-width:1.0;stroke-dasharray:2.0,2.0;" x1="795" x2="1187" y1="456.8281" y2="456.8281"/><text fill="#000000" font-family="sans-serif" font-size="13" lengthAdjust="spacing" textLength="176" x="807" y="451.9717">Return TechnicalAdvisor Detail</text><line style="stroke:#181818;stroke-width:1.0;" x1="186.5" x2="196.5" y1="503.5313" y2="499.5313"/><line style="stroke:#181818;stroke-width:1.0;" x1="186.5" x2="196.5" y1="503.5313" y2="507.5313"/><line style="stroke:#181818;stroke-width:1.0;" x1="185.5" x2="789" y1="503.5313" y2="503.5313"/><text fill="#000000" font-family="sans-serif" font-size="13" lengthAdjust="spacing" textLength="146" x="202.5" y="482.3232">Send an email containing</text><text fill="#000000" font-family="sans-serif" font-size="13" lengthAdjust="spacing" textLength="180" x="206.5" y="498.6748">the "Accept" and "Reject" links</text><rect fill="none" height="41.4453" style="stroke:#000000;stroke-width:1.5;" width="120" x="345" y="511.5313"/><path d="M345,511.5313 L407,511.5313 L407,519.5313 L397,529.5313 L345,529.5313 L345,511.5313 " fill="#EEEEEE" style="stroke:#000000;stroke-width:2.0;"/><text fill="#000000" font-family="sans-serif" font-size="13" font-weight="bold" lengthAdjust="spacing" textLength="17" x="358" y="527.0264">ref</text><text fill="#000000" font-family="sans-serif" font-size="12" lengthAdjust="spacing" textLength="87" x="361.5" y="545.9883">Asynchrone Job</text><!--MD5=[e120fc14fa9cb12dc06b7ca4ff8b7b6d]
@startuml
actor RecruiterActor
actor TechnicalAdvisorActor
participant Interview
participant InterviewRquest
participant Notification
participant MessageQueue
participant TechnicalAdvisor

RecruiterActor -> Interview: Create new interview
Interview - -> RecruiterActor: Response of the request
Interview ->> MessageQueue: Produce Message New Interview
InterviewRquest <<- MessageQueue: Consume Message New Interview
group Run Iteration Of Process
    InterviewRquest -> TechnicalAdvisor: Select X of Eligible TechnicalAdvisor
    TechnicalAdvisor - -> InterviewRquest: List X of Eligible TechnicalAdvisor
    InterviewRquest - -> InterviewRquest: Create Interview Request and TechnicalAdvisorSelectionProcess
    InterviewRquest ->> MessageQueue: Produce Message New Interview Request
    MessageQueue ->> Notification: Consume Message New Interview Request
    Notification ->> TechnicalAdvisor: Get TechnicalAdvisor Detail
    TechnicalAdvisor - -> Notification: Return TechnicalAdvisor Detail
    Notification ->> TechnicalAdvisorActor: Send an email containing \n the "Accept" and "Reject" links
    ref over InterviewRquest
        Asynchrone Job
    end ref
end

@enduml

PlantUML version 1.2022.7(Mon Aug 22 13:01:30 EDT 2022)
(GPL source distribution)
Java Runtime: OpenJDK Runtime Environment
JVM: OpenJDK 64-Bit Server VM
Default Encoding: Cp1252
Language: en
Country: US
--></g></svg>