<?xml version="1.0" encoding="UTF-8" standalone="no"?><svg xmlns="http://www.w3.org/2000/svg" xmlns:xlink="http://www.w3.org/1999/xlink" contentStyleType="text/css" height="477px" preserveAspectRatio="none" style="width:1058px;height:477px;background:#FFFFFF;" version="1.1" viewBox="0 0 1058 477" width="1058px" zoomAndPan="magnify"><defs/><g><rect fill="none" height="218.5547" style="stroke:#000000;stroke-width:1.5;" width="949.5" x="102" y="160.3125"/><line style="stroke:#181818;stroke-width:0.5;stroke-dasharray:5.0,5.0;" x1="53" x2="53" y1="82.6094" y2="395.8672"/><line style="stroke:#181818;stroke-width:0.5;stroke-dasharray:5.0,5.0;" x1="185" x2="185" y1="82.6094" y2="395.8672"/><line style="stroke:#181818;stroke-width:0.5;stroke-dasharray:5.0,5.0;" x1="391.5" x2="391.5" y1="82.6094" y2="395.8672"/><line style="stroke:#181818;stroke-width:0.5;stroke-dasharray:5.0,5.0;" x1="523.5" x2="523.5" y1="82.6094" y2="395.8672"/><line style="stroke:#181818;stroke-width:0.5;stroke-dasharray:5.0,5.0;" x1="723" x2="723" y1="82.6094" y2="395.8672"/><line style="stroke:#181818;stroke-width:0.5;stroke-dasharray:5.0,5.0;" x1="984.5" x2="984.5" y1="82.6094" y2="395.8672"/><text fill="#000000" font-family="sans-serif" font-size="14" lengthAdjust="spacing" textLength="91" x="5" y="79.5332">RecruiterActor</text><ellipse cx="53.5" cy="13.5" fill="#E2E2F0" rx="8" ry="8" style="stroke:#181818;stroke-width:0.5;"/><path d="M53.5,21.5 L53.5,48.5 M40.5,29.5 L66.5,29.5 M53.5,48.5 L40.5,63.5 M53.5,48.5 L66.5,63.5 " fill="none" style="stroke:#181818;stroke-width:0.5;"/><text fill="#000000" font-family="sans-serif" font-size="14" lengthAdjust="spacing" textLength="91" x="5" y="409.4004">RecruiterActor</text><ellipse cx="53.5" cy="420.9766" fill="#E2E2F0" rx="8" ry="8" style="stroke:#181818;stroke-width:0.5;"/><path d="M53.5,428.9766 L53.5,455.9766 M40.5,436.9766 L66.5,436.9766 M53.5,455.9766 L40.5,470.9766 M53.5,455.9766 L66.5,470.9766 " fill="none" style="stroke:#181818;stroke-width:0.5;"/><text fill="#000000" font-family="sans-serif" font-size="14" lengthAdjust="spacing" textLength="141" x="112" y="79.5332">TechnicalAdvisorActor</text><ellipse cx="185.5" cy="13.5" fill="#E2E2F0" rx="8" ry="8" style="stroke:#181818;stroke-width:0.5;"/><path d="M185.5,21.5 L185.5,48.5 M172.5,29.5 L198.5,29.5 M185.5,48.5 L172.5,63.5 M185.5,48.5 L198.5,63.5 " fill="none" style="stroke:#181818;stroke-width:0.5;"/><text fill="#000000" font-family="sans-serif" font-size="14" lengthAdjust="spacing" textLength="141" x="112" y="409.4004">TechnicalAdvisorActor</text><ellipse cx="185.5" cy="420.9766" fill="#E2E2F0" rx="8" ry="8" style="stroke:#181818;stroke-width:0.5;"/><path d="M185.5,428.9766 L185.5,455.9766 M172.5,436.9766 L198.5,436.9766 M185.5,455.9766 L172.5,470.9766 M185.5,455.9766 L198.5,470.9766 " fill="none" style="stroke:#181818;stroke-width:0.5;"/><rect fill="#E2E2F0" height="31.6094" rx="2.5" ry="2.5" style="stroke:#181818;stroke-width:0.5;" width="122" x="330.5" y="50"/><text fill="#000000" font-family="sans-serif" font-size="14" lengthAdjust="spacing" textLength="108" x="337.5" y="71.5332">InterviewRequest</text><rect fill="#E2E2F0" height="31.6094" rx="2.5" ry="2.5" style="stroke:#181818;stroke-width:0.5;" width="122" x="330.5" y="394.8672"/><text fill="#000000" font-family="sans-serif" font-size="14" lengthAdjust="spacing" textLength="108" x="337.5" y="416.4004">InterviewRequest</text><rect fill="#E2E2F0" height="31.6094" rx="2.5" ry="2.5" style="stroke:#181818;stroke-width:0.5;" width="122" x="462.5" y="50"/><text fill="#000000" font-family="sans-serif" font-size="14" lengthAdjust="spacing" textLength="108" x="469.5" y="71.5332">TechnicalAdvisor</text><rect fill="#E2E2F0" height="31.6094" rx="2.5" ry="2.5" style="stroke:#181818;stroke-width:0.5;" width="122" x="462.5" y="394.8672"/><text fill="#000000" font-family="sans-serif" font-size="14" lengthAdjust="spacing" textLength="108" x="469.5" y="416.4004">TechnicalAdvisor</text><rect fill="#E2E2F0" height="31.6094" rx="2.5" ry="2.5" style="stroke:#181818;stroke-width:0.5;" width="83" x="682" y="50"/><text fill="#000000" font-family="sans-serif" font-size="14" lengthAdjust="spacing" textLength="69" x="689" y="71.5332">Notification</text><rect fill="#E2E2F0" height="31.6094" rx="2.5" ry="2.5" style="stroke:#181818;stroke-width:0.5;" width="83" x="682" y="394.8672"/><text fill="#000000" font-family="sans-serif" font-size="14" lengthAdjust="spacing" textLength="69" x="689" y="416.4004">Notification</text><rect fill="#E2E2F0" height="31.6094" rx="2.5" ry="2.5" style="stroke:#181818;stroke-width:0.5;" width="114" x="927.5" y="50"/><text fill="#000000" font-family="sans-serif" font-size="14" lengthAdjust="spacing" textLength="100" x="934.5" y="71.5332">MessageQueue</text><rect fill="#E2E2F0" height="31.6094" rx="2.5" ry="2.5" style="stroke:#181818;stroke-width:0.5;" width="114" x="927.5" y="394.8672"/><text fill="#000000" font-family="sans-serif" font-size="14" lengthAdjust="spacing" textLength="100" x="934.5" y="416.4004">MessageQueue</text><polygon fill="#181818" points="379.5,110.9609,389.5,114.9609,379.5,118.9609,383.5,114.9609" style="stroke:#181818;stroke-width:1.0;"/><line style="stroke:#181818;stroke-width:1.0;" x1="185.5" x2="385.5" y1="114.9609" y2="114.9609"/><text fill="#000000" font-family="sans-serif" font-size="13" lengthAdjust="spacing" textLength="182" x="192.5" y="110.1045">Click on the link reject Interview</text><polygon fill="#181818" points="196.5,141.3125,186.5,145.3125,196.5,149.3125,192.5,145.3125" style="stroke:#181818;stroke-width:1.0;"/><line style="stroke:#181818;stroke-width:1.0;stroke-dasharray:2.0,2.0;" x1="190.5" x2="390.5" y1="145.3125" y2="145.3125"/><text fill="#000000" font-family="sans-serif" font-size="13" lengthAdjust="spacing" textLength="141" x="202.5" y="140.4561">Response of the request</text><path d="M102,160.3125 L163,160.3125 L163,168.6641 L153,178.6641 L102,178.6641 L102,160.3125 " fill="#EEEEEE" style="stroke:#000000;stroke-width:1.5;"/><rect fill="none" height="218.5547" style="stroke:#000000;stroke-width:1.5;" width="949.5" x="102" y="160.3125"/><text fill="#000000" font-family="sans-serif" font-size="13" font-weight="bold" lengthAdjust="spacing" textLength="16" x="117" y="174.8076">alt</text><text fill="#000000" font-family="sans-serif" font-size="11" font-weight="bold" lengthAdjust="spacing" textLength="324" x="178" y="173.7314">[If this TechnicalAdvisor has accepted this request before]</text><line style="stroke:#181818;stroke-width:1.0;" x1="982.5" x2="972.5" y1="201.0156" y2="197.0156"/><line style="stroke:#181818;stroke-width:1.0;" x1="982.5" x2="972.5" y1="201.0156" y2="205.0156"/><line style="stroke:#181818;stroke-width:1.0;" x1="391.5" x2="983.5" y1="201.0156" y2="201.0156"/><text fill="#000000" font-family="sans-serif" font-size="13" lengthAdjust="spacing" textLength="230" x="398.5" y="196.1592">Produce Message Reject before Accept</text><line style="stroke:#181818;stroke-width:1.0;" x1="724.5" x2="734.5" y1="231.3672" y2="227.3672"/><line style="stroke:#181818;stroke-width:1.0;" x1="724.5" x2="734.5" y1="231.3672" y2="235.3672"/><line style="stroke:#181818;stroke-width:1.0;" x1="723.5" x2="983.5" y1="231.3672" y2="231.3672"/><text fill="#000000" font-family="sans-serif" font-size="13" lengthAdjust="spacing" textLength="237" x="740.5" y="226.5107">Consume Message Reject before Accept</text><line style="stroke:#181818;stroke-width:1.0;" x1="524.5" x2="534.5" y1="261.7188" y2="257.7188"/><line style="stroke:#181818;stroke-width:1.0;" x1="524.5" x2="534.5" y1="261.7188" y2="265.7188"/><line style="stroke:#181818;stroke-width:1.0;" x1="523.5" x2="722.5" y1="261.7188" y2="261.7188"/><text fill="#000000" font-family="sans-serif" font-size="13" lengthAdjust="spacing" textLength="159" x="540.5" y="256.8623">Get TechnicalAdvisor Detail</text><polygon fill="#181818" points="711.5,288.0703,721.5,292.0703,711.5,296.0703,715.5,292.0703" style="stroke:#181818;stroke-width:1.0;"/><line style="stroke:#181818;stroke-width:1.0;stroke-dasharray:2.0,2.0;" x1="523.5" x2="717.5" y1="292.0703" y2="292.0703"/><text fill="#000000" font-family="sans-serif" font-size="13" lengthAdjust="spacing" textLength="176" x="530.5" y="287.2139">Return TechnicalAdvisor Detail</text><line style="stroke:#181818;stroke-width:1.0;" x1="186.5" x2="196.5" y1="322.4219" y2="318.4219"/><line style="stroke:#181818;stroke-width:1.0;" x1="186.5" x2="196.5" y1="322.4219" y2="326.4219"/><line style="stroke:#181818;stroke-width:1.0;" x1="185.5" x2="722.5" y1="322.4219" y2="322.4219"/><text fill="#000000" font-family="sans-serif" font-size="13" lengthAdjust="spacing" textLength="368" x="202.5" y="317.5654">Send email to the TechnicalAdvisor to confirme the reject action</text><line style="stroke:#000000;stroke-width:1.0;stroke-dasharray:2.0,2.0;" x1="102" x2="1051.5" y1="331.4219" y2="331.4219"/><rect fill="none" height="41.4453" style="stroke:#000000;stroke-width:1.5;" width="145" x="327.5" y="332.4219"/><path d="M327.5,332.4219 L389.5,332.4219 L389.5,340.4219 L379.5,350.4219 L327.5,350.4219 L327.5,332.4219 " fill="#EEEEEE" style="stroke:#000000;stroke-width:2.0;"/><text fill="#000000" font-family="sans-serif" font-size="13" font-weight="bold" lengthAdjust="spacing" textLength="17" x="340.5" y="347.917">ref</text><text fill="#000000" font-family="sans-serif" font-size="12" lengthAdjust="spacing" textLength="137" x="331.5" y="366.8789">Check Rejected Request</text><!--MD5=[0e33c65e377044578d79e721db9ffb26]
@startuml
actor RecruiterActor
actor TechnicalAdvisorActor
participant InterviewRequest
participant TechnicalAdvisor
participant Notification
participant MessageQueue

TechnicalAdvisorActor -> InterviewRequest: Click on the link reject Interview
InterviewRequest - -> TechnicalAdvisorActor: Response of the request
alt If this TechnicalAdvisor has accepted this request before
    InterviewRequest ->> MessageQueue: Produce Message Reject before Accept
    Notification <<- MessageQueue: Consume Message Reject before Accept
    Notification ->> TechnicalAdvisor: Get TechnicalAdvisor Detail
    TechnicalAdvisor - -> Notification: Return TechnicalAdvisor Detail
    Notification ->> TechnicalAdvisorActor: Send email to the TechnicalAdvisor to confirme the reject action
else
    ref over InterviewRequest
        Check Rejected Request
    end ref
end

@enduml

PlantUML version 1.2022.7(Mon Aug 22 13:01:30 EDT 2022)
(GPL source distribution)
Java Runtime: OpenJDK Runtime Environment
JVM: OpenJDK 64-Bit Server VM
Default Encoding: Cp1252
Language: en
Country: US
--></g></svg>