<?xml version="1.0" encoding="UTF-8" standalone="no"?><svg xmlns="http://www.w3.org/2000/svg" xmlns:xlink="http://www.w3.org/1999/xlink" contentStyleType="text/css" height="291px" preserveAspectRatio="none" style="width:469px;height:291px;background:#FFFFFF;" version="1.1" viewBox="0 0 469 291" width="469px" zoomAndPan="magnify"><defs/><g><line style="stroke:#181818;stroke-width:0.5;stroke-dasharray:5.0,5.0;" x1="53" x2="53" y1="82.6094" y2="209.7578"/><line style="stroke:#181818;stroke-width:0.5;stroke-dasharray:5.0,5.0;" x1="332.5" x2="332.5" y1="82.6094" y2="209.7578"/><line style="stroke:#181818;stroke-width:0.5;stroke-dasharray:5.0,5.0;" x1="433.5" x2="433.5" y1="82.6094" y2="209.7578"/><text fill="#000000" font-family="sans-serif" font-size="14" lengthAdjust="spacing" textLength="91" x="5" y="79.5332">RecruiterActor</text><ellipse cx="53.5" cy="13.5" fill="#E2E2F0" rx="8" ry="8" style="stroke:#181818;stroke-width:0.5;"/><path d="M53.5,21.5 L53.5,48.5 M40.5,29.5 L66.5,29.5 M53.5,48.5 L40.5,63.5 M53.5,48.5 L66.5,63.5 " fill="none" style="stroke:#181818;stroke-width:0.5;"/><text fill="#000000" font-family="sans-serif" font-size="14" lengthAdjust="spacing" textLength="91" x="5" y="223.291">RecruiterActor</text><ellipse cx="53.5" cy="234.8672" fill="#E2E2F0" rx="8" ry="8" style="stroke:#181818;stroke-width:0.5;"/><path d="M53.5,242.8672 L53.5,269.8672 M40.5,250.8672 L66.5,250.8672 M53.5,269.8672 L40.5,284.8672 M53.5,269.8672 L66.5,284.8672 " fill="none" style="stroke:#181818;stroke-width:0.5;"/><rect fill="#E2E2F0" height="31.6094" rx="2.5" ry="2.5" style="stroke:#181818;stroke-width:0.5;" width="122" x="271.5" y="50"/><text fill="#000000" font-family="sans-serif" font-size="14" lengthAdjust="spacing" textLength="108" x="278.5" y="71.5332">InterviewRequest</text><rect fill="#E2E2F0" height="31.6094" rx="2.5" ry="2.5" style="stroke:#181818;stroke-width:0.5;" width="122" x="271.5" y="208.7578"/><text fill="#000000" font-family="sans-serif" font-size="14" lengthAdjust="spacing" textLength="108" x="278.5" y="230.291">InterviewRequest</text><rect fill="#E2E2F0" height="31.6094" rx="2.5" ry="2.5" style="stroke:#181818;stroke-width:0.5;" width="60" x="403.5" y="50"/><text fill="#000000" font-family="sans-serif" font-size="14" lengthAdjust="spacing" textLength="46" x="410.5" y="71.5332">System</text><rect fill="#E2E2F0" height="31.6094" rx="2.5" ry="2.5" style="stroke:#181818;stroke-width:0.5;" width="60" x="403.5" y="208.7578"/><text fill="#000000" font-family="sans-serif" font-size="14" lengthAdjust="spacing" textLength="46" x="410.5" y="230.291">System</text><polygon fill="#181818" points="320.5,110.9609,330.5,114.9609,320.5,118.9609,324.5,114.9609" style="stroke:#181818;stroke-width:1.0;"/><line style="stroke:#181818;stroke-width:1.0;" x1="53.5" x2="326.5" y1="114.9609" y2="114.9609"/><text fill="#000000" font-family="sans-serif" font-size="13" lengthAdjust="spacing" textLength="255" x="60.5" y="110.1045">Decline the acceptance of Interview Request</text><polygon fill="#181818" points="64.5,141.3125,54.5,145.3125,64.5,149.3125,60.5,145.3125" style="stroke:#181818;stroke-width:1.0;"/><line style="stroke:#181818;stroke-width:1.0;stroke-dasharray:2.0,2.0;" x1="58.5" x2="432.5" y1="145.3125" y2="145.3125"/><text fill="#000000" font-family="sans-serif" font-size="13" lengthAdjust="spacing" textLength="141" x="70.5" y="140.4561">Response of the request</text><rect fill="none" height="41.4453" style="stroke:#000000;stroke-width:1.5;" width="128" x="268.5" y="153.3125"/><path d="M268.5,153.3125 L330.5,153.3125 L330.5,161.3125 L320.5,171.3125 L268.5,171.3125 L268.5,153.3125 " fill="#EEEEEE" style="stroke:#000000;stroke-width:2.0;"/><text fill="#000000" font-family="sans-serif" font-size="13" font-weight="bold" lengthAdjust="spacing" textLength="17" x="281.5" y="168.8076">ref</text><text fill="#000000" font-family="sans-serif" font-size="12" lengthAdjust="spacing" textLength="110" x="277.5" y="187.7695">Choise the Request</text><!--MD5=[61d3593f43a5bef316966b20c0e06b7a]
@startuml
actor RecruiterActor
participant InterviewRequest

RecruiterActor -> InterviewRequest: Decline the acceptance of Interview Request
System - -> RecruiterActor: Response of the request
ref over InterviewRequest
    Choise the Request
end ref

@enduml

PlantUML version 1.2022.7(Mon Aug 22 13:01:30 EDT 2022)
(GPL source distribution)
Java Runtime: OpenJDK Runtime Environment
JVM: OpenJDK 64-Bit Server VM
Default Encoding: Cp1252
Language: en
Country: US
--></g></svg>