<?xml version="1.0" encoding="UTF-8" standalone="no"?><svg xmlns="http://www.w3.org/2000/svg" xmlns:xlink="http://www.w3.org/1999/xlink" contentStyleType="text/css" height="696px" preserveAspectRatio="none" style="width:1491px;height:696px;background:#FFFFFF;" version="1.1" viewBox="0 0 1491 696" width="1491px" zoomAndPan="magnify"><defs/><g><rect fill="none" height="436.9453" style="stroke:#000000;stroke-width:1.5;" width="1474" x="10" y="160.3125"/><rect fill="none" height="342.3125" style="stroke:#000000;stroke-width:1.5;" width="1454" x="20" y="185.6641"/><line style="stroke:#181818;stroke-width:0.5;stroke-dasharray:5.0,5.0;" x1="78" x2="78" y1="82.6094" y2="614.2578"/><line style="stroke:#181818;stroke-width:0.5;stroke-dasharray:5.0,5.0;" x1="214" x2="214" y1="82.6094" y2="614.2578"/><line style="stroke:#181818;stroke-width:0.5;stroke-dasharray:5.0,5.0;" x1="379" x2="379" y1="82.6094" y2="614.2578"/><line style="stroke:#181818;stroke-width:0.5;stroke-dasharray:5.0,5.0;" x1="528" x2="528" y1="82.6094" y2="614.2578"/><line style="stroke:#181818;stroke-width:0.5;stroke-dasharray:5.0,5.0;" x1="821" x2="821" y1="82.6094" y2="614.2578"/><line style="stroke:#181818;stroke-width:0.5;stroke-dasharray:5.0,5.0;" x1="1120.5" x2="1120.5" y1="82.6094" y2="614.2578"/><line style="stroke:#181818;stroke-width:0.5;stroke-dasharray:5.0,5.0;" x1="1321" x2="1321" y1="82.6094" y2="614.2578"/><line style="stroke:#181818;stroke-width:0.5;stroke-dasharray:5.0,5.0;" x1="1428" x2="1428" y1="82.6094" y2="614.2578"/><text fill="#000000" font-family="sans-serif" font-size="14" lengthAdjust="spacing" textLength="91" x="30" y="79.5332">RecruiterActor</text><ellipse cx="78.5" cy="13.5" fill="#E2E2F0" rx="8" ry="8" style="stroke:#181818;stroke-width:0.5;"/><path d="M78.5,21.5 L78.5,48.5 M65.5,29.5 L91.5,29.5 M78.5,48.5 L65.5,63.5 M78.5,48.5 L91.5,63.5 " fill="none" style="stroke:#181818;stroke-width:0.5;"/><text fill="#000000" font-family="sans-serif" font-size="14" lengthAdjust="spacing" textLength="91" x="30" y="627.791">RecruiterActor</text><ellipse cx="78.5" cy="639.3672" fill="#E2E2F0" rx="8" ry="8" style="stroke:#181818;stroke-width:0.5;"/><path d="M78.5,647.3672 L78.5,674.3672 M65.5,655.3672 L91.5,655.3672 M78.5,674.3672 L65.5,689.3672 M78.5,674.3672 L91.5,689.3672 " fill="none" style="stroke:#181818;stroke-width:0.5;"/><text fill="#000000" font-family="sans-serif" font-size="14" lengthAdjust="spacing" textLength="149" x="137" y="79.5332">TechnicalAdvisorActor1</text><ellipse cx="214.5" cy="13.5" fill="#E2E2F0" rx="8" ry="8" style="stroke:#181818;stroke-width:0.5;"/><path d="M214.5,21.5 L214.5,48.5 M201.5,29.5 L227.5,29.5 M214.5,48.5 L201.5,63.5 M214.5,48.5 L227.5,63.5 " fill="none" style="stroke:#181818;stroke-width:0.5;"/><text fill="#000000" font-family="sans-serif" font-size="14" lengthAdjust="spacing" textLength="149" x="137" y="627.791">TechnicalAdvisorActor1</text><ellipse cx="214.5" cy="639.3672" fill="#E2E2F0" rx="8" ry="8" style="stroke:#181818;stroke-width:0.5;"/><path d="M214.5,647.3672 L214.5,674.3672 M201.5,655.3672 L227.5,655.3672 M214.5,674.3672 L201.5,689.3672 M214.5,674.3672 L227.5,689.3672 " fill="none" style="stroke:#181818;stroke-width:0.5;"/><text fill="#000000" font-family="sans-serif" font-size="14" lengthAdjust="spacing" textLength="149" x="302" y="79.5332">TechnicalAdvisorActor2</text><ellipse cx="379.5" cy="13.5" fill="#E2E2F0" rx="8" ry="8" style="stroke:#181818;stroke-width:0.5;"/><path d="M379.5,21.5 L379.5,48.5 M366.5,29.5 L392.5,29.5 M379.5,48.5 L366.5,63.5 M379.5,48.5 L392.5,63.5 " fill="none" style="stroke:#181818;stroke-width:0.5;"/><text fill="#000000" font-family="sans-serif" font-size="14" lengthAdjust="spacing" textLength="149" x="302" y="627.791">TechnicalAdvisorActor2</text><ellipse cx="379.5" cy="639.3672" fill="#E2E2F0" rx="8" ry="8" style="stroke:#181818;stroke-width:0.5;"/><path d="M379.5,647.3672 L379.5,674.3672 M366.5,655.3672 L392.5,655.3672 M379.5,674.3672 L366.5,689.3672 M379.5,674.3672 L392.5,689.3672 " fill="none" style="stroke:#181818;stroke-width:0.5;"/><rect fill="#E2E2F0" height="31.6094" rx="2.5" ry="2.5" style="stroke:#181818;stroke-width:0.5;" width="122" x="467" y="50"/><text fill="#000000" font-family="sans-serif" font-size="14" lengthAdjust="spacing" textLength="108" x="474" y="71.5332">InterviewRequest</text><rect fill="#E2E2F0" height="31.6094" rx="2.5" ry="2.5" style="stroke:#181818;stroke-width:0.5;" width="122" x="467" y="613.2578"/><text fill="#000000" font-family="sans-serif" font-size="14" lengthAdjust="spacing" textLength="108" x="474" y="634.791">InterviewRequest</text><rect fill="#E2E2F0" height="31.6094" rx="2.5" ry="2.5" style="stroke:#181818;stroke-width:0.5;" width="114" x="764" y="50"/><text fill="#000000" font-family="sans-serif" font-size="14" lengthAdjust="spacing" textLength="100" x="771" y="71.5332">MessageQueue</text><rect fill="#E2E2F0" height="31.6094" rx="2.5" ry="2.5" style="stroke:#181818;stroke-width:0.5;" width="114" x="764" y="613.2578"/><text fill="#000000" font-family="sans-serif" font-size="14" lengthAdjust="spacing" textLength="100" x="771" y="634.791">MessageQueue</text><rect fill="#E2E2F0" height="31.6094" rx="2.5" ry="2.5" style="stroke:#181818;stroke-width:0.5;" width="83" x="1079.5" y="50"/><text fill="#000000" font-family="sans-serif" font-size="14" lengthAdjust="spacing" textLength="69" x="1086.5" y="71.5332">Notification</text><rect fill="#E2E2F0" height="31.6094" rx="2.5" ry="2.5" style="stroke:#181818;stroke-width:0.5;" width="83" x="1079.5" y="613.2578"/><text fill="#000000" font-family="sans-serif" font-size="14" lengthAdjust="spacing" textLength="69" x="1086.5" y="634.791">Notification</text><rect fill="#E2E2F0" height="31.6094" rx="2.5" ry="2.5" style="stroke:#181818;stroke-width:0.5;" width="122" x="1260" y="50"/><text fill="#000000" font-family="sans-serif" font-size="14" lengthAdjust="spacing" textLength="108" x="1267" y="71.5332">TechnicalAdvisor</text><rect fill="#E2E2F0" height="31.6094" rx="2.5" ry="2.5" style="stroke:#181818;stroke-width:0.5;" width="122" x="1260" y="613.2578"/><text fill="#000000" font-family="sans-serif" font-size="14" lengthAdjust="spacing" textLength="108" x="1267" y="634.791">TechnicalAdvisor</text><rect fill="#E2E2F0" height="31.6094" rx="2.5" ry="2.5" style="stroke:#181818;stroke-width:0.5;" width="72" x="1392" y="50"/><text fill="#000000" font-family="sans-serif" font-size="14" lengthAdjust="spacing" textLength="58" x="1399" y="71.5332">Recruiter</text><rect fill="#E2E2F0" height="31.6094" rx="2.5" ry="2.5" style="stroke:#181818;stroke-width:0.5;" width="72" x="1392" y="613.2578"/><text fill="#000000" font-family="sans-serif" font-size="14" lengthAdjust="spacing" textLength="58" x="1399" y="634.791">Recruiter</text><polygon fill="#181818" points="516,110.9609,526,114.9609,516,118.9609,520,114.9609" style="stroke:#181818;stroke-width:1.0;"/><line style="stroke:#181818;stroke-width:1.0;" x1="214.5" x2="522" y1="114.9609" y2="114.9609"/><text fill="#000000" font-family="sans-serif" font-size="13" lengthAdjust="spacing" textLength="235" x="221.5" y="110.1045">Click on the link confirme reject Interview</text><polygon fill="#181818" points="225.5,141.3125,215.5,145.3125,225.5,149.3125,221.5,145.3125" style="stroke:#181818;stroke-width:1.0;"/><line style="stroke:#181818;stroke-width:1.0;stroke-dasharray:2.0,2.0;" x1="219.5" x2="527" y1="145.3125" y2="145.3125"/><text fill="#000000" font-family="sans-serif" font-size="13" lengthAdjust="spacing" textLength="141" x="231.5" y="140.4561">Response of the request</text><path d="M10,160.3125 L71,160.3125 L71,168.6641 L61,178.6641 L10,178.6641 L10,160.3125 " fill="#EEEEEE" style="stroke:#000000;stroke-width:1.5;"/><rect fill="none" height="436.9453" style="stroke:#000000;stroke-width:1.5;" width="1474" x="10" y="160.3125"/><text fill="#000000" font-family="sans-serif" font-size="13" font-weight="bold" lengthAdjust="spacing" textLength="16" x="25" y="174.8076">alt</text><text fill="#000000" font-family="sans-serif" font-size="11" font-weight="bold" lengthAdjust="spacing" textLength="515" x="86" y="173.7314">[If this TechnicalAdvisor1 is the first one accept the request (Old StatusOfRequest Assigned)]</text><path d="M20,185.6641 L81,185.6641 L81,194.0156 L71,204.0156 L20,204.0156 L20,185.6641 " fill="#EEEEEE" style="stroke:#000000;stroke-width:1.5;"/><rect fill="none" height="342.3125" style="stroke:#000000;stroke-width:1.5;" width="1454" x="20" y="185.6641"/><text fill="#000000" font-family="sans-serif" font-size="13" font-weight="bold" lengthAdjust="spacing" textLength="16" x="35" y="200.1592">alt</text><text fill="#000000" font-family="sans-serif" font-size="11" font-weight="bold" lengthAdjust="spacing" textLength="321" x="96" y="199.083">[If there is another TechnicalAdvisor2 accept this request]</text><line style="stroke:#181818;stroke-width:1.0;" x1="819" x2="809" y1="226.3672" y2="222.3672"/><line style="stroke:#181818;stroke-width:1.0;" x1="819" x2="809" y1="226.3672" y2="230.3672"/><line style="stroke:#181818;stroke-width:1.0;" x1="528" x2="820" y1="226.3672" y2="226.3672"/><text fill="#000000" font-family="sans-serif" font-size="13" lengthAdjust="spacing" textLength="269" x="535" y="221.5107">Produce Message Accepted Interview Request</text><line style="stroke:#181818;stroke-width:1.0;" x1="1119" x2="1109" y1="256.7188" y2="252.7188"/><line style="stroke:#181818;stroke-width:1.0;" x1="1119" x2="1109" y1="256.7188" y2="260.7188"/><line style="stroke:#181818;stroke-width:1.0;" x1="821" x2="1120" y1="256.7188" y2="256.7188"/><text fill="#000000" font-family="sans-serif" font-size="13" lengthAdjust="spacing" textLength="276" x="828" y="251.8623">Consume Message Accepted Interview Request</text><line style="stroke:#181818;stroke-width:1.0;" x1="1426" x2="1416" y1="287.0703" y2="283.0703"/><line style="stroke:#181818;stroke-width:1.0;" x1="1426" x2="1416" y1="287.0703" y2="291.0703"/><line style="stroke:#181818;stroke-width:1.0;" x1="1121" x2="1427" y1="287.0703" y2="287.0703"/><text fill="#000000" font-family="sans-serif" font-size="13" lengthAdjust="spacing" textLength="114" x="1128" y="282.2139">Get Recruiter Detail</text><polygon fill="#181818" points="1132,313.4219,1122,317.4219,1132,321.4219,1128,317.4219" style="stroke:#181818;stroke-width:1.0;"/><line style="stroke:#181818;stroke-width:1.0;stroke-dasharray:2.0,2.0;" x1="1126" x2="1427" y1="317.4219" y2="317.4219"/><text fill="#000000" font-family="sans-serif" font-size="13" lengthAdjust="spacing" textLength="131" x="1138" y="312.5654">Return Recruiter Detail</text><line style="stroke:#181818;stroke-width:1.0;" x1="79.5" x2="89.5" y1="347.7734" y2="343.7734"/><line style="stroke:#181818;stroke-width:1.0;" x1="79.5" x2="89.5" y1="347.7734" y2="351.7734"/><line style="stroke:#181818;stroke-width:1.0;" x1="78.5" x2="1120" y1="347.7734" y2="347.7734"/><text fill="#000000" font-family="sans-serif" font-size="13" lengthAdjust="spacing" textLength="445" x="95.5" y="342.917">Send an email containing a link to details of the TechnicalAdvisor who accept</text><line style="stroke:#181818;stroke-width:1.0;" x1="1319" x2="1309" y1="378.125" y2="374.125"/><line style="stroke:#181818;stroke-width:1.0;" x1="1319" x2="1309" y1="378.125" y2="382.125"/><line style="stroke:#181818;stroke-width:1.0;" x1="1121" x2="1320" y1="378.125" y2="378.125"/><text fill="#000000" font-family="sans-serif" font-size="13" lengthAdjust="spacing" textLength="159" x="1128" y="373.2686">Get TechnicalAdvisor Detail</text><polygon fill="#181818" points="1132,404.4766,1122,408.4766,1132,412.4766,1128,408.4766" style="stroke:#181818;stroke-width:1.0;"/><line style="stroke:#181818;stroke-width:1.0;stroke-dasharray:2.0,2.0;" x1="1126" x2="1320" y1="408.4766" y2="408.4766"/><text fill="#000000" font-family="sans-serif" font-size="13" lengthAdjust="spacing" textLength="176" x="1138" y="403.6201">Return TechnicalAdvisor Detail</text><line style="stroke:#181818;stroke-width:1.0;" x1="380.5" x2="390.5" y1="471.5313" y2="467.5313"/><line style="stroke:#181818;stroke-width:1.0;" x1="380.5" x2="390.5" y1="471.5313" y2="475.5313"/><line style="stroke:#181818;stroke-width:1.0;" x1="379.5" x2="1120" y1="471.5313" y2="471.5313"/><text fill="#000000" font-family="sans-serif" font-size="13" lengthAdjust="spacing" textLength="250" x="396.5" y="433.9717">Send an email to the next TechnicalAdvisor</text><text fill="#000000" font-family="sans-serif" font-size="13" lengthAdjust="spacing" textLength="188" x="400.5" y="450.3232">the interview request is assigned</text><text fill="#000000" font-family="sans-serif" font-size="13" lengthAdjust="spacing" textLength="184" x="400.5" y="466.6748">send the recruiter's informations</text><line style="stroke:#000000;stroke-width:1.0;stroke-dasharray:2.0,2.0;" x1="20" x2="1474" y1="480.5313" y2="480.5313"/><rect fill="none" height="41.4453" style="stroke:#000000;stroke-width:1.5;" width="145" x="464" y="481.5313"/><path d="M464,481.5313 L526,481.5313 L526,489.5313 L516,499.5313 L464,499.5313 L464,481.5313 " fill="#EEEEEE" style="stroke:#000000;stroke-width:2.0;"/><text fill="#000000" font-family="sans-serif" font-size="13" font-weight="bold" lengthAdjust="spacing" textLength="17" x="477" y="497.0264">ref</text><text fill="#000000" font-family="sans-serif" font-size="12" lengthAdjust="spacing" textLength="137" x="468" y="515.9883">Check Rejected Request</text><line style="stroke:#000000;stroke-width:1.0;stroke-dasharray:2.0,2.0;" x1="10" x2="1484" y1="535.9766" y2="535.9766"/><text fill="#000000" font-family="sans-serif" font-size="11" font-weight="bold" lengthAdjust="spacing" textLength="185" x="15" y="547.3955">[(Old StatusOfRequest Accepted)]</text><rect fill="none" height="41.4453" style="stroke:#000000;stroke-width:1.5;" width="145" x="464" y="550.8125"/><path d="M464,550.8125 L526,550.8125 L526,558.8125 L516,568.8125 L464,568.8125 L464,550.8125 " fill="#EEEEEE" style="stroke:#000000;stroke-width:2.0;"/><text fill="#000000" font-family="sans-serif" font-size="13" font-weight="bold" lengthAdjust="spacing" textLength="17" x="477" y="566.3076">ref</text><text fill="#000000" font-family="sans-serif" font-size="12" lengthAdjust="spacing" textLength="137" x="468" y="585.2695">Check Rejected Request</text><!--MD5=[2139fcc09a7221fa7faf4a81caca71de]
@startuml
actor RecruiterActor
actor TechnicalAdvisorActor1
actor TechnicalAdvisorActor2
participant InterviewRequest
participant MessageQueue
participant Notification
participant TechnicalAdvisor
participant Recruiter

TechnicalAdvisorActor1 -> InterviewRequest: Click on the link confirme reject Interview
InterviewRequest - -> TechnicalAdvisorActor1: Response of the request
alt If this TechnicalAdvisor1 is the first one accept the request (Old StatusOfRequest Assigned)
    alt If there is another TechnicalAdvisor2 accept this request
        InterviewRequest ->> MessageQueue: Produce Message Accepted Interview Request
        Notification <<- MessageQueue: Consume Message Accepted Interview Request
        Notification ->> Recruiter: Get Recruiter Detail
        Recruiter - -> Notification: Return Recruiter Detail
        Notification ->> RecruiterActor: Send an email containing a link to details of the TechnicalAdvisor who accept
        Notification ->> TechnicalAdvisor: Get TechnicalAdvisor Detail
        TechnicalAdvisor - -> Notification: Return TechnicalAdvisor Detail
        Notification ->> TechnicalAdvisorActor2: Send an email to the next TechnicalAdvisor \n the interview request is assigned \n send the recruiter's informations
    else
        ref over InterviewRequest
            Check Rejected Request
        end ref
    end
else (Old StatusOfRequest Accepted)
    ref over InterviewRequest
        Check Rejected Request
    end ref
end

@enduml

PlantUML version 1.2022.7(Mon Aug 22 13:01:30 EDT 2022)
(GPL source distribution)
Java Runtime: OpenJDK Runtime Environment
JVM: OpenJDK 64-Bit Server VM
Default Encoding: Cp1252
Language: en
Country: US
--></g></svg>