<?xml version="1.0" encoding="UTF-8" standalone="no"?><svg xmlns="http://www.w3.org/2000/svg" xmlns:xlink="http://www.w3.org/1999/xlink" contentStyleType="text/css" height="532px" preserveAspectRatio="none" style="width:567px;height:532px;background:#FFFFFF;" version="1.1" viewBox="0 0 567 532" width="567px" zoomAndPan="magnify"><defs/><g><rect fill="#D3D3D3" height="273.3516" style="stroke:#000000;stroke-width:1.5;" width="499" x="10" y="160.3125"/><rect fill="#FAFAD2" height="241" style="stroke:#000000;stroke-width:1.5;" width="479" x="20" y="185.6641"/><rect fill="#FFA07A" height="160.2031" style="stroke:#000000;stroke-width:1.5;" width="459" x="30" y="211.0156"/><rect fill="#FFA07A" height="48.4453" style="stroke:none;stroke-width:1.0;" width="459" x="30" y="322.7734"/><rect fill="#FAFAD2" height="48.4453" style="stroke:none;stroke-width:1.0;" width="479" x="20" y="378.2188"/><line style="stroke:#181818;stroke-width:0.5;stroke-dasharray:5.0,5.0;" x1="72" x2="72" y1="82.6094" y2="450.6641"/><line style="stroke:#181818;stroke-width:0.5;stroke-dasharray:5.0,5.0;" x1="171" x2="171" y1="82.6094" y2="450.6641"/><line style="stroke:#181818;stroke-width:0.5;stroke-dasharray:5.0,5.0;" x1="449" x2="449" y1="82.6094" y2="450.6641"/><text fill="#000000" font-family="sans-serif" font-size="14" lengthAdjust="spacing" textLength="58" x="40" y="79.5332">Recruiter</text><ellipse cx="72" cy="13.5" fill="#E2E2F0" rx="8" ry="8" style="stroke:#181818;stroke-width:0.5;"/><path d="M72,21.5 L72,48.5 M59,29.5 L85,29.5 M72,48.5 L59,63.5 M72,48.5 L85,63.5 " fill="none" style="stroke:#181818;stroke-width:0.5;"/><text fill="#000000" font-family="sans-serif" font-size="14" lengthAdjust="spacing" textLength="58" x="40" y="464.1973">Recruiter</text><ellipse cx="72" cy="475.7734" fill="#E2E2F0" rx="8" ry="8" style="stroke:#181818;stroke-width:0.5;"/><path d="M72,483.7734 L72,510.7734 M59,491.7734 L85,491.7734 M72,510.7734 L59,525.7734 M72,510.7734 L85,525.7734 " fill="none" style="stroke:#181818;stroke-width:0.5;"/><text fill="#000000" font-family="sans-serif" font-size="14" lengthAdjust="spacing" textLength="108" x="114" y="79.5332">TechnicalAdvisor</text><ellipse cx="171" cy="13.5" fill="#E2E2F0" rx="8" ry="8" style="stroke:#181818;stroke-width:0.5;"/><path d="M171,21.5 L171,48.5 M158,29.5 L184,29.5 M171,48.5 L158,63.5 M171,48.5 L184,63.5 " fill="none" style="stroke:#181818;stroke-width:0.5;"/><text fill="#000000" font-family="sans-serif" font-size="14" lengthAdjust="spacing" textLength="108" x="114" y="464.1973">TechnicalAdvisor</text><ellipse cx="171" cy="475.7734" fill="#E2E2F0" rx="8" ry="8" style="stroke:#181818;stroke-width:0.5;"/><path d="M171,483.7734 L171,510.7734 M158,491.7734 L184,491.7734 M171,510.7734 L158,525.7734 M171,510.7734 L184,525.7734 " fill="none" style="stroke:#181818;stroke-width:0.5;"/><rect fill="#E2E2F0" height="31.6094" rx="2.5" ry="2.5" style="stroke:#181818;stroke-width:0.5;" width="60" x="419" y="50"/><text fill="#000000" font-family="sans-serif" font-size="14" lengthAdjust="spacing" textLength="46" x="426" y="71.5332">System</text><rect fill="#E2E2F0" height="31.6094" rx="2.5" ry="2.5" style="stroke:#181818;stroke-width:0.5;" width="60" x="419" y="449.6641"/><text fill="#000000" font-family="sans-serif" font-size="14" lengthAdjust="spacing" textLength="46" x="426" y="471.1973">System</text><polygon fill="#181818" points="437,110.9609,447,114.9609,437,118.9609,441,114.9609" style="stroke:#181818;stroke-width:1.0;"/><line style="stroke:#181818;stroke-width:1.0;" x1="171" x2="443" y1="114.9609" y2="114.9609"/><text fill="#000000" font-family="sans-serif" font-size="13" lengthAdjust="spacing" textLength="235" x="178" y="110.1045">Click on the link confirme reject Interview</text><polygon fill="#181818" points="182,141.3125,172,145.3125,182,149.3125,178,145.3125" style="stroke:#181818;stroke-width:1.0;"/><line style="stroke:#181818;stroke-width:1.0;stroke-dasharray:2.0,2.0;" x1="176" x2="448" y1="145.3125" y2="145.3125"/><text fill="#000000" font-family="sans-serif" font-size="13" lengthAdjust="spacing" textLength="141" x="188" y="140.4561">Response of the request</text><path d="M10,160.3125 L71,160.3125 L71,168.6641 L61,178.6641 L10,178.6641 L10,160.3125 " fill="#808080" style="stroke:#000000;stroke-width:1.5;"/><rect fill="none" height="273.3516" style="stroke:#000000;stroke-width:1.5;" width="499" x="10" y="160.3125"/><text fill="#000000" font-family="sans-serif" font-size="13" font-weight="bold" lengthAdjust="spacing" textLength="16" x="25" y="174.8076">alt</text><text fill="#000000" font-family="sans-serif" font-size="11" font-weight="bold" lengthAdjust="spacing" textLength="341" x="86" y="173.7314">[If this TechnicalAdvisor confirme that he rejecte the request]</text><path d="M20,185.6641 L81,185.6641 L81,194.0156 L71,204.0156 L20,204.0156 L20,185.6641 " fill="#FFFF00" style="stroke:#000000;stroke-width:1.5;"/><rect fill="none" height="241" style="stroke:#000000;stroke-width:1.5;" width="479" x="20" y="185.6641"/><text fill="#000000" font-family="sans-serif" font-size="13" font-weight="bold" lengthAdjust="spacing" textLength="16" x="35" y="200.1592">alt</text><text fill="#000000" font-family="sans-serif" font-size="11" font-weight="bold" lengthAdjust="spacing" textLength="328" x="96" y="199.083">[If this TechnicalAdvisor is the first one accept the request]</text><path d="M30,211.0156 L91,211.0156 L91,219.3672 L81,229.3672 L30,229.3672 L30,211.0156 " fill="#FFA500" style="stroke:#000000;stroke-width:1.5;"/><rect fill="none" height="160.2031" style="stroke:#000000;stroke-width:1.5;" width="459" x="30" y="211.0156"/><text fill="#000000" font-family="sans-serif" font-size="13" font-weight="bold" lengthAdjust="spacing" textLength="16" x="45" y="225.5107">alt</text><text fill="#000000" font-family="sans-serif" font-size="11" font-weight="bold" lengthAdjust="spacing" textLength="315" x="106" y="224.4346">[If there is another TechnicalAdvisor accept this request]</text><line style="stroke:#181818;stroke-width:1.0;" x1="172" x2="182" y1="284.4219" y2="280.4219"/><line style="stroke:#181818;stroke-width:1.0;" x1="172" x2="182" y1="284.4219" y2="288.4219"/><line style="stroke:#181818;stroke-width:1.0;" x1="171" x2="448" y1="284.4219" y2="284.4219"/><text fill="#000000" font-family="sans-serif" font-size="13" lengthAdjust="spacing" textLength="250" x="188" y="246.8623">Send an email to the next TechnicalAdvisor</text><text fill="#000000" font-family="sans-serif" font-size="13" lengthAdjust="spacing" textLength="188" x="192" y="263.2139">the interview request is assigned</text><text fill="#000000" font-family="sans-serif" font-size="13" lengthAdjust="spacing" textLength="184" x="192" y="279.5654">send the recruiter's informations</text><line style="stroke:#181818;stroke-width:1.0;" x1="73" x2="83" y1="314.7734" y2="310.7734"/><line style="stroke:#181818;stroke-width:1.0;" x1="73" x2="83" y1="314.7734" y2="318.7734"/><line style="stroke:#181818;stroke-width:1.0;" x1="72" x2="448" y1="314.7734" y2="314.7734"/><text fill="#000000" font-family="sans-serif" font-size="13" lengthAdjust="spacing" textLength="176" x="89" y="309.917">Send an email to the Recruiter</text><line style="stroke:#000000;stroke-width:1.0;stroke-dasharray:2.0,2.0;" x1="30" x2="489" y1="323.7734" y2="323.7734"/><rect fill="none" height="41.4453" style="stroke:#000000;stroke-width:1.5;" width="145" x="416" y="324.7734"/><path d="M416,324.7734 L478,324.7734 L478,332.7734 L468,342.7734 L416,342.7734 L416,324.7734 " fill="#EEEEEE" style="stroke:#000000;stroke-width:2.0;"/><text fill="#000000" font-family="sans-serif" font-size="13" font-weight="bold" lengthAdjust="spacing" textLength="17" x="429" y="340.2686">ref</text><text fill="#000000" font-family="sans-serif" font-size="12" lengthAdjust="spacing" textLength="137" x="420" y="359.2305">Check Rejected Request</text><line style="stroke:#000000;stroke-width:1.0;stroke-dasharray:2.0,2.0;" x1="20" x2="499" y1="379.2188" y2="379.2188"/><rect fill="none" height="41.4453" style="stroke:#000000;stroke-width:1.5;" width="145" x="416" y="380.2188"/><path d="M416,380.2188 L478,380.2188 L478,388.2188 L468,398.2188 L416,398.2188 L416,380.2188 " fill="#EEEEEE" style="stroke:#000000;stroke-width:2.0;"/><text fill="#000000" font-family="sans-serif" font-size="13" font-weight="bold" lengthAdjust="spacing" textLength="17" x="429" y="395.7139">ref</text><text fill="#000000" font-family="sans-serif" font-size="12" lengthAdjust="spacing" textLength="137" x="420" y="414.6758">Check Rejected Request</text><!--MD5=[b076e6682f5e698495298f2039ac65a3]
@startuml
actor Recruiter
actor TechnicalAdvisor
participant System

TechnicalAdvisor -> System: Click on the link confirme reject Interview
System - -> TechnicalAdvisor: Response of the request
alt#Grey #LightGray If this TechnicalAdvisor confirme that he rejecte the request
    alt#Yellow #LightGoldenRodYellow If this TechnicalAdvisor is the first one accept the request
        alt#Orange #LightSalmon If there is another TechnicalAdvisor accept this request
            System ->> TechnicalAdvisor: Send an email to the next TechnicalAdvisor \n the interview request is assigned \n send the recruiter's informations
            System ->> Recruiter: Send an email to the Recruiter
        else #LightSalmon
            ref over System
                Check Rejected Request
            end ref
        end
    else #LightGoldenRodYellow
        ref over System
            Check Rejected Request
        end ref
    end
end

@enduml

PlantUML version 1.2022.7(Mon Aug 22 13:01:30 EDT 2022)
(GPL source distribution)
Java Runtime: OpenJDK Runtime Environment
JVM: OpenJDK 64-Bit Server VM
Default Encoding: Cp1252
Language: en
Country: US
--></g></svg>