<?xml version="1.0" encoding="UTF-8" standalone="no"?><svg xmlns="http://www.w3.org/2000/svg" xmlns:xlink="http://www.w3.org/1999/xlink" contentStyleType="text/css" height="417px" preserveAspectRatio="none" style="width:612px;height:417px;background:#FFFFFF;" version="1.1" viewBox="0 0 612 417" width="612px" zoomAndPan="magnify"><defs/><g><rect fill="none" height="157.9453" style="stroke:#000000;stroke-width:1.5;" width="595" x="10" y="160.3125"/><line style="stroke:#181818;stroke-width:0.5;stroke-dasharray:5.0,5.0;" x1="52" x2="52" y1="82.6094" y2="335.2578"/><line style="stroke:#181818;stroke-width:0.5;stroke-dasharray:5.0,5.0;" x1="151" x2="151" y1="82.6094" y2="335.2578"/><line style="stroke:#181818;stroke-width:0.5;stroke-dasharray:5.0,5.0;" x1="565" x2="565" y1="82.6094" y2="335.2578"/><text fill="#000000" font-family="sans-serif" font-size="14" lengthAdjust="spacing" textLength="58" x="20" y="79.5332">Recruiter</text><ellipse cx="52" cy="13.5" fill="#E2E2F0" rx="8" ry="8" style="stroke:#181818;stroke-width:0.5;"/><path d="M52,21.5 L52,48.5 M39,29.5 L65,29.5 M52,48.5 L39,63.5 M52,48.5 L65,63.5 " fill="none" style="stroke:#181818;stroke-width:0.5;"/><text fill="#000000" font-family="sans-serif" font-size="14" lengthAdjust="spacing" textLength="58" x="20" y="348.791">Recruiter</text><ellipse cx="52" cy="360.3672" fill="#E2E2F0" rx="8" ry="8" style="stroke:#181818;stroke-width:0.5;"/><path d="M52,368.3672 L52,395.3672 M39,376.3672 L65,376.3672 M52,395.3672 L39,410.3672 M52,395.3672 L65,410.3672 " fill="none" style="stroke:#181818;stroke-width:0.5;"/><text fill="#000000" font-family="sans-serif" font-size="14" lengthAdjust="spacing" textLength="108" x="94" y="79.5332">TechnicalAdvisor</text><ellipse cx="151" cy="13.5" fill="#E2E2F0" rx="8" ry="8" style="stroke:#181818;stroke-width:0.5;"/><path d="M151,21.5 L151,48.5 M138,29.5 L164,29.5 M151,48.5 L138,63.5 M151,48.5 L164,63.5 " fill="none" style="stroke:#181818;stroke-width:0.5;"/><text fill="#000000" font-family="sans-serif" font-size="14" lengthAdjust="spacing" textLength="108" x="94" y="348.791">TechnicalAdvisor</text><ellipse cx="151" cy="360.3672" fill="#E2E2F0" rx="8" ry="8" style="stroke:#181818;stroke-width:0.5;"/><path d="M151,368.3672 L151,395.3672 M138,376.3672 L164,376.3672 M151,395.3672 L138,410.3672 M151,395.3672 L164,410.3672 " fill="none" style="stroke:#181818;stroke-width:0.5;"/><rect fill="#E2E2F0" height="31.6094" rx="2.5" ry="2.5" style="stroke:#181818;stroke-width:0.5;" width="60" x="535" y="50"/><text fill="#000000" font-family="sans-serif" font-size="14" lengthAdjust="spacing" textLength="46" x="542" y="71.5332">System</text><rect fill="#E2E2F0" height="31.6094" rx="2.5" ry="2.5" style="stroke:#181818;stroke-width:0.5;" width="60" x="535" y="334.2578"/><text fill="#000000" font-family="sans-serif" font-size="14" lengthAdjust="spacing" textLength="46" x="542" y="355.791">System</text><polygon fill="#181818" points="553,110.9609,563,114.9609,553,118.9609,557,114.9609" style="stroke:#181818;stroke-width:1.0;"/><line style="stroke:#181818;stroke-width:1.0;" x1="151" x2="559" y1="114.9609" y2="114.9609"/><text fill="#000000" font-family="sans-serif" font-size="13" lengthAdjust="spacing" textLength="189" x="158" y="110.1045">Click on the link accept Interview</text><polygon fill="#181818" points="162,141.3125,152,145.3125,162,149.3125,158,145.3125" style="stroke:#181818;stroke-width:1.0;"/><line style="stroke:#181818;stroke-width:1.0;stroke-dasharray:2.0,2.0;" x1="156" x2="564" y1="145.3125" y2="145.3125"/><text fill="#000000" font-family="sans-serif" font-size="13" lengthAdjust="spacing" textLength="141" x="168" y="140.4561">Response of the request</text><path d="M10,160.3125 L71,160.3125 L71,168.6641 L61,178.6641 L10,178.6641 L10,160.3125 " fill="#EEEEEE" style="stroke:#000000;stroke-width:1.5;"/><rect fill="none" height="157.9453" style="stroke:#000000;stroke-width:1.5;" width="595" x="10" y="160.3125"/><text fill="#000000" font-family="sans-serif" font-size="13" font-weight="bold" lengthAdjust="spacing" textLength="16" x="25" y="174.8076">alt</text><text fill="#000000" font-family="sans-serif" font-size="11" font-weight="bold" lengthAdjust="spacing" textLength="199" x="86" y="173.7314">[If no one else has accepted before]</text><line style="stroke:#181818;stroke-width:1.0;" x1="152" x2="162" y1="217.3672" y2="213.3672"/><line style="stroke:#181818;stroke-width:1.0;" x1="152" x2="162" y1="217.3672" y2="221.3672"/><line style="stroke:#181818;stroke-width:1.0;" x1="151" x2="564" y1="217.3672" y2="217.3672"/><text fill="#000000" font-family="sans-serif" font-size="13" lengthAdjust="spacing" textLength="275" x="168" y="196.1592">Send an email the interview request is assigned</text><text fill="#000000" font-family="sans-serif" font-size="13" lengthAdjust="spacing" textLength="177" x="172" y="212.5107">and the recruiter's informations</text><line style="stroke:#181818;stroke-width:1.0;" x1="53" x2="63" y1="247.7188" y2="243.7188"/><line style="stroke:#181818;stroke-width:1.0;" x1="53" x2="63" y1="247.7188" y2="251.7188"/><line style="stroke:#181818;stroke-width:1.0;" x1="52" x2="564" y1="247.7188" y2="247.7188"/><text fill="#000000" font-family="sans-serif" font-size="13" lengthAdjust="spacing" textLength="445" x="69" y="242.8623">Send an email containing a link to details of the TechnicalAdvisor who accept</text><line style="stroke:#000000;stroke-width:1.0;stroke-dasharray:2.0,2.0;" x1="10" x2="605" y1="256.7188" y2="256.7188"/><text fill="#000000" font-family="sans-serif" font-size="11" font-weight="bold" lengthAdjust="spacing" textLength="190" x="15" y="268.1377">[If someone has already accepted]</text><line style="stroke:#181818;stroke-width:1.0;" x1="152" x2="162" y1="310.2578" y2="306.2578"/><line style="stroke:#181818;stroke-width:1.0;" x1="152" x2="162" y1="310.2578" y2="314.2578"/><line style="stroke:#181818;stroke-width:1.0;" x1="151" x2="564" y1="310.2578" y2="310.2578"/><text fill="#000000" font-family="sans-serif" font-size="13" lengthAdjust="spacing" textLength="386" x="168" y="289.0498">Send email to informe that the interview has already been assigned</text><text fill="#000000" font-family="sans-serif" font-size="13" lengthAdjust="spacing" textLength="341" x="172" y="305.4014">that he will be contacted if this ultimately proves necessary</text><!--MD5=[99678a907be987b45ad5e7570e8cea59]
@startuml
actor Recruiter
actor TechnicalAdvisor
participant System

TechnicalAdvisor -> System: Click on the link accept Interview
System - -> TechnicalAdvisor: Response of the request
alt If no one else has accepted before
    System ->> TechnicalAdvisor: Send an email the interview request is assigned \n and the recruiter's informations
    System ->> Recruiter: Send an email containing a link to details of the TechnicalAdvisor who accept
else If someone has already accepted
    System ->> TechnicalAdvisor: Send email to informe that the interview has already been assigned \n that he will be contacted if this ultimately proves necessary
end

@enduml

PlantUML version 1.2022.7(Mon Aug 22 13:01:30 EDT 2022)
(GPL source distribution)
Java Runtime: OpenJDK Runtime Environment
JVM: OpenJDK 64-Bit Server VM
Default Encoding: Cp1252
Language: en
Country: US
--></g></svg>