<?xml version="1.0" encoding="UTF-8" standalone="no"?><svg xmlns="http://www.w3.org/2000/svg" xmlns:xlink="http://www.w3.org/1999/xlink" contentStyleType="text/css" height="720px" preserveAspectRatio="none" style="width:1078px;height:720px;background:#FFFFFF;" version="1.1" viewBox="0 0 1078 720" width="1078px" zoomAndPan="magnify"><defs/><g><rect fill="none" height="461.4609" style="stroke:#000000;stroke-width:1.5;" width="1061.5" x="10" y="160.3125"/><line style="stroke:#181818;stroke-width:0.5;stroke-dasharray:5.0,5.0;" x1="68" x2="68" y1="82.6094" y2="638.7734"/><line style="stroke:#181818;stroke-width:0.5;stroke-dasharray:5.0,5.0;" x1="200" x2="200" y1="82.6094" y2="638.7734"/><line style="stroke:#181818;stroke-width:0.5;stroke-dasharray:5.0,5.0;" x1="413.5" x2="413.5" y1="82.6094" y2="638.7734"/><line style="stroke:#181818;stroke-width:0.5;stroke-dasharray:5.0,5.0;" x1="614" x2="614" y1="82.6094" y2="638.7734"/><line style="stroke:#181818;stroke-width:0.5;stroke-dasharray:5.0,5.0;" x1="769.5" x2="769.5" y1="82.6094" y2="638.7734"/><line style="stroke:#181818;stroke-width:0.5;stroke-dasharray:5.0,5.0;" x1="876.5" x2="876.5" y1="82.6094" y2="638.7734"/><line style="stroke:#181818;stroke-width:0.5;stroke-dasharray:5.0,5.0;" x1="1004.5" x2="1004.5" y1="82.6094" y2="638.7734"/><text fill="#000000" font-family="sans-serif" font-size="14" lengthAdjust="spacing" textLength="91" x="20" y="79.5332">RecruiterActor</text><ellipse cx="68.5" cy="13.5" fill="#E2E2F0" rx="8" ry="8" style="stroke:#181818;stroke-width:0.5;"/><path d="M68.5,21.5 L68.5,48.5 M55.5,29.5 L81.5,29.5 M68.5,48.5 L55.5,63.5 M68.5,48.5 L81.5,63.5 " fill="none" style="stroke:#181818;stroke-width:0.5;"/><text fill="#000000" font-family="sans-serif" font-size="14" lengthAdjust="spacing" textLength="91" x="20" y="652.3066">RecruiterActor</text><ellipse cx="68.5" cy="663.8828" fill="#E2E2F0" rx="8" ry="8" style="stroke:#181818;stroke-width:0.5;"/><path d="M68.5,671.8828 L68.5,698.8828 M55.5,679.8828 L81.5,679.8828 M68.5,698.8828 L55.5,713.8828 M68.5,698.8828 L81.5,713.8828 " fill="none" style="stroke:#181818;stroke-width:0.5;"/><text fill="#000000" font-family="sans-serif" font-size="14" lengthAdjust="spacing" textLength="141" x="127" y="79.5332">TechnicalAdvisorActor</text><ellipse cx="200.5" cy="13.5" fill="#E2E2F0" rx="8" ry="8" style="stroke:#181818;stroke-width:0.5;"/><path d="M200.5,21.5 L200.5,48.5 M187.5,29.5 L213.5,29.5 M200.5,48.5 L187.5,63.5 M200.5,48.5 L213.5,63.5 " fill="none" style="stroke:#181818;stroke-width:0.5;"/><text fill="#000000" font-family="sans-serif" font-size="14" lengthAdjust="spacing" textLength="141" x="127" y="652.3066">TechnicalAdvisorActor</text><ellipse cx="200.5" cy="663.8828" fill="#E2E2F0" rx="8" ry="8" style="stroke:#181818;stroke-width:0.5;"/><path d="M200.5,671.8828 L200.5,698.8828 M187.5,679.8828 L213.5,679.8828 M200.5,698.8828 L187.5,713.8828 M200.5,698.8828 L213.5,713.8828 " fill="none" style="stroke:#181818;stroke-width:0.5;"/><rect fill="#E2E2F0" height="31.6094" rx="2.5" ry="2.5" style="stroke:#181818;stroke-width:0.5;" width="122" x="352.5" y="50"/><text fill="#000000" font-family="sans-serif" font-size="14" lengthAdjust="spacing" textLength="108" x="359.5" y="71.5332">InterviewRequest</text><rect fill="#E2E2F0" height="31.6094" rx="2.5" ry="2.5" style="stroke:#181818;stroke-width:0.5;" width="122" x="352.5" y="637.7734"/><text fill="#000000" font-family="sans-serif" font-size="14" lengthAdjust="spacing" textLength="108" x="359.5" y="659.3066">InterviewRequest</text><rect fill="#E2E2F0" height="31.6094" rx="2.5" ry="2.5" style="stroke:#181818;stroke-width:0.5;" width="83" x="573" y="50"/><text fill="#000000" font-family="sans-serif" font-size="14" lengthAdjust="spacing" textLength="69" x="580" y="71.5332">Notification</text><rect fill="#E2E2F0" height="31.6094" rx="2.5" ry="2.5" style="stroke:#181818;stroke-width:0.5;" width="83" x="573" y="637.7734"/><text fill="#000000" font-family="sans-serif" font-size="14" lengthAdjust="spacing" textLength="69" x="580" y="659.3066">Notification</text><rect fill="#E2E2F0" height="31.6094" rx="2.5" ry="2.5" style="stroke:#181818;stroke-width:0.5;" width="72" x="733.5" y="50"/><text fill="#000000" font-family="sans-serif" font-size="14" lengthAdjust="spacing" textLength="58" x="740.5" y="71.5332">Recruiter</text><rect fill="#E2E2F0" height="31.6094" rx="2.5" ry="2.5" style="stroke:#181818;stroke-width:0.5;" width="72" x="733.5" y="637.7734"/><text fill="#000000" font-family="sans-serif" font-size="14" lengthAdjust="spacing" textLength="58" x="740.5" y="659.3066">Recruiter</text><rect fill="#E2E2F0" height="31.6094" rx="2.5" ry="2.5" style="stroke:#181818;stroke-width:0.5;" width="122" x="815.5" y="50"/><text fill="#000000" font-family="sans-serif" font-size="14" lengthAdjust="spacing" textLength="108" x="822.5" y="71.5332">TechnicalAdvisor</text><rect fill="#E2E2F0" height="31.6094" rx="2.5" ry="2.5" style="stroke:#181818;stroke-width:0.5;" width="122" x="815.5" y="637.7734"/><text fill="#000000" font-family="sans-serif" font-size="14" lengthAdjust="spacing" textLength="108" x="822.5" y="659.3066">TechnicalAdvisor</text><rect fill="#E2E2F0" height="31.6094" rx="2.5" ry="2.5" style="stroke:#181818;stroke-width:0.5;" width="114" x="947.5" y="50"/><text fill="#000000" font-family="sans-serif" font-size="14" lengthAdjust="spacing" textLength="100" x="954.5" y="71.5332">MessageQueue</text><rect fill="#E2E2F0" height="31.6094" rx="2.5" ry="2.5" style="stroke:#181818;stroke-width:0.5;" width="114" x="947.5" y="637.7734"/><text fill="#000000" font-family="sans-serif" font-size="14" lengthAdjust="spacing" textLength="100" x="954.5" y="659.3066">MessageQueue</text><polygon fill="#181818" points="401.5,110.9609,411.5,114.9609,401.5,118.9609,405.5,114.9609" style="stroke:#181818;stroke-width:1.0;"/><line style="stroke:#181818;stroke-width:1.0;" x1="200.5" x2="407.5" y1="114.9609" y2="114.9609"/><text fill="#000000" font-family="sans-serif" font-size="13" lengthAdjust="spacing" textLength="189" x="207.5" y="110.1045">Click on the link accept Interview</text><polygon fill="#181818" points="211.5,141.3125,201.5,145.3125,211.5,149.3125,207.5,145.3125" style="stroke:#181818;stroke-width:1.0;"/><line style="stroke:#181818;stroke-width:1.0;stroke-dasharray:2.0,2.0;" x1="205.5" x2="412.5" y1="145.3125" y2="145.3125"/><text fill="#000000" font-family="sans-serif" font-size="13" lengthAdjust="spacing" textLength="141" x="217.5" y="140.4561">Response of the request</text><path d="M10,160.3125 L71,160.3125 L71,168.6641 L61,178.6641 L10,178.6641 L10,160.3125 " fill="#EEEEEE" style="stroke:#000000;stroke-width:1.5;"/><rect fill="none" height="461.4609" style="stroke:#000000;stroke-width:1.5;" width="1061.5" x="10" y="160.3125"/><text fill="#000000" font-family="sans-serif" font-size="13" font-weight="bold" lengthAdjust="spacing" textLength="16" x="25" y="174.8076">alt</text><text fill="#000000" font-family="sans-serif" font-size="11" font-weight="bold" lengthAdjust="spacing" textLength="199" x="86" y="173.7314">[If no one else has accepted before]</text><line style="stroke:#181818;stroke-width:1.0;" x1="1002.5" x2="992.5" y1="201.0156" y2="197.0156"/><line style="stroke:#181818;stroke-width:1.0;" x1="1002.5" x2="992.5" y1="201.0156" y2="205.0156"/><line style="stroke:#181818;stroke-width:1.0;" x1="413.5" x2="1003.5" y1="201.0156" y2="201.0156"/><text fill="#000000" font-family="sans-serif" font-size="13" lengthAdjust="spacing" textLength="269" x="420.5" y="196.1592">Produce Message Accepted Interview Request</text><line style="stroke:#181818;stroke-width:1.0;" x1="615.5" x2="625.5" y1="231.3672" y2="227.3672"/><line style="stroke:#181818;stroke-width:1.0;" x1="615.5" x2="625.5" y1="231.3672" y2="235.3672"/><line style="stroke:#181818;stroke-width:1.0;" x1="614.5" x2="1003.5" y1="231.3672" y2="231.3672"/><text fill="#000000" font-family="sans-serif" font-size="13" lengthAdjust="spacing" textLength="276" x="631.5" y="226.5107">Consume Message Accepted Interview Request</text><line style="stroke:#181818;stroke-width:1.0;" x1="767.5" x2="757.5" y1="261.7188" y2="257.7188"/><line style="stroke:#181818;stroke-width:1.0;" x1="767.5" x2="757.5" y1="261.7188" y2="265.7188"/><line style="stroke:#181818;stroke-width:1.0;" x1="614.5" x2="768.5" y1="261.7188" y2="261.7188"/><text fill="#000000" font-family="sans-serif" font-size="13" lengthAdjust="spacing" textLength="114" x="621.5" y="256.8623">Get Recruiter Detail</text><polygon fill="#181818" points="625.5,288.0703,615.5,292.0703,625.5,296.0703,621.5,292.0703" style="stroke:#181818;stroke-width:1.0;"/><line style="stroke:#181818;stroke-width:1.0;stroke-dasharray:2.0,2.0;" x1="619.5" x2="768.5" y1="292.0703" y2="292.0703"/><text fill="#000000" font-family="sans-serif" font-size="13" lengthAdjust="spacing" textLength="131" x="631.5" y="287.2139">Return Recruiter Detail</text><line style="stroke:#181818;stroke-width:1.0;" x1="69.5" x2="79.5" y1="322.4219" y2="318.4219"/><line style="stroke:#181818;stroke-width:1.0;" x1="69.5" x2="79.5" y1="322.4219" y2="326.4219"/><line style="stroke:#181818;stroke-width:1.0;" x1="68.5" x2="613.5" y1="322.4219" y2="322.4219"/><text fill="#000000" font-family="sans-serif" font-size="13" lengthAdjust="spacing" textLength="445" x="85.5" y="317.5654">Send an email containing a link to details of the TechnicalAdvisor who accept</text><line style="stroke:#181818;stroke-width:1.0;" x1="874.5" x2="864.5" y1="352.7734" y2="348.7734"/><line style="stroke:#181818;stroke-width:1.0;" x1="874.5" x2="864.5" y1="352.7734" y2="356.7734"/><line style="stroke:#181818;stroke-width:1.0;" x1="614.5" x2="875.5" y1="352.7734" y2="352.7734"/><text fill="#000000" font-family="sans-serif" font-size="13" lengthAdjust="spacing" textLength="159" x="621.5" y="347.917">Get TechnicalAdvisor Detail</text><polygon fill="#181818" points="625.5,379.125,615.5,383.125,625.5,387.125,621.5,383.125" style="stroke:#181818;stroke-width:1.0;"/><line style="stroke:#181818;stroke-width:1.0;stroke-dasharray:2.0,2.0;" x1="619.5" x2="875.5" y1="383.125" y2="383.125"/><text fill="#000000" font-family="sans-serif" font-size="13" lengthAdjust="spacing" textLength="176" x="631.5" y="378.2686">Return TechnicalAdvisor Detail</text><line style="stroke:#181818;stroke-width:1.0;" x1="201.5" x2="211.5" y1="429.8281" y2="425.8281"/><line style="stroke:#181818;stroke-width:1.0;" x1="201.5" x2="211.5" y1="429.8281" y2="433.8281"/><line style="stroke:#181818;stroke-width:1.0;" x1="200.5" x2="613.5" y1="429.8281" y2="429.8281"/><text fill="#000000" font-family="sans-serif" font-size="13" lengthAdjust="spacing" textLength="275" x="217.5" y="408.6201">Send an email the interview request is assigned</text><text fill="#000000" font-family="sans-serif" font-size="13" lengthAdjust="spacing" textLength="177" x="221.5" y="424.9717">and the recruiter's informations</text><line style="stroke:#000000;stroke-width:1.0;stroke-dasharray:2.0,2.0;" x1="10" x2="1071.5" y1="438.8281" y2="438.8281"/><text fill="#000000" font-family="sans-serif" font-size="11" font-weight="bold" lengthAdjust="spacing" textLength="190" x="15" y="450.2471">[If someone has already accepted]</text><line style="stroke:#181818;stroke-width:1.0;" x1="1002.5" x2="992.5" y1="476.0156" y2="472.0156"/><line style="stroke:#181818;stroke-width:1.0;" x1="1002.5" x2="992.5" y1="476.0156" y2="480.0156"/><line style="stroke:#181818;stroke-width:1.0;" x1="413.5" x2="1003.5" y1="476.0156" y2="476.0156"/><text fill="#000000" font-family="sans-serif" font-size="13" lengthAdjust="spacing" textLength="317" x="420.5" y="471.1592">Produce Message Already Accepted Interview Request</text><line style="stroke:#181818;stroke-width:1.0;" x1="615.5" x2="625.5" y1="506.3672" y2="502.3672"/><line style="stroke:#181818;stroke-width:1.0;" x1="615.5" x2="625.5" y1="506.3672" y2="510.3672"/><line style="stroke:#181818;stroke-width:1.0;" x1="614.5" x2="1003.5" y1="506.3672" y2="506.3672"/><text fill="#000000" font-family="sans-serif" font-size="13" lengthAdjust="spacing" textLength="324" x="631.5" y="501.5107">Consume Message Already Accepted Interview Request</text><line style="stroke:#181818;stroke-width:1.0;" x1="874.5" x2="864.5" y1="536.7188" y2="532.7188"/><line style="stroke:#181818;stroke-width:1.0;" x1="874.5" x2="864.5" y1="536.7188" y2="540.7188"/><line style="stroke:#181818;stroke-width:1.0;" x1="614.5" x2="875.5" y1="536.7188" y2="536.7188"/><text fill="#000000" font-family="sans-serif" font-size="13" lengthAdjust="spacing" textLength="159" x="621.5" y="531.8623">Get TechnicalAdvisor Detail</text><polygon fill="#181818" points="625.5,563.0703,615.5,567.0703,625.5,571.0703,621.5,567.0703" style="stroke:#181818;stroke-width:1.0;"/><line style="stroke:#181818;stroke-width:1.0;stroke-dasharray:2.0,2.0;" x1="619.5" x2="875.5" y1="567.0703" y2="567.0703"/><text fill="#000000" font-family="sans-serif" font-size="13" lengthAdjust="spacing" textLength="176" x="631.5" y="562.2139">Return TechnicalAdvisor Detail</text><line style="stroke:#181818;stroke-width:1.0;" x1="201.5" x2="211.5" y1="613.7734" y2="609.7734"/><line style="stroke:#181818;stroke-width:1.0;" x1="201.5" x2="211.5" y1="613.7734" y2="617.7734"/><line style="stroke:#181818;stroke-width:1.0;" x1="200.5" x2="613.5" y1="613.7734" y2="613.7734"/><text fill="#000000" font-family="sans-serif" font-size="13" lengthAdjust="spacing" textLength="386" x="217.5" y="592.5654">Send email to informe that the interview has already been assigned</text><text fill="#000000" font-family="sans-serif" font-size="13" lengthAdjust="spacing" textLength="341" x="221.5" y="608.917">that he will be contacted if this ultimately proves necessary</text><!--MD5=[b92bfd01cb378922b416bcfa2e841e56]
@startuml
actor RecruiterActor
actor TechnicalAdvisorActor
participant InterviewRequest
participant Notification
participant Recruiter
participant TechnicalAdvisor


TechnicalAdvisorActor -> InterviewRequest: Click on the link accept Interview
InterviewRequest - -> TechnicalAdvisorActor: Response of the request
alt If no one else has accepted before
    InterviewRequest ->> MessageQueue: Produce Message Accepted Interview Request
    Notification <<- MessageQueue: Consume Message Accepted Interview Request
    Notification ->> Recruiter: Get Recruiter Detail
    Recruiter - -> Notification: Return Recruiter Detail
    Notification ->> RecruiterActor: Send an email containing a link to details of the TechnicalAdvisor who accept
    Notification ->> TechnicalAdvisor: Get TechnicalAdvisor Detail
    TechnicalAdvisor - -> Notification: Return TechnicalAdvisor Detail
    Notification ->> TechnicalAdvisorActor: Send an email the interview request is assigned \n and the recruiter's informations
else If someone has already accepted
    InterviewRequest ->> MessageQueue: Produce Message Already Accepted Interview Request
    Notification <<- MessageQueue: Consume Message Already Accepted Interview Request
    Notification ->> TechnicalAdvisor: Get TechnicalAdvisor Detail
    TechnicalAdvisor - -> Notification: Return TechnicalAdvisor Detail
    Notification ->> TechnicalAdvisorActor: Send email to informe that the interview has already been assigned \n that he will be contacted if this ultimately proves necessary
end

@enduml

PlantUML version 1.2022.7(Mon Aug 22 13:01:30 EDT 2022)
(GPL source distribution)
Java Runtime: OpenJDK Runtime Environment
JVM: OpenJDK 64-Bit Server VM
Default Encoding: Cp1252
Language: en
Country: US
--></g></svg>