<?xml version="1.0" encoding="UTF-8" standalone="no"?><svg xmlns="http://www.w3.org/2000/svg" xmlns:xlink="http://www.w3.org/1999/xlink" contentStyleType="text/css" height="356px" preserveAspectRatio="none" style="width:530px;height:356px;background:#FFFFFF;" version="1.1" viewBox="0 0 530 356" width="530px" zoomAndPan="magnify"><defs/><g><rect fill="#90EE90" height="97.1484" style="stroke:#000000;stroke-width:1.5;" width="405" x="69" y="160.3125"/><rect fill="#90EE90" height="48.4453" style="stroke:none;stroke-width:1.0;" width="405" x="69" y="209.0156"/><line style="stroke:#181818;stroke-width:0.5;stroke-dasharray:5.0,5.0;" x1="37" x2="37" y1="82.6094" y2="274.4609"/><line style="stroke:#181818;stroke-width:0.5;stroke-dasharray:5.0,5.0;" x1="136" x2="136" y1="82.6094" y2="274.4609"/><line style="stroke:#181818;stroke-width:0.5;stroke-dasharray:5.0,5.0;" x1="412" x2="412" y1="82.6094" y2="274.4609"/><text fill="#000000" font-family="sans-serif" font-size="14" lengthAdjust="spacing" textLength="58" x="5" y="79.5332">Recruiter</text><ellipse cx="37" cy="13.5" fill="#E2E2F0" rx="8" ry="8" style="stroke:#181818;stroke-width:0.5;"/><path d="M37,21.5 L37,48.5 M24,29.5 L50,29.5 M37,48.5 L24,63.5 M37,48.5 L50,63.5 " fill="none" style="stroke:#181818;stroke-width:0.5;"/><text fill="#000000" font-family="sans-serif" font-size="14" lengthAdjust="spacing" textLength="58" x="5" y="287.9941">Recruiter</text><ellipse cx="37" cy="299.5703" fill="#E2E2F0" rx="8" ry="8" style="stroke:#181818;stroke-width:0.5;"/><path d="M37,307.5703 L37,334.5703 M24,315.5703 L50,315.5703 M37,334.5703 L24,349.5703 M37,334.5703 L50,349.5703 " fill="none" style="stroke:#181818;stroke-width:0.5;"/><text fill="#000000" font-family="sans-serif" font-size="14" lengthAdjust="spacing" textLength="108" x="79" y="79.5332">TechnicalAdvisor</text><ellipse cx="136" cy="13.5" fill="#E2E2F0" rx="8" ry="8" style="stroke:#181818;stroke-width:0.5;"/><path d="M136,21.5 L136,48.5 M123,29.5 L149,29.5 M136,48.5 L123,63.5 M136,48.5 L149,63.5 " fill="none" style="stroke:#181818;stroke-width:0.5;"/><text fill="#000000" font-family="sans-serif" font-size="14" lengthAdjust="spacing" textLength="108" x="79" y="287.9941">TechnicalAdvisor</text><ellipse cx="136" cy="299.5703" fill="#E2E2F0" rx="8" ry="8" style="stroke:#181818;stroke-width:0.5;"/><path d="M136,307.5703 L136,334.5703 M123,315.5703 L149,315.5703 M136,334.5703 L123,349.5703 M136,334.5703 L149,349.5703 " fill="none" style="stroke:#181818;stroke-width:0.5;"/><rect fill="#E2E2F0" height="31.6094" rx="2.5" ry="2.5" style="stroke:#181818;stroke-width:0.5;" width="60" x="382" y="50"/><text fill="#000000" font-family="sans-serif" font-size="14" lengthAdjust="spacing" textLength="46" x="389" y="71.5332">System</text><rect fill="#E2E2F0" height="31.6094" rx="2.5" ry="2.5" style="stroke:#181818;stroke-width:0.5;" width="60" x="382" y="273.4609"/><text fill="#000000" font-family="sans-serif" font-size="14" lengthAdjust="spacing" textLength="46" x="389" y="294.9941">System</text><polygon fill="#181818" points="400,110.9609,410,114.9609,400,118.9609,404,114.9609" style="stroke:#181818;stroke-width:1.0;"/><line style="stroke:#181818;stroke-width:1.0;" x1="136" x2="406" y1="114.9609" y2="114.9609"/><text fill="#000000" font-family="sans-serif" font-size="13" lengthAdjust="spacing" textLength="182" x="143" y="110.1045">Click on the link reject Interview</text><polygon fill="#181818" points="147,141.3125,137,145.3125,147,149.3125,143,145.3125" style="stroke:#181818;stroke-width:1.0;"/><line style="stroke:#181818;stroke-width:1.0;stroke-dasharray:2.0,2.0;" x1="141" x2="411" y1="145.3125" y2="145.3125"/><text fill="#000000" font-family="sans-serif" font-size="13" lengthAdjust="spacing" textLength="141" x="153" y="140.4561">Response of the request</text><path d="M69,160.3125 L130,160.3125 L130,168.6641 L120,178.6641 L69,178.6641 L69,160.3125 " fill="#008000" style="stroke:#000000;stroke-width:1.5;"/><rect fill="none" height="97.1484" style="stroke:#000000;stroke-width:1.5;" width="405" x="69" y="160.3125"/><text fill="#000000" font-family="sans-serif" font-size="13" font-weight="bold" lengthAdjust="spacing" textLength="16" x="84" y="174.8076">alt</text><text fill="#000000" font-family="sans-serif" font-size="11" font-weight="bold" lengthAdjust="spacing" textLength="324" x="145" y="173.7314">[If this TechnicalAdvisor has accepted this request before]</text><line style="stroke:#181818;stroke-width:1.0;" x1="137" x2="147" y1="201.0156" y2="197.0156"/><line style="stroke:#181818;stroke-width:1.0;" x1="137" x2="147" y1="201.0156" y2="205.0156"/><line style="stroke:#181818;stroke-width:1.0;" x1="136" x2="411" y1="201.0156" y2="201.0156"/><text fill="#000000" font-family="sans-serif" font-size="13" lengthAdjust="spacing" textLength="252" x="153" y="196.1592">Send message to confirme the reject action</text><line style="stroke:#000000;stroke-width:1.0;stroke-dasharray:2.0,2.0;" x1="69" x2="474" y1="210.0156" y2="210.0156"/><rect fill="none" height="41.4453" style="stroke:#000000;stroke-width:1.5;" width="145" x="379" y="211.0156"/><path d="M379,211.0156 L441,211.0156 L441,219.0156 L431,229.0156 L379,229.0156 L379,211.0156 " fill="#EEEEEE" style="stroke:#000000;stroke-width:2.0;"/><text fill="#000000" font-family="sans-serif" font-size="13" font-weight="bold" lengthAdjust="spacing" textLength="17" x="392" y="226.5107">ref</text><text fill="#000000" font-family="sans-serif" font-size="12" lengthAdjust="spacing" textLength="137" x="383" y="245.4727">Check Rejected Request</text><!--MD5=[d785796cd23383efa026934c73e827b7]
@startuml
actor Recruiter
actor TechnicalAdvisor
participant System

TechnicalAdvisor -> System: Click on the link reject Interview
System - -> TechnicalAdvisor: Response of the request
alt#Green #LightGreen If this TechnicalAdvisor has accepted this request before
    System ->> TechnicalAdvisor: Send message to confirme the reject action
else #LightGreen
    ref over System
        Check Rejected Request
    end ref
end

@enduml

PlantUML version 1.2022.7(Mon Aug 22 13:01:30 EDT 2022)
(GPL source distribution)
Java Runtime: OpenJDK Runtime Environment
JVM: OpenJDK 64-Bit Server VM
Default Encoding: Cp1252
Language: en
Country: US
--></g></svg>