<?xml version="1.0" encoding="UTF-8" standalone="no"?><svg xmlns="http://www.w3.org/2000/svg" xmlns:xlink="http://www.w3.org/1999/xlink" contentStyleType="text/css" height="775px" preserveAspectRatio="none" style="width:937px;height:775px;background:#FFFFFF;" version="1.1" viewBox="0 0 937 775" width="937px" zoomAndPan="magnify"><defs/><g><!--MD5=[110d3e1b3848a9f83035e0cf17801c91]
class Applicant--><g id="elem_Applicant"><rect codeLine="2" fill="#F1F1F1" height="83.2188" id="Applicant" rx="2.5" ry="2.5" style="stroke:#181818;stroke-width:0.5;" width="102" x="59.5" y="230"/><ellipse cx="79.9" cy="246" fill="#ADD1B2" rx="11" ry="11" style="stroke:#181818;stroke-width:1.0;"/><path d="M82.6656,241.875 Q82.8219,241.6563 83.0094,241.5469 Q83.1969,241.4375 83.4156,241.4375 Q83.7906,241.4375 84.025,241.7031 Q84.2594,241.9531 84.2594,242.5625 L84.2594,244.0156 Q84.2594,244.625 84.025,244.8906 Q83.7906,245.1563 83.4156,245.1563 Q83.0719,245.1563 82.8688,244.9531 Q82.6656,244.7656 82.5563,244.25 Q82.5094,243.8906 82.3219,243.7031 Q81.9938,243.3281 81.3844,243.1094 Q80.775,242.8906 80.15,242.8906 Q79.3844,242.8906 78.7438,243.2188 Q78.1188,243.5469 77.6188,244.2969 Q77.1344,245.0469 77.1344,246.0781 L77.1344,247.1719 Q77.1344,248.4063 78.025,249.2344 Q78.9156,250.0469 80.5094,250.0469 Q81.4469,250.0469 82.1031,249.7969 Q82.4938,249.6406 82.9156,249.2031 Q83.1813,248.9375 83.3219,248.8594 Q83.4781,248.7813 83.6813,248.7813 Q84.0094,248.7813 84.2594,249.0469 Q84.525,249.2969 84.525,249.6406 Q84.525,249.9844 84.1813,250.3906 Q83.6813,250.9688 82.8844,251.2969 Q81.8063,251.75 80.5094,251.75 Q78.9938,251.75 77.7906,251.125 Q76.8063,250.625 76.1188,249.5625 Q75.4313,248.4844 75.4313,247.2031 L75.4313,246.0469 Q75.4313,244.7188 76.0406,243.5781 Q76.6656,242.4219 77.7594,241.8125 Q78.8531,241.1875 80.0875,241.1875 Q80.8219,241.1875 81.4625,241.3594 Q82.1188,241.5156 82.6656,241.875 Z " fill="#000000"/><text fill="#000000" font-family="sans-serif" font-size="14" lengthAdjust="spacing" textLength="58" x="95.1" y="251.7285">Applicant</text><line style="stroke:#181818;stroke-width:0.5;" x1="60.5" x2="160.5" y1="262" y2="262"/><rect fill="none" height="6" style="stroke:#C82930;stroke-width:1.0;" width="6" x="67.5" y="273.3047"/><text fill="#000000" font-family="sans-serif" font-size="14" lengthAdjust="spacing" textLength="76" x="79.5" y="280.5332">String name</text><rect fill="none" height="6" style="stroke:#C82930;stroke-width:1.0;" width="6" x="67.5" y="290.9141"/><text fill="#000000" font-family="sans-serif" font-size="14" lengthAdjust="spacing" textLength="74" x="79.5" y="298.1426">String email</text><line style="stroke:#181818;stroke-width:0.5;" x1="60.5" x2="160.5" y1="305.2188" y2="305.2188"/></g><!--MD5=[5480d453c2f6d8b2e8b175927b09ed37]
class Recruiter--><g id="elem_Recruiter"><rect codeLine="7" fill="#F1F1F1" height="83.2188" id="Recruiter" rx="2.5" ry="2.5" style="stroke:#181818;stroke-width:0.5;" width="102" x="196.5" y="230"/><ellipse cx="216.9" cy="246" fill="#ADD1B2" rx="11" ry="11" style="stroke:#181818;stroke-width:1.0;"/><path d="M219.6656,241.875 Q219.8219,241.6563 220.0094,241.5469 Q220.1969,241.4375 220.4156,241.4375 Q220.7906,241.4375 221.025,241.7031 Q221.2594,241.9531 221.2594,242.5625 L221.2594,244.0156 Q221.2594,244.625 221.025,244.8906 Q220.7906,245.1563 220.4156,245.1563 Q220.0719,245.1563 219.8688,244.9531 Q219.6656,244.7656 219.5563,244.25 Q219.5094,243.8906 219.3219,243.7031 Q218.9938,243.3281 218.3844,243.1094 Q217.775,242.8906 217.15,242.8906 Q216.3844,242.8906 215.7438,243.2188 Q215.1188,243.5469 214.6188,244.2969 Q214.1344,245.0469 214.1344,246.0781 L214.1344,247.1719 Q214.1344,248.4063 215.025,249.2344 Q215.9156,250.0469 217.5094,250.0469 Q218.4469,250.0469 219.1031,249.7969 Q219.4938,249.6406 219.9156,249.2031 Q220.1813,248.9375 220.3219,248.8594 Q220.4781,248.7813 220.6813,248.7813 Q221.0094,248.7813 221.2594,249.0469 Q221.525,249.2969 221.525,249.6406 Q221.525,249.9844 221.1813,250.3906 Q220.6813,250.9688 219.8844,251.2969 Q218.8063,251.75 217.5094,251.75 Q215.9938,251.75 214.7906,251.125 Q213.8063,250.625 213.1188,249.5625 Q212.4313,248.4844 212.4313,247.2031 L212.4313,246.0469 Q212.4313,244.7188 213.0406,243.5781 Q213.6656,242.4219 214.7594,241.8125 Q215.8531,241.1875 217.0875,241.1875 Q217.8219,241.1875 218.4625,241.3594 Q219.1188,241.5156 219.6656,241.875 Z " fill="#000000"/><text fill="#000000" font-family="sans-serif" font-size="14" lengthAdjust="spacing" textLength="58" x="232.1" y="251.7285">Recruiter</text><line style="stroke:#181818;stroke-width:0.5;" x1="197.5" x2="297.5" y1="262" y2="262"/><rect fill="none" height="6" style="stroke:#C82930;stroke-width:1.0;" width="6" x="204.5" y="273.3047"/><text fill="#000000" font-family="sans-serif" font-size="14" lengthAdjust="spacing" textLength="76" x="216.5" y="280.5332">String name</text><rect fill="none" height="6" style="stroke:#C82930;stroke-width:1.0;" width="6" x="204.5" y="290.9141"/><text fill="#000000" font-family="sans-serif" font-size="14" lengthAdjust="spacing" textLength="74" x="216.5" y="298.1426">String email</text><line style="stroke:#181818;stroke-width:0.5;" x1="197.5" x2="297.5" y1="305.2188" y2="305.2188"/></g><!--MD5=[189cdaa920282c54fac24e24fd77ed3f]
class Interview--><g id="elem_Interview"><rect codeLine="12" fill="#F1F1F1" height="153.6563" id="Interview" rx="2.5" ry="2.5" style="stroke:#181818;stroke-width:0.5;" width="239" x="125" y="400"/><ellipse cx="212.75" cy="416" fill="#ADD1B2" rx="11" ry="11" style="stroke:#181818;stroke-width:1.0;"/><path d="M215.5156,411.875 Q215.6719,411.6563 215.8594,411.5469 Q216.0469,411.4375 216.2656,411.4375 Q216.6406,411.4375 216.875,411.7031 Q217.1094,411.9531 217.1094,412.5625 L217.1094,414.0156 Q217.1094,414.625 216.875,414.8906 Q216.6406,415.1563 216.2656,415.1563 Q215.9219,415.1563 215.7188,414.9531 Q215.5156,414.7656 215.4063,414.25 Q215.3594,413.8906 215.1719,413.7031 Q214.8438,413.3281 214.2344,413.1094 Q213.625,412.8906 213,412.8906 Q212.2344,412.8906 211.5938,413.2188 Q210.9688,413.5469 210.4688,414.2969 Q209.9844,415.0469 209.9844,416.0781 L209.9844,417.1719 Q209.9844,418.4063 210.875,419.2344 Q211.7656,420.0469 213.3594,420.0469 Q214.2969,420.0469 214.9531,419.7969 Q215.3438,419.6406 215.7656,419.2031 Q216.0313,418.9375 216.1719,418.8594 Q216.3281,418.7813 216.5313,418.7813 Q216.8594,418.7813 217.1094,419.0469 Q217.375,419.2969 217.375,419.6406 Q217.375,419.9844 217.0313,420.3906 Q216.5313,420.9688 215.7344,421.2969 Q214.6563,421.75 213.3594,421.75 Q211.8438,421.75 210.6406,421.125 Q209.6563,420.625 208.9688,419.5625 Q208.2813,418.4844 208.2813,417.2031 L208.2813,416.0469 Q208.2813,414.7188 208.8906,413.5781 Q209.5156,412.4219 210.6094,411.8125 Q211.7031,411.1875 212.9375,411.1875 Q213.6719,411.1875 214.3125,411.3594 Q214.9688,411.5156 215.5156,411.875 Z " fill="#000000"/><text fill="#000000" font-family="sans-serif" font-size="14" lengthAdjust="spacing" textLength="55" x="233.25" y="421.7285">Interview</text><line style="stroke:#181818;stroke-width:0.5;" x1="126" x2="363" y1="432" y2="432"/><rect fill="none" height="6" style="stroke:#C82930;stroke-width:1.0;" width="6" x="133" y="443.3047"/><text fill="#000000" font-family="sans-serif" font-size="14" lengthAdjust="spacing" textLength="119" x="145" y="450.5332">Applicant applicant</text><rect fill="none" height="6" style="stroke:#C82930;stroke-width:1.0;" width="6" x="133" y="460.9141"/><text fill="#000000" font-family="sans-serif" font-size="14" lengthAdjust="spacing" textLength="115" x="145" y="468.1426">Recruiter recruiter</text><rect fill="none" height="6" style="stroke:#C82930;stroke-width:1.0;" width="6" x="133" y="478.5234"/><text fill="#000000" font-family="sans-serif" font-size="14" lengthAdjust="spacing" textLength="145" x="145" y="485.752">JobPosition jobPosition</text><rect fill="none" height="6" style="stroke:#C82930;stroke-width:1.0;" width="6" x="133" y="496.1328"/><text fill="#000000" font-family="sans-serif" font-size="14" lengthAdjust="spacing" textLength="208" x="145" y="503.3613">StateOfInterview stateOfInterview</text><rect fill="none" height="6" style="stroke:#C82930;stroke-width:1.0;" width="6" x="133" y="513.7422"/><text fill="#000000" font-family="sans-serif" font-size="14" lengthAdjust="spacing" textLength="213" x="145" y="520.9707">LevelOfExpertise levelOfExpertise</text><rect fill="none" height="6" style="stroke:#C82930;stroke-width:1.0;" width="6" x="133" y="531.3516"/><text fill="#000000" font-family="sans-serif" font-size="14" lengthAdjust="spacing" textLength="203" x="145" y="538.5801">TypeOfInterview typeOfInterview</text><line style="stroke:#181818;stroke-width:0.5;" x1="126" x2="363" y1="545.6563" y2="545.6563"/></g><!--MD5=[e8518bf17a287e57bc75627b6f285a99]
class StateOfInterview--><g id="elem_StateOfInterview"><rect codeLine="24" fill="#F1F1F1" height="100.8281" id="StateOfInterview" rx="2.5" ry="2.5" style="stroke:#181818;stroke-width:0.5;" width="135" x="7" y="649.5"/><ellipse cx="22" cy="665.5" fill="#EB937F" rx="11" ry="11" style="stroke:#181818;stroke-width:1.0;"/><path d="M20.8594,666.2969 L20.8594,668.7969 L25.1875,668.7969 L25.1875,667.875 Q25.1875,667.2656 25.4219,667 Q25.6719,666.7344 26.0469,666.7344 Q26.4219,666.7344 26.6563,667 Q26.8906,667.2656 26.8906,667.875 L26.8906,670.5 L18.8906,670.5 Q18.2656,670.5 18,670.2656 Q17.75,670.0313 17.75,669.6406 Q17.75,669.2656 18.0156,669.0313 Q18.2813,668.7969 18.8906,668.7969 L19.1563,668.7969 L19.1563,662.1406 L18.8906,662.1406 Q18.2656,662.1406 18,661.9063 Q17.75,661.6719 17.75,661.2813 Q17.75,660.9063 18,660.6719 Q18.2656,660.4375 18.8906,660.4375 L26.5156,660.4375 L26.5156,663.0313 Q26.5156,663.6406 26.2813,663.9063 Q26.0625,664.1563 25.6719,664.1563 Q25.2969,664.1563 25.0625,663.9063 Q24.8281,663.6406 24.8281,663.0313 L24.8281,662.1406 L20.8594,662.1406 L20.8594,664.5938 L22.3438,664.5938 Q22.3438,663.9375 22.4688,663.75 Q22.7344,663.3438 23.2031,663.3438 Q23.5781,663.3438 23.8125,663.6094 Q24.0469,663.8594 24.0469,664.4688 L24.0469,666.4375 Q24.0469,666.9844 23.9219,667.1719 Q23.6563,667.5625 23.2031,667.5625 Q22.7344,667.5625 22.4688,667.1563 Q22.3438,666.9688 22.3438,666.2969 L20.8594,666.2969 Z " fill="#000000"/><text fill="#000000" font-family="sans-serif" font-size="14" lengthAdjust="spacing" textLength="103" x="36" y="671.2285">StateOfInterview</text><line style="stroke:#181818;stroke-width:0.5;" x1="8" x2="141" y1="681.5" y2="681.5"/><text fill="#000000" font-family="sans-serif" font-size="14" lengthAdjust="spacing" textLength="38" x="13" y="700.0332">OPEN</text><text fill="#000000" font-family="sans-serif" font-size="14" lengthAdjust="spacing" textLength="98" x="13" y="717.6426">IN_PROGRESS</text><text fill="#000000" font-family="sans-serif" font-size="14" lengthAdjust="spacing" textLength="57" x="13" y="735.252">CLOSED</text><line style="stroke:#181818;stroke-width:0.5;" x1="8" x2="141" y1="742.3281" y2="742.3281"/></g><!--MD5=[a14dd6c93a8f61df4defdc45aa3eb452]
class TypeOfInterview--><g id="elem_TypeOfInterview"><rect codeLine="30" fill="#F1F1F1" height="83.2188" id="TypeOfInterview" rx="2.5" ry="2.5" style="stroke:#181818;stroke-width:0.5;" width="134" x="177.5" y="658.5"/><ellipse cx="192.5" cy="674.5" fill="#EB937F" rx="11" ry="11" style="stroke:#181818;stroke-width:1.0;"/><path d="M191.3594,675.2969 L191.3594,677.7969 L195.6875,677.7969 L195.6875,676.875 Q195.6875,676.2656 195.9219,676 Q196.1719,675.7344 196.5469,675.7344 Q196.9219,675.7344 197.1563,676 Q197.3906,676.2656 197.3906,676.875 L197.3906,679.5 L189.3906,679.5 Q188.7656,679.5 188.5,679.2656 Q188.25,679.0313 188.25,678.6406 Q188.25,678.2656 188.5156,678.0313 Q188.7813,677.7969 189.3906,677.7969 L189.6563,677.7969 L189.6563,671.1406 L189.3906,671.1406 Q188.7656,671.1406 188.5,670.9063 Q188.25,670.6719 188.25,670.2813 Q188.25,669.9063 188.5,669.6719 Q188.7656,669.4375 189.3906,669.4375 L197.0156,669.4375 L197.0156,672.0313 Q197.0156,672.6406 196.7813,672.9063 Q196.5625,673.1563 196.1719,673.1563 Q195.7969,673.1563 195.5625,672.9063 Q195.3281,672.6406 195.3281,672.0313 L195.3281,671.1406 L191.3594,671.1406 L191.3594,673.5938 L192.8438,673.5938 Q192.8438,672.9375 192.9688,672.75 Q193.2344,672.3438 193.7031,672.3438 Q194.0781,672.3438 194.3125,672.6094 Q194.5469,672.8594 194.5469,673.4688 L194.5469,675.4375 Q194.5469,675.9844 194.4219,676.1719 Q194.1563,676.5625 193.7031,676.5625 Q193.2344,676.5625 192.9688,676.1563 Q192.8438,675.9688 192.8438,675.2969 L191.3594,675.2969 Z " fill="#000000"/><text fill="#000000" font-family="sans-serif" font-size="14" lengthAdjust="spacing" textLength="102" x="206.5" y="680.2285">TypeOfInterview</text><line style="stroke:#181818;stroke-width:0.5;" x1="178.5" x2="310.5" y1="690.5" y2="690.5"/><text fill="#000000" font-family="sans-serif" font-size="14" lengthAdjust="spacing" textLength="57" x="183.5" y="709.0332">URGENT</text><text fill="#000000" font-family="sans-serif" font-size="14" lengthAdjust="spacing" textLength="94" x="183.5" y="726.6426">NOT_URGENT</text><line style="stroke:#181818;stroke-width:0.5;" x1="178.5" x2="310.5" y1="733.7188" y2="733.7188"/></g><!--MD5=[7e32009bc43217df006078044ebb6fb9]
class LineOfBusiness--><g id="elem_LineOfBusiness"><rect codeLine="38" fill="#F1F1F1" height="65.6094" id="LineOfBusiness" rx="2.5" ry="2.5" style="stroke:#181818;stroke-width:0.5;" width="131" x="673" y="444"/><ellipse cx="688" cy="460" fill="#ADD1B2" rx="11" ry="11" style="stroke:#181818;stroke-width:1.0;"/><path d="M690.7656,455.875 Q690.9219,455.6563 691.1094,455.5469 Q691.2969,455.4375 691.5156,455.4375 Q691.8906,455.4375 692.125,455.7031 Q692.3594,455.9531 692.3594,456.5625 L692.3594,458.0156 Q692.3594,458.625 692.125,458.8906 Q691.8906,459.1563 691.5156,459.1563 Q691.1719,459.1563 690.9688,458.9531 Q690.7656,458.7656 690.6563,458.25 Q690.6094,457.8906 690.4219,457.7031 Q690.0938,457.3281 689.4844,457.1094 Q688.875,456.8906 688.25,456.8906 Q687.4844,456.8906 686.8438,457.2188 Q686.2188,457.5469 685.7188,458.2969 Q685.2344,459.0469 685.2344,460.0781 L685.2344,461.1719 Q685.2344,462.4063 686.125,463.2344 Q687.0156,464.0469 688.6094,464.0469 Q689.5469,464.0469 690.2031,463.7969 Q690.5938,463.6406 691.0156,463.2031 Q691.2813,462.9375 691.4219,462.8594 Q691.5781,462.7813 691.7813,462.7813 Q692.1094,462.7813 692.3594,463.0469 Q692.625,463.2969 692.625,463.6406 Q692.625,463.9844 692.2813,464.3906 Q691.7813,464.9688 690.9844,465.2969 Q689.9063,465.75 688.6094,465.75 Q687.0938,465.75 685.8906,465.125 Q684.9063,464.625 684.2188,463.5625 Q683.5313,462.4844 683.5313,461.2031 L683.5313,460.0469 Q683.5313,458.7188 684.1406,457.5781 Q684.7656,456.4219 685.8594,455.8125 Q686.9531,455.1875 688.1875,455.1875 Q688.9219,455.1875 689.5625,455.3594 Q690.2188,455.5156 690.7656,455.875 Z " fill="#000000"/><text fill="#000000" font-family="sans-serif" font-size="14" lengthAdjust="spacing" textLength="99" x="702" y="465.7285">LineOfBusiness</text><line style="stroke:#181818;stroke-width:0.5;" x1="674" x2="803" y1="476" y2="476"/><rect fill="none" height="6" style="stroke:#C82930;stroke-width:1.0;" width="6" x="681" y="487.3047"/><text fill="#000000" font-family="sans-serif" font-size="14" lengthAdjust="spacing" textLength="71" x="693" y="494.5332">String label</text><line style="stroke:#181818;stroke-width:0.5;" x1="674" x2="803" y1="501.6094" y2="501.6094"/></g><!--MD5=[c9857a6abdf473e4c06248345b109f8d]
class JobPosition--><g id="elem_JobPosition"><rect codeLine="42" fill="#F1F1F1" height="83.2188" id="JobPosition" rx="2.5" ry="2.5" style="stroke:#181818;stroke-width:0.5;" width="223" x="521" y="658.5"/><ellipse cx="592.25" cy="674.5" fill="#ADD1B2" rx="11" ry="11" style="stroke:#181818;stroke-width:1.0;"/><path d="M595.0156,670.375 Q595.1719,670.1563 595.3594,670.0469 Q595.5469,669.9375 595.7656,669.9375 Q596.1406,669.9375 596.375,670.2031 Q596.6094,670.4531 596.6094,671.0625 L596.6094,672.5156 Q596.6094,673.125 596.375,673.3906 Q596.1406,673.6563 595.7656,673.6563 Q595.4219,673.6563 595.2188,673.4531 Q595.0156,673.2656 594.9063,672.75 Q594.8594,672.3906 594.6719,672.2031 Q594.3438,671.8281 593.7344,671.6094 Q593.125,671.3906 592.5,671.3906 Q591.7344,671.3906 591.0938,671.7188 Q590.4688,672.0469 589.9688,672.7969 Q589.4844,673.5469 589.4844,674.5781 L589.4844,675.6719 Q589.4844,676.9063 590.375,677.7344 Q591.2656,678.5469 592.8594,678.5469 Q593.7969,678.5469 594.4531,678.2969 Q594.8438,678.1406 595.2656,677.7031 Q595.5313,677.4375 595.6719,677.3594 Q595.8281,677.2813 596.0313,677.2813 Q596.3594,677.2813 596.6094,677.5469 Q596.875,677.7969 596.875,678.1406 Q596.875,678.4844 596.5313,678.8906 Q596.0313,679.4688 595.2344,679.7969 Q594.1563,680.25 592.8594,680.25 Q591.3438,680.25 590.1406,679.625 Q589.1563,679.125 588.4688,678.0625 Q587.7813,676.9844 587.7813,675.7031 L587.7813,674.5469 Q587.7813,673.2188 588.3906,672.0781 Q589.0156,670.9219 590.1094,670.3125 Q591.2031,669.6875 592.4375,669.6875 Q593.1719,669.6875 593.8125,669.8594 Q594.4688,670.0156 595.0156,670.375 Z " fill="#000000"/><text fill="#000000" font-family="sans-serif" font-size="14" lengthAdjust="spacing" textLength="72" x="612.75" y="680.2285">JobPosition</text><line style="stroke:#181818;stroke-width:0.5;" x1="522" x2="743" y1="690.5" y2="690.5"/><rect fill="none" height="6" style="stroke:#C82930;stroke-width:1.0;" width="6" x="529" y="701.8047"/><text fill="#000000" font-family="sans-serif" font-size="14" lengthAdjust="spacing" textLength="71" x="541" y="709.0332">String label</text><rect fill="none" height="6" style="stroke:#C82930;stroke-width:1.0;" width="6" x="529" y="719.4141"/><text fill="#000000" font-family="sans-serif" font-size="14" lengthAdjust="spacing" textLength="197" x="541" y="726.6426">LineOfBusiness lineOfBusiness</text><line style="stroke:#181818;stroke-width:0.5;" x1="522" x2="743" y1="733.7188" y2="733.7188"/></g><!--MD5=[5b387e0e958626cd8cbfab96fbdae709]
class LevelOfExpertise--><g id="elem_LevelOfExpertise"><rect codeLine="49" fill="#F1F1F1" height="136.0469" id="LevelOfExpertise" rx="2.5" ry="2.5" style="stroke:#181818;stroke-width:0.5;" width="139" x="347" y="632"/><ellipse cx="362" cy="648" fill="#EB937F" rx="11" ry="11" style="stroke:#181818;stroke-width:1.0;"/><path d="M360.8594,648.7969 L360.8594,651.2969 L365.1875,651.2969 L365.1875,650.375 Q365.1875,649.7656 365.4219,649.5 Q365.6719,649.2344 366.0469,649.2344 Q366.4219,649.2344 366.6563,649.5 Q366.8906,649.7656 366.8906,650.375 L366.8906,653 L358.8906,653 Q358.2656,653 358,652.7656 Q357.75,652.5313 357.75,652.1406 Q357.75,651.7656 358.0156,651.5313 Q358.2813,651.2969 358.8906,651.2969 L359.1563,651.2969 L359.1563,644.6406 L358.8906,644.6406 Q358.2656,644.6406 358,644.4063 Q357.75,644.1719 357.75,643.7813 Q357.75,643.4063 358,643.1719 Q358.2656,642.9375 358.8906,642.9375 L366.5156,642.9375 L366.5156,645.5313 Q366.5156,646.1406 366.2813,646.4063 Q366.0625,646.6563 365.6719,646.6563 Q365.2969,646.6563 365.0625,646.4063 Q364.8281,646.1406 364.8281,645.5313 L364.8281,644.6406 L360.8594,644.6406 L360.8594,647.0938 L362.3438,647.0938 Q362.3438,646.4375 362.4688,646.25 Q362.7344,645.8438 363.2031,645.8438 Q363.5781,645.8438 363.8125,646.1094 Q364.0469,646.3594 364.0469,646.9688 L364.0469,648.9375 Q364.0469,649.4844 363.9219,649.6719 Q363.6563,650.0625 363.2031,650.0625 Q362.7344,650.0625 362.4688,649.6563 Q362.3438,649.4688 362.3438,648.7969 L360.8594,648.7969 Z " fill="#000000"/><text fill="#000000" font-family="sans-serif" font-size="14" lengthAdjust="spacing" textLength="107" x="376" y="653.7285">LevelOfExpertise</text><line style="stroke:#181818;stroke-width:0.5;" x1="348" x2="485" y1="664" y2="664"/><text fill="#000000" font-family="sans-serif" font-size="14" lengthAdjust="spacing" textLength="59" x="353" y="682.5332">A : Junior</text><text fill="#000000" font-family="sans-serif" font-size="14" lengthAdjust="spacing" textLength="103" x="353" y="700.1426">B : Intermédiaire</text><text fill="#000000" font-family="sans-serif" font-size="14" lengthAdjust="spacing" textLength="63" x="353" y="717.752">C : Senior</text><text fill="#000000" font-family="sans-serif" font-size="14" lengthAdjust="spacing" textLength="75" x="353" y="735.3613">D : Senior +</text><text fill="#000000" font-family="sans-serif" font-size="14" lengthAdjust="spacing" textLength="69" x="353" y="752.9707">E : Emérite</text><line style="stroke:#181818;stroke-width:0.5;" x1="348" x2="485" y1="760.0469" y2="760.0469"/></g><!--MD5=[42e1add689e888dd7b55d3ee3f1dd6d7]
class Skill--><g id="elem_Skill"><rect codeLine="57" fill="#F1F1F1" height="83.2188" id="Skill" rx="2.5" ry="2.5" style="stroke:#181818;stroke-width:0.5;" width="239" x="399" y="435.5"/><ellipse cx="501.75" cy="451.5" fill="#ADD1B2" rx="11" ry="11" style="stroke:#181818;stroke-width:1.0;"/><path d="M504.5156,447.375 Q504.6719,447.1563 504.8594,447.0469 Q505.0469,446.9375 505.2656,446.9375 Q505.6406,446.9375 505.875,447.2031 Q506.1094,447.4531 506.1094,448.0625 L506.1094,449.5156 Q506.1094,450.125 505.875,450.3906 Q505.6406,450.6563 505.2656,450.6563 Q504.9219,450.6563 504.7188,450.4531 Q504.5156,450.2656 504.4063,449.75 Q504.3594,449.3906 504.1719,449.2031 Q503.8438,448.8281 503.2344,448.6094 Q502.625,448.3906 502,448.3906 Q501.2344,448.3906 500.5938,448.7188 Q499.9688,449.0469 499.4688,449.7969 Q498.9844,450.5469 498.9844,451.5781 L498.9844,452.6719 Q498.9844,453.9063 499.875,454.7344 Q500.7656,455.5469 502.3594,455.5469 Q503.2969,455.5469 503.9531,455.2969 Q504.3438,455.1406 504.7656,454.7031 Q505.0313,454.4375 505.1719,454.3594 Q505.3281,454.2813 505.5313,454.2813 Q505.8594,454.2813 506.1094,454.5469 Q506.375,454.7969 506.375,455.1406 Q506.375,455.4844 506.0313,455.8906 Q505.5313,456.4688 504.7344,456.7969 Q503.6563,457.25 502.3594,457.25 Q500.8438,457.25 499.6406,456.625 Q498.6563,456.125 497.9688,455.0625 Q497.2813,453.9844 497.2813,452.7031 L497.2813,451.5469 Q497.2813,450.2188 497.8906,449.0781 Q498.5156,447.9219 499.6094,447.3125 Q500.7031,446.6875 501.9375,446.6875 Q502.6719,446.6875 503.3125,446.8594 Q503.9688,447.0156 504.5156,447.375 Z " fill="#000000"/><text fill="#000000" font-family="sans-serif" font-size="14" lengthAdjust="spacing" textLength="25" x="522.25" y="457.2285">Skill</text><line style="stroke:#181818;stroke-width:0.5;" x1="400" x2="637" y1="467.5" y2="467.5"/><rect fill="none" height="6" style="stroke:#C82930;stroke-width:1.0;" width="6" x="407" y="478.8047"/><text fill="#000000" font-family="sans-serif" font-size="14" lengthAdjust="spacing" textLength="145" x="419" y="486.0332">JobPosition jobPosition</text><rect fill="none" height="6" style="stroke:#C82930;stroke-width:1.0;" width="6" x="407" y="496.4141"/><text fill="#000000" font-family="sans-serif" font-size="14" lengthAdjust="spacing" textLength="213" x="419" y="503.6426">LevelOfExpertise levelOfExpertise</text><line style="stroke:#181818;stroke-width:0.5;" x1="400" x2="637" y1="510.7188" y2="510.7188"/></g><!--MD5=[039e1324682f111e73b05428000d64d4]
class TechnicalAdvisor--><g id="elem_TechnicalAdvisor"><rect codeLine="67" fill="#F1F1F1" height="100.8281" id="TechnicalAdvisor" rx="2.5" ry="2.5" style="stroke:#181818;stroke-width:0.5;" width="140" x="439.5" y="221"/><ellipse cx="454.5" cy="237" fill="#ADD1B2" rx="11" ry="11" style="stroke:#181818;stroke-width:1.0;"/><path d="M457.2656,232.875 Q457.4219,232.6563 457.6094,232.5469 Q457.7969,232.4375 458.0156,232.4375 Q458.3906,232.4375 458.625,232.7031 Q458.8594,232.9531 458.8594,233.5625 L458.8594,235.0156 Q458.8594,235.625 458.625,235.8906 Q458.3906,236.1563 458.0156,236.1563 Q457.6719,236.1563 457.4688,235.9531 Q457.2656,235.7656 457.1563,235.25 Q457.1094,234.8906 456.9219,234.7031 Q456.5938,234.3281 455.9844,234.1094 Q455.375,233.8906 454.75,233.8906 Q453.9844,233.8906 453.3438,234.2188 Q452.7188,234.5469 452.2188,235.2969 Q451.7344,236.0469 451.7344,237.0781 L451.7344,238.1719 Q451.7344,239.4063 452.625,240.2344 Q453.5156,241.0469 455.1094,241.0469 Q456.0469,241.0469 456.7031,240.7969 Q457.0938,240.6406 457.5156,240.2031 Q457.7813,239.9375 457.9219,239.8594 Q458.0781,239.7813 458.2813,239.7813 Q458.6094,239.7813 458.8594,240.0469 Q459.125,240.2969 459.125,240.6406 Q459.125,240.9844 458.7813,241.3906 Q458.2813,241.9688 457.4844,242.2969 Q456.4063,242.75 455.1094,242.75 Q453.5938,242.75 452.3906,242.125 Q451.4063,241.625 450.7188,240.5625 Q450.0313,239.4844 450.0313,238.2031 L450.0313,237.0469 Q450.0313,235.7188 450.6406,234.5781 Q451.2656,233.4219 452.3594,232.8125 Q453.4531,232.1875 454.6875,232.1875 Q455.4219,232.1875 456.0625,232.3594 Q456.7188,232.5156 457.2656,232.875 Z " fill="#000000"/><text fill="#000000" font-family="sans-serif" font-size="14" lengthAdjust="spacing" textLength="108" x="468.5" y="242.7285">TechnicalAdvisor</text><line style="stroke:#181818;stroke-width:0.5;" x1="440.5" x2="578.5" y1="253" y2="253"/><rect fill="none" height="6" style="stroke:#C82930;stroke-width:1.0;" width="6" x="447.5" y="264.3047"/><text fill="#000000" font-family="sans-serif" font-size="14" lengthAdjust="spacing" textLength="76" x="459.5" y="271.5332">String name</text><rect fill="none" height="6" style="stroke:#C82930;stroke-width:1.0;" width="6" x="447.5" y="281.9141"/><text fill="#000000" font-family="sans-serif" font-size="14" lengthAdjust="spacing" textLength="74" x="459.5" y="289.1426">String email</text><rect fill="none" height="6" style="stroke:#C82930;stroke-width:1.0;" width="6" x="447.5" y="299.5234"/><text fill="#000000" font-family="sans-serif" font-size="14" lengthAdjust="spacing" textLength="97" x="459.5" y="306.752">List&lt;Skill&gt; skills</text><line style="stroke:#181818;stroke-width:0.5;" x1="440.5" x2="578.5" y1="313.8281" y2="313.8281"/></g><!--MD5=[c657285451e6ce6258796004fb20b244]
class InterviewRequest--><g id="elem_InterviewRequest"><rect codeLine="75" fill="#F1F1F1" height="118.4375" id="InterviewRequest" rx="2.5" ry="2.5" style="stroke:#181818;stroke-width:0.5;" width="244" x="387.5" y="16"/><ellipse cx="451.25" cy="32" fill="#ADD1B2" rx="11" ry="11" style="stroke:#181818;stroke-width:1.0;"/><path d="M454.0156,27.875 Q454.1719,27.6563 454.3594,27.5469 Q454.5469,27.4375 454.7656,27.4375 Q455.1406,27.4375 455.375,27.7031 Q455.6094,27.9531 455.6094,28.5625 L455.6094,30.0156 Q455.6094,30.625 455.375,30.8906 Q455.1406,31.1563 454.7656,31.1563 Q454.4219,31.1563 454.2188,30.9531 Q454.0156,30.7656 453.9063,30.25 Q453.8594,29.8906 453.6719,29.7031 Q453.3438,29.3281 452.7344,29.1094 Q452.125,28.8906 451.5,28.8906 Q450.7344,28.8906 450.0938,29.2188 Q449.4688,29.5469 448.9688,30.2969 Q448.4844,31.0469 448.4844,32.0781 L448.4844,33.1719 Q448.4844,34.4063 449.375,35.2344 Q450.2656,36.0469 451.8594,36.0469 Q452.7969,36.0469 453.4531,35.7969 Q453.8438,35.6406 454.2656,35.2031 Q454.5313,34.9375 454.6719,34.8594 Q454.8281,34.7813 455.0313,34.7813 Q455.3594,34.7813 455.6094,35.0469 Q455.875,35.2969 455.875,35.6406 Q455.875,35.9844 455.5313,36.3906 Q455.0313,36.9688 454.2344,37.2969 Q453.1563,37.75 451.8594,37.75 Q450.3438,37.75 449.1406,37.125 Q448.1563,36.625 447.4688,35.5625 Q446.7813,34.4844 446.7813,33.2031 L446.7813,32.0469 Q446.7813,30.7188 447.3906,29.5781 Q448.0156,28.4219 449.1094,27.8125 Q450.2031,27.1875 451.4375,27.1875 Q452.1719,27.1875 452.8125,27.3594 Q453.4688,27.5156 454.0156,27.875 Z " fill="#000000"/><text fill="#000000" font-family="sans-serif" font-size="14" lengthAdjust="spacing" textLength="108" x="471.75" y="37.7285">InterviewRequest</text><line style="stroke:#181818;stroke-width:0.5;" x1="388.5" x2="630.5" y1="48" y2="48"/><rect fill="none" height="6" style="stroke:#C82930;stroke-width:1.0;" width="6" x="395.5" y="59.3047"/><text fill="#000000" font-family="sans-serif" font-size="14" lengthAdjust="spacing" textLength="114" x="407.5" y="66.5332">Interview Interview</text><rect fill="none" height="6" style="stroke:#C82930;stroke-width:1.0;" width="6" x="395.5" y="76.9141"/><text fill="#000000" font-family="sans-serif" font-size="14" lengthAdjust="spacing" textLength="215" x="407.5" y="84.1426">TechnicalAdvisor technicalAdvisor</text><rect fill="none" height="6" style="stroke:#C82930;stroke-width:1.0;" width="6" x="395.5" y="94.5234"/><text fill="#000000" font-family="sans-serif" font-size="14" lengthAdjust="spacing" textLength="218" x="407.5" y="101.752">StatusOfRequest statusOfRequest</text><rect fill="none" height="6" style="stroke:#C82930;stroke-width:1.0;" width="6" x="395.5" y="112.1328"/><text fill="#000000" font-family="sans-serif" font-size="14" lengthAdjust="spacing" textLength="71" x="407.5" y="119.3613">String motif</text><line style="stroke:#181818;stroke-width:0.5;" x1="388.5" x2="630.5" y1="126.4375" y2="126.4375"/></g><!--MD5=[7289a2d1927ad88f01a60bb5b3b51762]
class StatusOfRequest--><g id="elem_StatusOfRequest"><rect codeLine="85" fill="#F1F1F1" height="136.0469" id="StatusOfRequest" rx="2.5" ry="2.5" style="stroke:#181818;stroke-width:0.5;" width="263" x="667" y="7"/><ellipse cx="740.25" cy="23" fill="#EB937F" rx="11" ry="11" style="stroke:#181818;stroke-width:1.0;"/><path d="M739.1094,23.7969 L739.1094,26.2969 L743.4375,26.2969 L743.4375,25.375 Q743.4375,24.7656 743.6719,24.5 Q743.9219,24.2344 744.2969,24.2344 Q744.6719,24.2344 744.9063,24.5 Q745.1406,24.7656 745.1406,25.375 L745.1406,28 L737.1406,28 Q736.5156,28 736.25,27.7656 Q736,27.5313 736,27.1406 Q736,26.7656 736.2656,26.5313 Q736.5313,26.2969 737.1406,26.2969 L737.4063,26.2969 L737.4063,19.6406 L737.1406,19.6406 Q736.5156,19.6406 736.25,19.4063 Q736,19.1719 736,18.7813 Q736,18.4063 736.25,18.1719 Q736.5156,17.9375 737.1406,17.9375 L744.7656,17.9375 L744.7656,20.5313 Q744.7656,21.1406 744.5313,21.4063 Q744.3125,21.6563 743.9219,21.6563 Q743.5469,21.6563 743.3125,21.4063 Q743.0781,21.1406 743.0781,20.5313 L743.0781,19.6406 L739.1094,19.6406 L739.1094,22.0938 L740.5938,22.0938 Q740.5938,21.4375 740.7188,21.25 Q740.9844,20.8438 741.4531,20.8438 Q741.8281,20.8438 742.0625,21.1094 Q742.2969,21.3594 742.2969,21.9688 L742.2969,23.9375 Q742.2969,24.4844 742.1719,24.6719 Q741.9063,25.0625 741.4531,25.0625 Q740.9844,25.0625 740.7188,24.6563 Q740.5938,24.4688 740.5938,23.7969 L739.1094,23.7969 Z " fill="#000000"/><text fill="#000000" font-family="sans-serif" font-size="14" lengthAdjust="spacing" textLength="108" x="760.75" y="28.7285">StatusOfRequest</text><line style="stroke:#181818;stroke-width:0.5;" x1="668" x2="929" y1="39" y2="39"/><text fill="#000000" font-family="sans-serif" font-size="14" lengthAdjust="spacing" textLength="57" x="673" y="57.5332">OPENED</text><text fill="#000000" font-family="sans-serif" font-size="14" lengthAdjust="spacing" textLength="69" x="673" y="75.1426">ASSIGNED</text><text fill="#000000" font-family="sans-serif" font-size="14" lengthAdjust="spacing" textLength="75" x="673" y="92.752">ACCEPTED</text><text fill="#000000" font-family="sans-serif" font-size="14" lengthAdjust="spacing" textLength="251" x="673" y="110.3613">REJECTED_BY_TECHNICAL_ADVISOR</text><text fill="#000000" font-family="sans-serif" font-size="14" lengthAdjust="spacing" textLength="181" x="673" y="127.9707">DECLINED_BY_RECRUITER</text><line style="stroke:#181818;stroke-width:0.5;" x1="668" x2="929" y1="135.0469" y2="135.0469"/></g><!--MD5=[19d847c6210fa9914276cc0361a9a3b8]
class statusOfRequest--><g id="elem_statusOfRequest"><rect fill="#F1F1F1" height="48" id="statusOfRequest" rx="2.5" ry="2.5" style="stroke:#181818;stroke-width:0.5;" width="138" x="614.5" y="247.5"/><ellipse cx="629.5" cy="263.5" fill="#ADD1B2" rx="11" ry="11" style="stroke:#181818;stroke-width:1.0;"/><path d="M632.2656,259.375 Q632.4219,259.1563 632.6094,259.0469 Q632.7969,258.9375 633.0156,258.9375 Q633.3906,258.9375 633.625,259.2031 Q633.8594,259.4531 633.8594,260.0625 L633.8594,261.5156 Q633.8594,262.125 633.625,262.3906 Q633.3906,262.6563 633.0156,262.6563 Q632.6719,262.6563 632.4688,262.4531 Q632.2656,262.2656 632.1563,261.75 Q632.1094,261.3906 631.9219,261.2031 Q631.5938,260.8281 630.9844,260.6094 Q630.375,260.3906 629.75,260.3906 Q628.9844,260.3906 628.3438,260.7188 Q627.7188,261.0469 627.2188,261.7969 Q626.7344,262.5469 626.7344,263.5781 L626.7344,264.6719 Q626.7344,265.9063 627.625,266.7344 Q628.5156,267.5469 630.1094,267.5469 Q631.0469,267.5469 631.7031,267.2969 Q632.0938,267.1406 632.5156,266.7031 Q632.7813,266.4375 632.9219,266.3594 Q633.0781,266.2813 633.2813,266.2813 Q633.6094,266.2813 633.8594,266.5469 Q634.125,266.7969 634.125,267.1406 Q634.125,267.4844 633.7813,267.8906 Q633.2813,268.4688 632.4844,268.7969 Q631.4063,269.25 630.1094,269.25 Q628.5938,269.25 627.3906,268.625 Q626.4063,268.125 625.7188,267.0625 Q625.0313,265.9844 625.0313,264.7031 L625.0313,263.5469 Q625.0313,262.2188 625.6406,261.0781 Q626.2656,259.9219 627.3594,259.3125 Q628.4531,258.6875 629.6875,258.6875 Q630.4219,258.6875 631.0625,258.8594 Q631.7188,259.0156 632.2656,259.375 Z " fill="#000000"/><text fill="#000000" font-family="sans-serif" font-size="14" lengthAdjust="spacing" textLength="106" x="643.5" y="269.2285">statusOfRequest</text><line style="stroke:#181818;stroke-width:0.5;" x1="615.5" x2="751.5" y1="279.5" y2="279.5"/><line style="stroke:#181818;stroke-width:0.5;" x1="615.5" x2="751.5" y1="287.5" y2="287.5"/></g><!--MD5=[411ac9b35a428c4eb122e03c6fbc7bb5]
link Recruiter to Interview--><g id="link_Recruiter_Interview"><path codeLine="21" d="M246.9,313.19 C246.53,338.01 246.05,370.53 245.62,399.97 " fill="none" id="Recruiter-Interview" style="stroke:#181818;stroke-width:1.0;"/><polygon fill="#000000" points="250.4263,366.1752,253.4983,357.1745,247.6211,357.0878,250.4263,366.1752" style="stroke:#000000;stroke-width:1.0;"/><text fill="#000000" font-family="sans-serif" font-size="13" lengthAdjust="spacing" textLength="36" x="259.5" y="366.4951">create</text><text fill="#000000" font-family="sans-serif" font-size="13" lengthAdjust="spacing" textLength="7" x="239.2466" y="334.615">1</text><text fill="#000000" font-family="sans-serif" font-size="13" lengthAdjust="spacing" textLength="5" x="240.4842" y="389.1292">*</text></g><!--MD5=[f6bd41d09e472e5b90001dc1eebd28ed]
link Applicant to Interview--><g id="link_Applicant_Interview"><path codeLine="22" d="M137.29,313.19 C153.64,338.01 175.05,370.53 194.44,399.97 " fill="none" id="Applicant-Interview" style="stroke:#181818;stroke-width:1.0;"/><polygon fill="#000000" points="174.75,357,177.2703,366.1705,182.1793,362.9377,174.75,357" style="stroke:#000000;stroke-width:1.0;"/><text fill="#000000" font-family="sans-serif" font-size="13" lengthAdjust="spacing" textLength="26" x="186.5" y="366.4951">have</text><text fill="#000000" font-family="sans-serif" font-size="13" lengthAdjust="spacing" textLength="7" x="134.0018" y="334.615">1</text><text fill="#000000" font-family="sans-serif" font-size="13" lengthAdjust="spacing" textLength="7" x="182.1677" y="389.1292">1</text></g><!--MD5=[a4245a6e44b42133181c1df6789e9f34]
link Interview to StateOfInterview--><g id="link_Interview_StateOfInterview"><path codeLine="35" d="M186,554.06 C161.79,585.52 134.4,621.12 112.83,649.17 " fill="none" id="Interview-StateOfInterview" style="stroke:#181818;stroke-width:1.0;"/><polygon fill="#000000" points="161.4512,597.1387,169.2959,591.7617,164.6371,588.1777,161.4512,597.1387" style="stroke:#000000;stroke-width:1.0;"/><text fill="#000000" font-family="sans-serif" font-size="13" lengthAdjust="spacing" textLength="10" x="173.5" y="598.4951">is</text></g><!--MD5=[1d9775c27ee1238ee302eb89eb65120c]
link Interview to TypeOfInterview--><g id="link_Interview_TypeOfInterview"><path codeLine="36" d="M244.5,554.06 C244.5,589.02 244.5,629.09 244.5,658.22 " fill="none" id="Interview-TypeOfInterview" style="stroke:#181818;stroke-width:1.0;"/><polygon fill="#000000" points="249.5,598.1758,252.4389,589.1307,246.5611,589.1307,249.5,598.1758" style="stroke:#000000;stroke-width:1.0;"/><text fill="#000000" font-family="sans-serif" font-size="13" lengthAdjust="spacing" textLength="10" x="258.5" y="598.4951">is</text></g><!--MD5=[0b572abb4a84df7a32cbc74d61f265e4]
link LineOfBusiness to JobPosition--><g id="link_LineOfBusiness_JobPosition"><path codeLine="47" d="M723.09,510.14 C704.31,549.28 672.57,615.46 652.08,658.18 " fill="none" id="LineOfBusiness-JobPosition" style="stroke:#181818;stroke-width:1.0;"/><text fill="#000000" font-family="sans-serif" font-size="13" lengthAdjust="spacing" textLength="7" x="712.7217" y="531.0293">1</text><text fill="#000000" font-family="sans-serif" font-size="13" lengthAdjust="spacing" textLength="5" x="649.8021" y="647.7456">*</text></g><!--MD5=[08047943c065864ab9a563da49729134]
link Skill to JobPosition--><g id="link_Skill_JobPosition"><path codeLine="62" d="M539.41,518.53 C559.91,558.29 591,618.56 611.53,658.35 " fill="none" id="Skill-JobPosition" style="stroke:#181818;stroke-width:1.0;"/><text fill="#000000" font-family="sans-serif" font-size="13" lengthAdjust="spacing" textLength="5" x="537.4592" y="540.2395">*</text><text fill="#000000" font-family="sans-serif" font-size="13" lengthAdjust="spacing" textLength="7" x="600.4772" y="647.6328">1</text></g><!--MD5=[77fc2325c3b6cb5565594f7a79fc26b0]
link Skill to LevelOfExpertise--><g id="link_Skill_LevelOfExpertise"><path codeLine="63" d="M499.79,518.53 C485.18,550.19 464.57,594.85 447.51,631.82 " fill="none" id="Skill-LevelOfExpertise" style="stroke:#181818;stroke-width:1.0;"/><polygon fill="#000000" points="470.405,597.7157,476.8634,590.7343,471.5264,588.2715,470.405,597.7157" style="stroke:#000000;stroke-width:1.0;"/><text fill="#000000" font-family="sans-serif" font-size="13" lengthAdjust="spacing" textLength="26" x="481.5" y="598.4951">have</text></g><!--MD5=[b5e097a96365bc34d75e85dd3801b9d4]
link Interview to JobPosition--><g id="link_Interview_JobPosition"><path codeLine="64" d="M364.14,550.53 C392.94,567.65 423.7,585.67 452.5,602 C486,621 523.44,641.32 555.46,658.43 " fill="none" id="Interview-JobPosition" style="stroke:#181818;stroke-width:1.0;"/><text fill="#000000" font-family="sans-serif" font-size="13" lengthAdjust="spacing" textLength="5" x="371.9646" y="552.2454">*</text><text fill="#000000" font-family="sans-serif" font-size="13" lengthAdjust="spacing" textLength="7" x="535.1206" y="647.7261">1</text></g><!--MD5=[a9555c7d1a9b3c45f662e8ae28813214]
link Interview to LevelOfExpertise--><g id="link_Interview_LevelOfExpertise"><path codeLine="65" d="M302.57,554.23 C314.72,570.06 327.49,586.6 339.5,602 C347.04,611.66 355.03,621.83 362.91,631.8 " fill="none" id="Interview-LevelOfExpertise" style="stroke:#181818;stroke-width:1.0;"/><polygon fill="#000000" points="347.5699,597.1224,344.3361,588.1785,339.6966,591.7874,347.5699,597.1224" style="stroke:#000000;stroke-width:1.0;"/><text fill="#000000" font-family="sans-serif" font-size="13" lengthAdjust="spacing" textLength="26" x="353.5" y="598.4951">have</text></g><!--MD5=[1da728fec725fb0ddd5f3bca6e0d30e1]
link TechnicalAdvisor to Skill--><g id="link_TechnicalAdvisor_Skill"><path codeLine="73" d="M511.69,322.02 C513.23,356.73 515.25,402.56 516.69,435.17 " fill="none" id="TechnicalAdvisor-Skill" style="stroke:#181818;stroke-width:1.0;"/><text fill="#000000" font-family="sans-serif" font-size="13" lengthAdjust="spacing" textLength="5" x="506.6483" y="343.4139">*</text><text fill="#000000" font-family="sans-serif" font-size="13" lengthAdjust="spacing" textLength="5" x="511.0031" y="424.734">*</text></g><!--MD5=[27105e6ca44d7c30f4d7bffccc670f1e]
link InterviewRequest to Interview--><g id="link_InterviewRequest_Interview"><path codeLine="82" d="M470.97,134.16 C424.46,204.37 346.12,322.61 294.87,399.98 " fill="none" id="InterviewRequest-Interview" style="stroke:#181818;stroke-width:1.0;"/><text fill="#000000" font-family="sans-serif" font-size="13" lengthAdjust="spacing" textLength="5" x="460.9695" y="155.835">*</text><text fill="#000000" font-family="sans-serif" font-size="13" lengthAdjust="spacing" textLength="7" x="292.4838" y="389.1402">1</text></g><!--MD5=[72632b515c88e6ca4f50b81b9fe7fbed]
link InterviewRequest to TechnicalAdvisor--><g id="link_InterviewRequest_TechnicalAdvisor"><path codeLine="83" d="M509.5,134.09 C509.5,161.74 509.5,194.46 509.5,220.92 " fill="none" id="InterviewRequest-TechnicalAdvisor" style="stroke:#181818;stroke-width:1.0;"/><text fill="#000000" font-family="sans-serif" font-size="13" lengthAdjust="spacing" textLength="5" x="504.1953" y="155.7565">*</text><text fill="#000000" font-family="sans-serif" font-size="13" lengthAdjust="spacing" textLength="7" x="502.0078" y="210.2141">1</text></g><!--MD5=[bdef1c3b54c1ac8d08b993908aff9933]
link InterviewRequest to statusOfRequest--><g id="link_InterviewRequest_statusOfRequest"><path codeLine="93" d="M561.47,134.09 C595.32,171.93 637.66,219.26 662.53,247.05 " fill="none" id="InterviewRequest-statusOfRequest" style="stroke:#181818;stroke-width:1.0;"/><polygon fill="#000000" points="619.8338,185.9021,615.9932,177.2015,611.6126,181.1207,619.8338,185.9021" style="stroke:#000000;stroke-width:1.0;"/><text fill="#000000" font-family="sans-serif" font-size="13" lengthAdjust="spacing" textLength="26" x="625.5" y="187.4951">have</text></g><!--MD5=[118b1b37b12c83bf1ee9c450aabbf4c7]
@startuml

class Applicant {
 - String name
 - String email
}

class Recruiter {
 - String name
 - String email
}

class Interview {
 - Applicant applicant
 - Recruiter recruiter
 - JobPosition jobPosition
 - StateOfInterview stateOfInterview
 - LevelOfExpertise levelOfExpertise
 - TypeOfInterview typeOfInterview
}

Recruiter "1" - - "*" Interview : create >
Applicant "1" - - "1" Interview : have <

enum StateOfInterview {
 OPEN
 IN_PROGRESS
 CLOSED
}

enum TypeOfInterview {
 URGENT
 NOT_URGENT
}

Interview - - StateOfInterview : is >
Interview - - TypeOfInterview : is >

class LineOfBusiness {
 - String label
}

class JobPosition {
 - String label
 - LineOfBusiness lineOfBusiness
}

LineOfBusiness "1" - - "*" JobPosition

enum LevelOfExpertise {
 A : Junior
 B : Intermédiaire
 C : Senior
 D : Senior +
 E : Emérite
}

class Skill {
 - JobPosition jobPosition
 - LevelOfExpertise levelOfExpertise
}

Skill "*" - - "1" JobPosition
Skill - -  LevelOfExpertise : have >
Interview "*" - - "1" JobPosition
Interview - - LevelOfExpertise : have >

class TechnicalAdvisor {
 - String name
 - String email
 - List<Skill> skills
}

TechnicalAdvisor "*" - - "*" Skill

class InterviewRequest {
    - Interview Interview
    - TechnicalAdvisor technicalAdvisor
    - StatusOfRequest statusOfRequest
    - String motif
}

InterviewRequest "*" - - "1" Interview
InterviewRequest "*" - - "1" TechnicalAdvisor

enum StatusOfRequest {
 OPENED
 ASSIGNED
 ACCEPTED
 REJECTED_BY_TECHNICAL_ADVISOR
 DECLINED_BY_RECRUITER
}

InterviewRequest - - statusOfRequest : have >

@enduml

PlantUML version 1.2022.7(Mon Aug 22 13:01:30 EDT 2022)
(GPL source distribution)
Java Runtime: OpenJDK Runtime Environment
JVM: OpenJDK 64-Bit Server VM
Default Encoding: Cp1252
Language: en
Country: US
--></g></svg>