<?xml version="1.0" encoding="UTF-8" standalone="no"?><svg xmlns="http://www.w3.org/2000/svg" xmlns:xlink="http://www.w3.org/1999/xlink" contentStyleType="text/css" height="828px" preserveAspectRatio="none" style="width:1082px;height:828px;background:#FFFFFF;" version="1.1" viewBox="0 0 1082 828" width="1082px" zoomAndPan="magnify"><defs/><g><!--MD5=[110d3e1b3848a9f83035e0cf17801c91]
class Applicant--><g id="elem_Applicant"><rect codeLine="2" fill="#F1F1F1" height="83.2188" id="Applicant" rx="2.5" ry="2.5" style="stroke:#181818;stroke-width:0.5;" width="102" x="291.5" y="265.5"/><ellipse cx="311.9" cy="281.5" fill="#ADD1B2" rx="11" ry="11" style="stroke:#181818;stroke-width:1.0;"/><path d="M314.6656,277.375 Q314.8219,277.1563 315.0094,277.0469 Q315.1969,276.9375 315.4156,276.9375 Q315.7906,276.9375 316.025,277.2031 Q316.2594,277.4531 316.2594,278.0625 L316.2594,279.5156 Q316.2594,280.125 316.025,280.3906 Q315.7906,280.6563 315.4156,280.6563 Q315.0719,280.6563 314.8688,280.4531 Q314.6656,280.2656 314.5563,279.75 Q314.5094,279.3906 314.3219,279.2031 Q313.9938,278.8281 313.3844,278.6094 Q312.775,278.3906 312.15,278.3906 Q311.3844,278.3906 310.7438,278.7188 Q310.1188,279.0469 309.6188,279.7969 Q309.1344,280.5469 309.1344,281.5781 L309.1344,282.6719 Q309.1344,283.9063 310.025,284.7344 Q310.9156,285.5469 312.5094,285.5469 Q313.4469,285.5469 314.1031,285.2969 Q314.4938,285.1406 314.9156,284.7031 Q315.1813,284.4375 315.3219,284.3594 Q315.4781,284.2813 315.6813,284.2813 Q316.0094,284.2813 316.2594,284.5469 Q316.525,284.7969 316.525,285.1406 Q316.525,285.4844 316.1813,285.8906 Q315.6813,286.4688 314.8844,286.7969 Q313.8063,287.25 312.5094,287.25 Q310.9938,287.25 309.7906,286.625 Q308.8063,286.125 308.1188,285.0625 Q307.4313,283.9844 307.4313,282.7031 L307.4313,281.5469 Q307.4313,280.2188 308.0406,279.0781 Q308.6656,277.9219 309.7594,277.3125 Q310.8531,276.6875 312.0875,276.6875 Q312.8219,276.6875 313.4625,276.8594 Q314.1188,277.0156 314.6656,277.375 Z " fill="#000000"/><text fill="#000000" font-family="sans-serif" font-size="14" lengthAdjust="spacing" textLength="58" x="327.1" y="287.2285">Applicant</text><line style="stroke:#181818;stroke-width:0.5;" x1="292.5" x2="392.5" y1="297.5" y2="297.5"/><rect fill="none" height="6" style="stroke:#C82930;stroke-width:1.0;" width="6" x="299.5" y="308.8047"/><text fill="#000000" font-family="sans-serif" font-size="14" lengthAdjust="spacing" textLength="76" x="311.5" y="316.0332">String name</text><rect fill="none" height="6" style="stroke:#C82930;stroke-width:1.0;" width="6" x="299.5" y="326.4141"/><text fill="#000000" font-family="sans-serif" font-size="14" lengthAdjust="spacing" textLength="74" x="311.5" y="333.6426">String email</text><line style="stroke:#181818;stroke-width:0.5;" x1="292.5" x2="392.5" y1="340.7188" y2="340.7188"/></g><!--MD5=[5480d453c2f6d8b2e8b175927b09ed37]
class Recruiter--><g id="elem_Recruiter"><rect codeLine="7" fill="#F1F1F1" height="83.2188" id="Recruiter" rx="2.5" ry="2.5" style="stroke:#181818;stroke-width:0.5;" width="102" x="428.5" y="265.5"/><ellipse cx="448.9" cy="281.5" fill="#ADD1B2" rx="11" ry="11" style="stroke:#181818;stroke-width:1.0;"/><path d="M451.6656,277.375 Q451.8219,277.1563 452.0094,277.0469 Q452.1969,276.9375 452.4156,276.9375 Q452.7906,276.9375 453.025,277.2031 Q453.2594,277.4531 453.2594,278.0625 L453.2594,279.5156 Q453.2594,280.125 453.025,280.3906 Q452.7906,280.6563 452.4156,280.6563 Q452.0719,280.6563 451.8688,280.4531 Q451.6656,280.2656 451.5563,279.75 Q451.5094,279.3906 451.3219,279.2031 Q450.9938,278.8281 450.3844,278.6094 Q449.775,278.3906 449.15,278.3906 Q448.3844,278.3906 447.7438,278.7188 Q447.1188,279.0469 446.6188,279.7969 Q446.1344,280.5469 446.1344,281.5781 L446.1344,282.6719 Q446.1344,283.9063 447.025,284.7344 Q447.9156,285.5469 449.5094,285.5469 Q450.4469,285.5469 451.1031,285.2969 Q451.4938,285.1406 451.9156,284.7031 Q452.1813,284.4375 452.3219,284.3594 Q452.4781,284.2813 452.6813,284.2813 Q453.0094,284.2813 453.2594,284.5469 Q453.525,284.7969 453.525,285.1406 Q453.525,285.4844 453.1813,285.8906 Q452.6813,286.4688 451.8844,286.7969 Q450.8063,287.25 449.5094,287.25 Q447.9938,287.25 446.7906,286.625 Q445.8063,286.125 445.1188,285.0625 Q444.4313,283.9844 444.4313,282.7031 L444.4313,281.5469 Q444.4313,280.2188 445.0406,279.0781 Q445.6656,277.9219 446.7594,277.3125 Q447.8531,276.6875 449.0875,276.6875 Q449.8219,276.6875 450.4625,276.8594 Q451.1188,277.0156 451.6656,277.375 Z " fill="#000000"/><text fill="#000000" font-family="sans-serif" font-size="14" lengthAdjust="spacing" textLength="58" x="464.1" y="287.2285">Recruiter</text><line style="stroke:#181818;stroke-width:0.5;" x1="429.5" x2="529.5" y1="297.5" y2="297.5"/><rect fill="none" height="6" style="stroke:#C82930;stroke-width:1.0;" width="6" x="436.5" y="308.8047"/><text fill="#000000" font-family="sans-serif" font-size="14" lengthAdjust="spacing" textLength="76" x="448.5" y="316.0332">String name</text><rect fill="none" height="6" style="stroke:#C82930;stroke-width:1.0;" width="6" x="436.5" y="326.4141"/><text fill="#000000" font-family="sans-serif" font-size="14" lengthAdjust="spacing" textLength="74" x="448.5" y="333.6426">String email</text><line style="stroke:#181818;stroke-width:0.5;" x1="429.5" x2="529.5" y1="340.7188" y2="340.7188"/></g><!--MD5=[189cdaa920282c54fac24e24fd77ed3f]
class Interview--><g id="elem_Interview"><rect codeLine="12" fill="#F1F1F1" height="153.6563" id="Interview" rx="2.5" ry="2.5" style="stroke:#181818;stroke-width:0.5;" width="239" x="313" y="453"/><ellipse cx="400.75" cy="469" fill="#ADD1B2" rx="11" ry="11" style="stroke:#181818;stroke-width:1.0;"/><path d="M403.5156,464.875 Q403.6719,464.6563 403.8594,464.5469 Q404.0469,464.4375 404.2656,464.4375 Q404.6406,464.4375 404.875,464.7031 Q405.1094,464.9531 405.1094,465.5625 L405.1094,467.0156 Q405.1094,467.625 404.875,467.8906 Q404.6406,468.1563 404.2656,468.1563 Q403.9219,468.1563 403.7188,467.9531 Q403.5156,467.7656 403.4063,467.25 Q403.3594,466.8906 403.1719,466.7031 Q402.8438,466.3281 402.2344,466.1094 Q401.625,465.8906 401,465.8906 Q400.2344,465.8906 399.5938,466.2188 Q398.9688,466.5469 398.4688,467.2969 Q397.9844,468.0469 397.9844,469.0781 L397.9844,470.1719 Q397.9844,471.4063 398.875,472.2344 Q399.7656,473.0469 401.3594,473.0469 Q402.2969,473.0469 402.9531,472.7969 Q403.3438,472.6406 403.7656,472.2031 Q404.0313,471.9375 404.1719,471.8594 Q404.3281,471.7813 404.5313,471.7813 Q404.8594,471.7813 405.1094,472.0469 Q405.375,472.2969 405.375,472.6406 Q405.375,472.9844 405.0313,473.3906 Q404.5313,473.9688 403.7344,474.2969 Q402.6563,474.75 401.3594,474.75 Q399.8438,474.75 398.6406,474.125 Q397.6563,473.625 396.9688,472.5625 Q396.2813,471.4844 396.2813,470.2031 L396.2813,469.0469 Q396.2813,467.7188 396.8906,466.5781 Q397.5156,465.4219 398.6094,464.8125 Q399.7031,464.1875 400.9375,464.1875 Q401.6719,464.1875 402.3125,464.3594 Q402.9688,464.5156 403.5156,464.875 Z " fill="#000000"/><text fill="#000000" font-family="sans-serif" font-size="14" lengthAdjust="spacing" textLength="55" x="421.25" y="474.7285">Interview</text><line style="stroke:#181818;stroke-width:0.5;" x1="314" x2="551" y1="485" y2="485"/><rect fill="none" height="6" style="stroke:#C82930;stroke-width:1.0;" width="6" x="321" y="496.3047"/><text fill="#000000" font-family="sans-serif" font-size="14" lengthAdjust="spacing" textLength="119" x="333" y="503.5332">Applicant applicant</text><rect fill="none" height="6" style="stroke:#C82930;stroke-width:1.0;" width="6" x="321" y="513.9141"/><text fill="#000000" font-family="sans-serif" font-size="14" lengthAdjust="spacing" textLength="115" x="333" y="521.1426">Recruiter recruiter</text><rect fill="none" height="6" style="stroke:#C82930;stroke-width:1.0;" width="6" x="321" y="531.5234"/><text fill="#000000" font-family="sans-serif" font-size="14" lengthAdjust="spacing" textLength="145" x="333" y="538.752">JobPosition jobPosition</text><rect fill="none" height="6" style="stroke:#C82930;stroke-width:1.0;" width="6" x="321" y="549.1328"/><text fill="#000000" font-family="sans-serif" font-size="14" lengthAdjust="spacing" textLength="208" x="333" y="556.3613">StateOfInterview stateOfInterview</text><rect fill="none" height="6" style="stroke:#C82930;stroke-width:1.0;" width="6" x="321" y="566.7422"/><text fill="#000000" font-family="sans-serif" font-size="14" lengthAdjust="spacing" textLength="213" x="333" y="573.9707">LevelOfExpertise levelOfExpertise</text><rect fill="none" height="6" style="stroke:#C82930;stroke-width:1.0;" width="6" x="321" y="584.3516"/><text fill="#000000" font-family="sans-serif" font-size="14" lengthAdjust="spacing" textLength="203" x="333" y="591.5801">TypeOfInterview typeOfInterview</text><line style="stroke:#181818;stroke-width:0.5;" x1="314" x2="551" y1="598.6563" y2="598.6563"/></g><!--MD5=[e8518bf17a287e57bc75627b6f285a99]
class StateOfInterview--><g id="elem_StateOfInterview"><rect codeLine="24" fill="#F1F1F1" height="118.4375" id="StateOfInterview" rx="2.5" ry="2.5" style="stroke:#181818;stroke-width:0.5;" width="135" x="195" y="694"/><ellipse cx="210" cy="710" fill="#EB937F" rx="11" ry="11" style="stroke:#181818;stroke-width:1.0;"/><path d="M208.8594,710.7969 L208.8594,713.2969 L213.1875,713.2969 L213.1875,712.375 Q213.1875,711.7656 213.4219,711.5 Q213.6719,711.2344 214.0469,711.2344 Q214.4219,711.2344 214.6563,711.5 Q214.8906,711.7656 214.8906,712.375 L214.8906,715 L206.8906,715 Q206.2656,715 206,714.7656 Q205.75,714.5313 205.75,714.1406 Q205.75,713.7656 206.0156,713.5313 Q206.2813,713.2969 206.8906,713.2969 L207.1563,713.2969 L207.1563,706.6406 L206.8906,706.6406 Q206.2656,706.6406 206,706.4063 Q205.75,706.1719 205.75,705.7813 Q205.75,705.4063 206,705.1719 Q206.2656,704.9375 206.8906,704.9375 L214.5156,704.9375 L214.5156,707.5313 Q214.5156,708.1406 214.2813,708.4063 Q214.0625,708.6563 213.6719,708.6563 Q213.2969,708.6563 213.0625,708.4063 Q212.8281,708.1406 212.8281,707.5313 L212.8281,706.6406 L208.8594,706.6406 L208.8594,709.0938 L210.3438,709.0938 Q210.3438,708.4375 210.4688,708.25 Q210.7344,707.8438 211.2031,707.8438 Q211.5781,707.8438 211.8125,708.1094 Q212.0469,708.3594 212.0469,708.9688 L212.0469,710.9375 Q212.0469,711.4844 211.9219,711.6719 Q211.6563,712.0625 211.2031,712.0625 Q210.7344,712.0625 210.4688,711.6563 Q210.3438,711.4688 210.3438,710.7969 L208.8594,710.7969 Z " fill="#000000"/><text fill="#000000" font-family="sans-serif" font-size="14" lengthAdjust="spacing" textLength="103" x="224" y="715.7285">StateOfInterview</text><line style="stroke:#181818;stroke-width:0.5;" x1="196" x2="329" y1="726" y2="726"/><text fill="#000000" font-family="sans-serif" font-size="14" lengthAdjust="spacing" textLength="38" x="201" y="744.5332">OPEN</text><text fill="#000000" font-family="sans-serif" font-size="14" lengthAdjust="spacing" textLength="98" x="201" y="762.1426">IN_PROGRESS</text><text fill="#000000" font-family="sans-serif" font-size="14" lengthAdjust="spacing" textLength="96" x="201" y="779.752">INTERRUPTED</text><text fill="#000000" font-family="sans-serif" font-size="14" lengthAdjust="spacing" textLength="57" x="201" y="797.3613">CLOSED</text><line style="stroke:#181818;stroke-width:0.5;" x1="196" x2="329" y1="804.4375" y2="804.4375"/></g><!--MD5=[a14dd6c93a8f61df4defdc45aa3eb452]
class TypeOfInterview--><g id="elem_TypeOfInterview"><rect codeLine="31" fill="#F1F1F1" height="83.2188" id="TypeOfInterview" rx="2.5" ry="2.5" style="stroke:#181818;stroke-width:0.5;" width="134" x="365.5" y="711.5"/><ellipse cx="380.5" cy="727.5" fill="#EB937F" rx="11" ry="11" style="stroke:#181818;stroke-width:1.0;"/><path d="M379.3594,728.2969 L379.3594,730.7969 L383.6875,730.7969 L383.6875,729.875 Q383.6875,729.2656 383.9219,729 Q384.1719,728.7344 384.5469,728.7344 Q384.9219,728.7344 385.1563,729 Q385.3906,729.2656 385.3906,729.875 L385.3906,732.5 L377.3906,732.5 Q376.7656,732.5 376.5,732.2656 Q376.25,732.0313 376.25,731.6406 Q376.25,731.2656 376.5156,731.0313 Q376.7813,730.7969 377.3906,730.7969 L377.6563,730.7969 L377.6563,724.1406 L377.3906,724.1406 Q376.7656,724.1406 376.5,723.9063 Q376.25,723.6719 376.25,723.2813 Q376.25,722.9063 376.5,722.6719 Q376.7656,722.4375 377.3906,722.4375 L385.0156,722.4375 L385.0156,725.0313 Q385.0156,725.6406 384.7813,725.9063 Q384.5625,726.1563 384.1719,726.1563 Q383.7969,726.1563 383.5625,725.9063 Q383.3281,725.6406 383.3281,725.0313 L383.3281,724.1406 L379.3594,724.1406 L379.3594,726.5938 L380.8438,726.5938 Q380.8438,725.9375 380.9688,725.75 Q381.2344,725.3438 381.7031,725.3438 Q382.0781,725.3438 382.3125,725.6094 Q382.5469,725.8594 382.5469,726.4688 L382.5469,728.4375 Q382.5469,728.9844 382.4219,729.1719 Q382.1563,729.5625 381.7031,729.5625 Q381.2344,729.5625 380.9688,729.1563 Q380.8438,728.9688 380.8438,728.2969 L379.3594,728.2969 Z " fill="#000000"/><text fill="#000000" font-family="sans-serif" font-size="14" lengthAdjust="spacing" textLength="102" x="394.5" y="733.2285">TypeOfInterview</text><line style="stroke:#181818;stroke-width:0.5;" x1="366.5" x2="498.5" y1="743.5" y2="743.5"/><text fill="#000000" font-family="sans-serif" font-size="14" lengthAdjust="spacing" textLength="57" x="371.5" y="762.0332">URGENT</text><text fill="#000000" font-family="sans-serif" font-size="14" lengthAdjust="spacing" textLength="94" x="371.5" y="779.6426">NOT_URGENT</text><line style="stroke:#181818;stroke-width:0.5;" x1="366.5" x2="498.5" y1="786.7188" y2="786.7188"/></g><!--MD5=[7e32009bc43217df006078044ebb6fb9]
class LineOfBusiness--><g id="elem_LineOfBusiness"><rect codeLine="39" fill="#F1F1F1" height="65.6094" id="LineOfBusiness" rx="2.5" ry="2.5" style="stroke:#181818;stroke-width:0.5;" width="131" x="861" y="497"/><ellipse cx="876" cy="513" fill="#ADD1B2" rx="11" ry="11" style="stroke:#181818;stroke-width:1.0;"/><path d="M878.7656,508.875 Q878.9219,508.6563 879.1094,508.5469 Q879.2969,508.4375 879.5156,508.4375 Q879.8906,508.4375 880.125,508.7031 Q880.3594,508.9531 880.3594,509.5625 L880.3594,511.0156 Q880.3594,511.625 880.125,511.8906 Q879.8906,512.1563 879.5156,512.1563 Q879.1719,512.1563 878.9688,511.9531 Q878.7656,511.7656 878.6563,511.25 Q878.6094,510.8906 878.4219,510.7031 Q878.0938,510.3281 877.4844,510.1094 Q876.875,509.8906 876.25,509.8906 Q875.4844,509.8906 874.8438,510.2188 Q874.2188,510.5469 873.7188,511.2969 Q873.2344,512.0469 873.2344,513.0781 L873.2344,514.1719 Q873.2344,515.4063 874.125,516.2344 Q875.0156,517.0469 876.6094,517.0469 Q877.5469,517.0469 878.2031,516.7969 Q878.5938,516.6406 879.0156,516.2031 Q879.2813,515.9375 879.4219,515.8594 Q879.5781,515.7813 879.7813,515.7813 Q880.1094,515.7813 880.3594,516.0469 Q880.625,516.2969 880.625,516.6406 Q880.625,516.9844 880.2813,517.3906 Q879.7813,517.9688 878.9844,518.2969 Q877.9063,518.75 876.6094,518.75 Q875.0938,518.75 873.8906,518.125 Q872.9063,517.625 872.2188,516.5625 Q871.5313,515.4844 871.5313,514.2031 L871.5313,513.0469 Q871.5313,511.7188 872.1406,510.5781 Q872.7656,509.4219 873.8594,508.8125 Q874.9531,508.1875 876.1875,508.1875 Q876.9219,508.1875 877.5625,508.3594 Q878.2188,508.5156 878.7656,508.875 Z " fill="#000000"/><text fill="#000000" font-family="sans-serif" font-size="14" lengthAdjust="spacing" textLength="99" x="890" y="518.7285">LineOfBusiness</text><line style="stroke:#181818;stroke-width:0.5;" x1="862" x2="991" y1="529" y2="529"/><rect fill="none" height="6" style="stroke:#C82930;stroke-width:1.0;" width="6" x="869" y="540.3047"/><text fill="#000000" font-family="sans-serif" font-size="14" lengthAdjust="spacing" textLength="71" x="881" y="547.5332">String label</text><line style="stroke:#181818;stroke-width:0.5;" x1="862" x2="991" y1="554.6094" y2="554.6094"/></g><!--MD5=[c9857a6abdf473e4c06248345b109f8d]
class JobPosition--><g id="elem_JobPosition"><rect codeLine="43" fill="#F1F1F1" height="118.4375" id="JobPosition" rx="2.5" ry="2.5" style="stroke:#181818;stroke-width:0.5;" width="223" x="709" y="694"/><ellipse cx="780.25" cy="710" fill="#ADD1B2" rx="11" ry="11" style="stroke:#181818;stroke-width:1.0;"/><path d="M783.0156,705.875 Q783.1719,705.6563 783.3594,705.5469 Q783.5469,705.4375 783.7656,705.4375 Q784.1406,705.4375 784.375,705.7031 Q784.6094,705.9531 784.6094,706.5625 L784.6094,708.0156 Q784.6094,708.625 784.375,708.8906 Q784.1406,709.1563 783.7656,709.1563 Q783.4219,709.1563 783.2188,708.9531 Q783.0156,708.7656 782.9063,708.25 Q782.8594,707.8906 782.6719,707.7031 Q782.3438,707.3281 781.7344,707.1094 Q781.125,706.8906 780.5,706.8906 Q779.7344,706.8906 779.0938,707.2188 Q778.4688,707.5469 777.9688,708.2969 Q777.4844,709.0469 777.4844,710.0781 L777.4844,711.1719 Q777.4844,712.4063 778.375,713.2344 Q779.2656,714.0469 780.8594,714.0469 Q781.7969,714.0469 782.4531,713.7969 Q782.8438,713.6406 783.2656,713.2031 Q783.5313,712.9375 783.6719,712.8594 Q783.8281,712.7813 784.0313,712.7813 Q784.3594,712.7813 784.6094,713.0469 Q784.875,713.2969 784.875,713.6406 Q784.875,713.9844 784.5313,714.3906 Q784.0313,714.9688 783.2344,715.2969 Q782.1563,715.75 780.8594,715.75 Q779.3438,715.75 778.1406,715.125 Q777.1563,714.625 776.4688,713.5625 Q775.7813,712.4844 775.7813,711.2031 L775.7813,710.0469 Q775.7813,708.7188 776.3906,707.5781 Q777.0156,706.4219 778.1094,705.8125 Q779.2031,705.1875 780.4375,705.1875 Q781.1719,705.1875 781.8125,705.3594 Q782.4688,705.5156 783.0156,705.875 Z " fill="#000000"/><text fill="#000000" font-family="sans-serif" font-size="14" lengthAdjust="spacing" textLength="72" x="800.75" y="715.7285">JobPosition</text><line style="stroke:#181818;stroke-width:0.5;" x1="710" x2="931" y1="726" y2="726"/><rect fill="none" height="6" style="stroke:#C82930;stroke-width:1.0;" width="6" x="717" y="737.3047"/><text fill="#000000" font-family="sans-serif" font-size="14" lengthAdjust="spacing" textLength="71" x="729" y="744.5332">String label</text><rect fill="none" height="6" style="stroke:#C82930;stroke-width:1.0;" width="6" x="717" y="754.9141"/><text fill="#000000" font-family="sans-serif" font-size="14" lengthAdjust="spacing" textLength="197" x="729" y="762.1426">LineOfBusiness lineOfBusiness</text><rect fill="none" height="6" style="stroke:#C82930;stroke-width:1.0;" width="6" x="717" y="772.5234"/><text fill="#000000" font-family="sans-serif" font-size="14" lengthAdjust="spacing" textLength="141" x="729" y="779.752">String hierarchicalLine</text><rect fill="none" height="6" style="stroke:#C82930;stroke-width:1.0;" width="6" x="717" y="790.1328"/><text fill="#000000" font-family="sans-serif" font-size="14" lengthAdjust="spacing" textLength="155" x="729" y="797.3613">Integer hierarchicalLevel</text><line style="stroke:#181818;stroke-width:0.5;" x1="710" x2="931" y1="804.4375" y2="804.4375"/></g><!--MD5=[5b387e0e958626cd8cbfab96fbdae709]
class LevelOfExpertise--><g id="elem_LevelOfExpertise"><rect codeLine="52" fill="#F1F1F1" height="136.0469" id="LevelOfExpertise" rx="2.5" ry="2.5" style="stroke:#181818;stroke-width:0.5;" width="139" x="535" y="685"/><ellipse cx="550" cy="701" fill="#EB937F" rx="11" ry="11" style="stroke:#181818;stroke-width:1.0;"/><path d="M548.8594,701.7969 L548.8594,704.2969 L553.1875,704.2969 L553.1875,703.375 Q553.1875,702.7656 553.4219,702.5 Q553.6719,702.2344 554.0469,702.2344 Q554.4219,702.2344 554.6563,702.5 Q554.8906,702.7656 554.8906,703.375 L554.8906,706 L546.8906,706 Q546.2656,706 546,705.7656 Q545.75,705.5313 545.75,705.1406 Q545.75,704.7656 546.0156,704.5313 Q546.2813,704.2969 546.8906,704.2969 L547.1563,704.2969 L547.1563,697.6406 L546.8906,697.6406 Q546.2656,697.6406 546,697.4063 Q545.75,697.1719 545.75,696.7813 Q545.75,696.4063 546,696.1719 Q546.2656,695.9375 546.8906,695.9375 L554.5156,695.9375 L554.5156,698.5313 Q554.5156,699.1406 554.2813,699.4063 Q554.0625,699.6563 553.6719,699.6563 Q553.2969,699.6563 553.0625,699.4063 Q552.8281,699.1406 552.8281,698.5313 L552.8281,697.6406 L548.8594,697.6406 L548.8594,700.0938 L550.3438,700.0938 Q550.3438,699.4375 550.4688,699.25 Q550.7344,698.8438 551.2031,698.8438 Q551.5781,698.8438 551.8125,699.1094 Q552.0469,699.3594 552.0469,699.9688 L552.0469,701.9375 Q552.0469,702.4844 551.9219,702.6719 Q551.6563,703.0625 551.2031,703.0625 Q550.7344,703.0625 550.4688,702.6563 Q550.3438,702.4688 550.3438,701.7969 L548.8594,701.7969 Z " fill="#000000"/><text fill="#000000" font-family="sans-serif" font-size="14" lengthAdjust="spacing" textLength="107" x="564" y="706.7285">LevelOfExpertise</text><line style="stroke:#181818;stroke-width:0.5;" x1="536" x2="673" y1="717" y2="717"/><text fill="#000000" font-family="sans-serif" font-size="14" lengthAdjust="spacing" textLength="59" x="541" y="735.5332">A : Junior</text><text fill="#000000" font-family="sans-serif" font-size="14" lengthAdjust="spacing" textLength="103" x="541" y="753.1426">B : Intermédiaire</text><text fill="#000000" font-family="sans-serif" font-size="14" lengthAdjust="spacing" textLength="63" x="541" y="770.752">C : Senior</text><text fill="#000000" font-family="sans-serif" font-size="14" lengthAdjust="spacing" textLength="75" x="541" y="788.3613">D : Senior +</text><text fill="#000000" font-family="sans-serif" font-size="14" lengthAdjust="spacing" textLength="69" x="541" y="805.9707">E : Emérite</text><line style="stroke:#181818;stroke-width:0.5;" x1="536" x2="673" y1="813.0469" y2="813.0469"/></g><!--MD5=[42e1add689e888dd7b55d3ee3f1dd6d7]
class Skill--><g id="elem_Skill"><rect codeLine="60" fill="#F1F1F1" height="83.2188" id="Skill" rx="2.5" ry="2.5" style="stroke:#181818;stroke-width:0.5;" width="239" x="587" y="488.5"/><ellipse cx="689.75" cy="504.5" fill="#ADD1B2" rx="11" ry="11" style="stroke:#181818;stroke-width:1.0;"/><path d="M692.5156,500.375 Q692.6719,500.1563 692.8594,500.0469 Q693.0469,499.9375 693.2656,499.9375 Q693.6406,499.9375 693.875,500.2031 Q694.1094,500.4531 694.1094,501.0625 L694.1094,502.5156 Q694.1094,503.125 693.875,503.3906 Q693.6406,503.6563 693.2656,503.6563 Q692.9219,503.6563 692.7188,503.4531 Q692.5156,503.2656 692.4063,502.75 Q692.3594,502.3906 692.1719,502.2031 Q691.8438,501.8281 691.2344,501.6094 Q690.625,501.3906 690,501.3906 Q689.2344,501.3906 688.5938,501.7188 Q687.9688,502.0469 687.4688,502.7969 Q686.9844,503.5469 686.9844,504.5781 L686.9844,505.6719 Q686.9844,506.9063 687.875,507.7344 Q688.7656,508.5469 690.3594,508.5469 Q691.2969,508.5469 691.9531,508.2969 Q692.3438,508.1406 692.7656,507.7031 Q693.0313,507.4375 693.1719,507.3594 Q693.3281,507.2813 693.5313,507.2813 Q693.8594,507.2813 694.1094,507.5469 Q694.375,507.7969 694.375,508.1406 Q694.375,508.4844 694.0313,508.8906 Q693.5313,509.4688 692.7344,509.7969 Q691.6563,510.25 690.3594,510.25 Q688.8438,510.25 687.6406,509.625 Q686.6563,509.125 685.9688,508.0625 Q685.2813,506.9844 685.2813,505.7031 L685.2813,504.5469 Q685.2813,503.2188 685.8906,502.0781 Q686.5156,500.9219 687.6094,500.3125 Q688.7031,499.6875 689.9375,499.6875 Q690.6719,499.6875 691.3125,499.8594 Q691.9688,500.0156 692.5156,500.375 Z " fill="#000000"/><text fill="#000000" font-family="sans-serif" font-size="14" lengthAdjust="spacing" textLength="25" x="710.25" y="510.2285">Skill</text><line style="stroke:#181818;stroke-width:0.5;" x1="588" x2="825" y1="520.5" y2="520.5"/><rect fill="none" height="6" style="stroke:#C82930;stroke-width:1.0;" width="6" x="595" y="531.8047"/><text fill="#000000" font-family="sans-serif" font-size="14" lengthAdjust="spacing" textLength="145" x="607" y="539.0332">JobPosition jobPosition</text><rect fill="none" height="6" style="stroke:#C82930;stroke-width:1.0;" width="6" x="595" y="549.4141"/><text fill="#000000" font-family="sans-serif" font-size="14" lengthAdjust="spacing" textLength="213" x="607" y="556.6426">LevelOfExpertise levelOfExpertise</text><line style="stroke:#181818;stroke-width:0.5;" x1="588" x2="825" y1="563.7188" y2="563.7188"/></g><!--MD5=[039e1324682f111e73b05428000d64d4]
class TechnicalAdvisor--><g id="elem_TechnicalAdvisor"><rect codeLine="70" fill="#F1F1F1" height="100.8281" id="TechnicalAdvisor" rx="2.5" ry="2.5" style="stroke:#181818;stroke-width:0.5;" width="140" x="636.5" y="256.5"/><ellipse cx="651.5" cy="272.5" fill="#ADD1B2" rx="11" ry="11" style="stroke:#181818;stroke-width:1.0;"/><path d="M654.2656,268.375 Q654.4219,268.1563 654.6094,268.0469 Q654.7969,267.9375 655.0156,267.9375 Q655.3906,267.9375 655.625,268.2031 Q655.8594,268.4531 655.8594,269.0625 L655.8594,270.5156 Q655.8594,271.125 655.625,271.3906 Q655.3906,271.6563 655.0156,271.6563 Q654.6719,271.6563 654.4688,271.4531 Q654.2656,271.2656 654.1563,270.75 Q654.1094,270.3906 653.9219,270.2031 Q653.5938,269.8281 652.9844,269.6094 Q652.375,269.3906 651.75,269.3906 Q650.9844,269.3906 650.3438,269.7188 Q649.7188,270.0469 649.2188,270.7969 Q648.7344,271.5469 648.7344,272.5781 L648.7344,273.6719 Q648.7344,274.9063 649.625,275.7344 Q650.5156,276.5469 652.1094,276.5469 Q653.0469,276.5469 653.7031,276.2969 Q654.0938,276.1406 654.5156,275.7031 Q654.7813,275.4375 654.9219,275.3594 Q655.0781,275.2813 655.2813,275.2813 Q655.6094,275.2813 655.8594,275.5469 Q656.125,275.7969 656.125,276.1406 Q656.125,276.4844 655.7813,276.8906 Q655.2813,277.4688 654.4844,277.7969 Q653.4063,278.25 652.1094,278.25 Q650.5938,278.25 649.3906,277.625 Q648.4063,277.125 647.7188,276.0625 Q647.0313,274.9844 647.0313,273.7031 L647.0313,272.5469 Q647.0313,271.2188 647.6406,270.0781 Q648.2656,268.9219 649.3594,268.3125 Q650.4531,267.6875 651.6875,267.6875 Q652.4219,267.6875 653.0625,267.8594 Q653.7188,268.0156 654.2656,268.375 Z " fill="#000000"/><text fill="#000000" font-family="sans-serif" font-size="14" lengthAdjust="spacing" textLength="108" x="665.5" y="278.2285">TechnicalAdvisor</text><line style="stroke:#181818;stroke-width:0.5;" x1="637.5" x2="775.5" y1="288.5" y2="288.5"/><rect fill="none" height="6" style="stroke:#C82930;stroke-width:1.0;" width="6" x="644.5" y="299.8047"/><text fill="#000000" font-family="sans-serif" font-size="14" lengthAdjust="spacing" textLength="76" x="656.5" y="307.0332">String name</text><rect fill="none" height="6" style="stroke:#C82930;stroke-width:1.0;" width="6" x="644.5" y="317.4141"/><text fill="#000000" font-family="sans-serif" font-size="14" lengthAdjust="spacing" textLength="74" x="656.5" y="324.6426">String email</text><rect fill="none" height="6" style="stroke:#C82930;stroke-width:1.0;" width="6" x="644.5" y="335.0234"/><text fill="#000000" font-family="sans-serif" font-size="14" lengthAdjust="spacing" textLength="97" x="656.5" y="342.252">List&lt;Skill&gt; skills</text><line style="stroke:#181818;stroke-width:0.5;" x1="637.5" x2="775.5" y1="349.3281" y2="349.3281"/></g><!--MD5=[c657285451e6ce6258796004fb20b244]
class InterviewRequest--><g id="elem_InterviewRequest"><rect codeLine="78" fill="#F1F1F1" height="153.6563" id="InterviewRequest" rx="2.5" ry="2.5" style="stroke:#181818;stroke-width:0.5;" width="244" x="522.5" y="7"/><ellipse cx="586.25" cy="23" fill="#ADD1B2" rx="11" ry="11" style="stroke:#181818;stroke-width:1.0;"/><path d="M589.0156,18.875 Q589.1719,18.6563 589.3594,18.5469 Q589.5469,18.4375 589.7656,18.4375 Q590.1406,18.4375 590.375,18.7031 Q590.6094,18.9531 590.6094,19.5625 L590.6094,21.0156 Q590.6094,21.625 590.375,21.8906 Q590.1406,22.1563 589.7656,22.1563 Q589.4219,22.1563 589.2188,21.9531 Q589.0156,21.7656 588.9063,21.25 Q588.8594,20.8906 588.6719,20.7031 Q588.3438,20.3281 587.7344,20.1094 Q587.125,19.8906 586.5,19.8906 Q585.7344,19.8906 585.0938,20.2188 Q584.4688,20.5469 583.9688,21.2969 Q583.4844,22.0469 583.4844,23.0781 L583.4844,24.1719 Q583.4844,25.4063 584.375,26.2344 Q585.2656,27.0469 586.8594,27.0469 Q587.7969,27.0469 588.4531,26.7969 Q588.8438,26.6406 589.2656,26.2031 Q589.5313,25.9375 589.6719,25.8594 Q589.8281,25.7813 590.0313,25.7813 Q590.3594,25.7813 590.6094,26.0469 Q590.875,26.2969 590.875,26.6406 Q590.875,26.9844 590.5313,27.3906 Q590.0313,27.9688 589.2344,28.2969 Q588.1563,28.75 586.8594,28.75 Q585.3438,28.75 584.1406,28.125 Q583.1563,27.625 582.4688,26.5625 Q581.7813,25.4844 581.7813,24.2031 L581.7813,23.0469 Q581.7813,21.7188 582.3906,20.5781 Q583.0156,19.4219 584.1094,18.8125 Q585.2031,18.1875 586.4375,18.1875 Q587.1719,18.1875 587.8125,18.3594 Q588.4688,18.5156 589.0156,18.875 Z " fill="#000000"/><text fill="#000000" font-family="sans-serif" font-size="14" lengthAdjust="spacing" textLength="108" x="606.75" y="28.7285">InterviewRequest</text><line style="stroke:#181818;stroke-width:0.5;" x1="523.5" x2="765.5" y1="39" y2="39"/><rect fill="none" height="6" style="stroke:#C82930;stroke-width:1.0;" width="6" x="530.5" y="50.3047"/><text fill="#000000" font-family="sans-serif" font-size="14" lengthAdjust="spacing" textLength="114" x="542.5" y="57.5332">Interview Interview</text><rect fill="none" height="6" style="stroke:#C82930;stroke-width:1.0;" width="6" x="530.5" y="67.9141"/><text fill="#000000" font-family="sans-serif" font-size="14" lengthAdjust="spacing" textLength="215" x="542.5" y="75.1426">TechnicalAdvisor technicalAdvisor</text><rect fill="none" height="6" style="stroke:#C82930;stroke-width:1.0;" width="6" x="530.5" y="85.5234"/><text fill="#000000" font-family="sans-serif" font-size="14" lengthAdjust="spacing" textLength="218" x="542.5" y="92.752">StatusOfRequest statusOfRequest</text><rect fill="none" height="6" style="stroke:#C82930;stroke-width:1.0;" width="6" x="530.5" y="103.1328"/><text fill="#000000" font-family="sans-serif" font-size="14" lengthAdjust="spacing" textLength="115" x="542.5" y="110.3613">Recruiter recruiter</text><rect fill="none" height="6" style="stroke:#C82930;stroke-width:1.0;" width="6" x="530.5" y="120.7422"/><text fill="#000000" font-family="sans-serif" font-size="14" lengthAdjust="spacing" textLength="170" x="542.5" y="127.9707">LocalDateTime acceptedAt</text><rect fill="none" height="6" style="stroke:#C82930;stroke-width:1.0;" width="6" x="530.5" y="138.3516"/><text fill="#000000" font-family="sans-serif" font-size="14" lengthAdjust="spacing" textLength="71" x="542.5" y="145.5801">String motif</text><line style="stroke:#181818;stroke-width:0.5;" x1="523.5" x2="765.5" y1="152.6563" y2="152.6563"/></g><!--MD5=[c6fe5aa1777c461f862104b804a429a2]
class TechnicalAdvisorSelectionProcess--><g id="elem_TechnicalAdvisorSelectionProcess"><rect codeLine="91" fill="#F1F1F1" height="100.8281" id="TechnicalAdvisorSelectionProcess" rx="2.5" ry="2.5" style="stroke:#181818;stroke-width:0.5;" width="249" x="7" y="256.5"/><ellipse cx="22" cy="272.5" fill="#ADD1B2" rx="11" ry="11" style="stroke:#181818;stroke-width:1.0;"/><path d="M24.7656,268.375 Q24.9219,268.1563 25.1094,268.0469 Q25.2969,267.9375 25.5156,267.9375 Q25.8906,267.9375 26.125,268.2031 Q26.3594,268.4531 26.3594,269.0625 L26.3594,270.5156 Q26.3594,271.125 26.125,271.3906 Q25.8906,271.6563 25.5156,271.6563 Q25.1719,271.6563 24.9688,271.4531 Q24.7656,271.2656 24.6563,270.75 Q24.6094,270.3906 24.4219,270.2031 Q24.0938,269.8281 23.4844,269.6094 Q22.875,269.3906 22.25,269.3906 Q21.4844,269.3906 20.8438,269.7188 Q20.2188,270.0469 19.7188,270.7969 Q19.2344,271.5469 19.2344,272.5781 L19.2344,273.6719 Q19.2344,274.9063 20.125,275.7344 Q21.0156,276.5469 22.6094,276.5469 Q23.5469,276.5469 24.2031,276.2969 Q24.5938,276.1406 25.0156,275.7031 Q25.2813,275.4375 25.4219,275.3594 Q25.5781,275.2813 25.7813,275.2813 Q26.1094,275.2813 26.3594,275.5469 Q26.625,275.7969 26.625,276.1406 Q26.625,276.4844 26.2813,276.8906 Q25.7813,277.4688 24.9844,277.7969 Q23.9063,278.25 22.6094,278.25 Q21.0938,278.25 19.8906,277.625 Q18.9063,277.125 18.2188,276.0625 Q17.5313,274.9844 17.5313,273.7031 L17.5313,272.5469 Q17.5313,271.2188 18.1406,270.0781 Q18.7656,268.9219 19.8594,268.3125 Q20.9531,267.6875 22.1875,267.6875 Q22.9219,267.6875 23.5625,267.8594 Q24.2188,268.0156 24.7656,268.375 Z " fill="#000000"/><text fill="#000000" font-family="sans-serif" font-size="14" lengthAdjust="spacing" textLength="217" x="36" y="278.2285">TechnicalAdvisorSelectionProcess</text><line style="stroke:#181818;stroke-width:0.5;" x1="8" x2="255" y1="288.5" y2="288.5"/><rect fill="none" height="6" style="stroke:#C82930;stroke-width:1.0;" width="6" x="15" y="299.8047"/><text fill="#000000" font-family="sans-serif" font-size="14" lengthAdjust="spacing" textLength="202" x="27" y="307.0332">LocalDateTime lastDateProcess</text><rect fill="none" height="6" style="stroke:#C82930;stroke-width:1.0;" width="6" x="15" y="317.4141"/><text fill="#000000" font-family="sans-serif" font-size="14" lengthAdjust="spacing" textLength="114" x="27" y="324.6426">Interview interview</text><rect fill="none" height="6" style="stroke:#C82930;stroke-width:1.0;" width="6" x="15" y="335.0234"/><text fill="#000000" font-family="sans-serif" font-size="14" lengthAdjust="spacing" textLength="177" x="27" y="342.252">Integer delayBeforeRetrying</text><line style="stroke:#181818;stroke-width:0.5;" x1="8" x2="255" y1="349.3281" y2="349.3281"/></g><!--MD5=[7289a2d1927ad88f01a60bb5b3b51762]
class StatusOfRequest--><g id="elem_StatusOfRequest"><rect codeLine="99" fill="#F1F1F1" height="136.0469" id="StatusOfRequest" rx="2.5" ry="2.5" style="stroke:#181818;stroke-width:0.5;" width="263" x="812" y="239"/><ellipse cx="885.25" cy="255" fill="#EB937F" rx="11" ry="11" style="stroke:#181818;stroke-width:1.0;"/><path d="M884.1094,255.7969 L884.1094,258.2969 L888.4375,258.2969 L888.4375,257.375 Q888.4375,256.7656 888.6719,256.5 Q888.9219,256.2344 889.2969,256.2344 Q889.6719,256.2344 889.9063,256.5 Q890.1406,256.7656 890.1406,257.375 L890.1406,260 L882.1406,260 Q881.5156,260 881.25,259.7656 Q881,259.5313 881,259.1406 Q881,258.7656 881.2656,258.5313 Q881.5313,258.2969 882.1406,258.2969 L882.4063,258.2969 L882.4063,251.6406 L882.1406,251.6406 Q881.5156,251.6406 881.25,251.4063 Q881,251.1719 881,250.7813 Q881,250.4063 881.25,250.1719 Q881.5156,249.9375 882.1406,249.9375 L889.7656,249.9375 L889.7656,252.5313 Q889.7656,253.1406 889.5313,253.4063 Q889.3125,253.6563 888.9219,253.6563 Q888.5469,253.6563 888.3125,253.4063 Q888.0781,253.1406 888.0781,252.5313 L888.0781,251.6406 L884.1094,251.6406 L884.1094,254.0938 L885.5938,254.0938 Q885.5938,253.4375 885.7188,253.25 Q885.9844,252.8438 886.4531,252.8438 Q886.8281,252.8438 887.0625,253.1094 Q887.2969,253.3594 887.2969,253.9688 L887.2969,255.9375 Q887.2969,256.4844 887.1719,256.6719 Q886.9063,257.0625 886.4531,257.0625 Q885.9844,257.0625 885.7188,256.6563 Q885.5938,256.4688 885.5938,255.7969 L884.1094,255.7969 Z " fill="#000000"/><text fill="#000000" font-family="sans-serif" font-size="14" lengthAdjust="spacing" textLength="108" x="905.75" y="260.7285">StatusOfRequest</text><line style="stroke:#181818;stroke-width:0.5;" x1="813" x2="1074" y1="271" y2="271"/><text fill="#000000" font-family="sans-serif" font-size="14" lengthAdjust="spacing" textLength="57" x="818" y="289.5332">OPENED</text><text fill="#000000" font-family="sans-serif" font-size="14" lengthAdjust="spacing" textLength="69" x="818" y="307.1426">ASSIGNED</text><text fill="#000000" font-family="sans-serif" font-size="14" lengthAdjust="spacing" textLength="75" x="818" y="324.752">ACCEPTED</text><text fill="#000000" font-family="sans-serif" font-size="14" lengthAdjust="spacing" textLength="251" x="818" y="342.3613">REJECTED_BY_TECHNICAL_ADVISOR</text><text fill="#000000" font-family="sans-serif" font-size="14" lengthAdjust="spacing" textLength="181" x="818" y="359.9707">DECLINED_BY_RECRUITER</text><line style="stroke:#181818;stroke-width:0.5;" x1="813" x2="1074" y1="367.0469" y2="367.0469"/></g><!--MD5=[411ac9b35a428c4eb122e03c6fbc7bb5]
link Recruiter to Interview--><g id="link_Recruiter_Interview"><path codeLine="21" d="M470.88,348.53 C464.68,377.69 456.13,417.89 448.67,452.95 " fill="none" id="Recruiter-Interview" style="stroke:#181818;stroke-width:1.0;"/><polygon fill="#000000" points="463.4598,419.0664,468.2162,410.8306,462.4669,409.6078,463.4598,419.0664" style="stroke:#000000;stroke-width:1.0;"/><text fill="#000000" font-family="sans-serif" font-size="13" lengthAdjust="spacing" textLength="36" x="473.5" y="419.4951">create</text><text fill="#000000" font-family="sans-serif" font-size="13" lengthAdjust="spacing" textLength="7" x="461.8726" y="370.2395">1</text><text fill="#000000" font-family="sans-serif" font-size="13" lengthAdjust="spacing" textLength="5" x="445.0156" y="442.1072">*</text></g><!--MD5=[f6bd41d09e472e5b90001dc1eebd28ed]
link Applicant to Interview--><g id="link_Applicant_Interview"><path codeLine="22" d="M359.01,348.53 C370.88,377.69 387.25,417.89 401.53,452.95 " fill="none" id="Applicant-Interview" style="stroke:#181818;stroke-width:1.0;"/><polygon fill="#000000" points="390.6143,409.545,391.3036,419.0305,396.7474,416.8138,390.6143,409.545" style="stroke:#000000;stroke-width:1.0;"/><text fill="#000000" font-family="sans-serif" font-size="13" lengthAdjust="spacing" textLength="26" x="401.5" y="419.4951">have</text><text fill="#000000" font-family="sans-serif" font-size="13" lengthAdjust="spacing" textLength="7" x="354.1648" y="370.2395">1</text><text fill="#000000" font-family="sans-serif" font-size="13" lengthAdjust="spacing" textLength="7" x="391.1369" y="442.1072">1</text></g><!--MD5=[a4245a6e44b42133181c1df6789e9f34]
link Interview to StateOfInterview--><g id="link_Interview_StateOfInterview"><path codeLine="36" d="M374,607.06 C352.1,635.52 327.59,667.38 307.14,693.96 " fill="none" id="Interview-StateOfInterview" style="stroke:#181818;stroke-width:1.0;"/><polygon fill="#000000" points="349.451,650.1386,357.2959,644.7619,352.6374,641.1777,349.451,650.1386" style="stroke:#000000;stroke-width:1.0;"/><text fill="#000000" font-family="sans-serif" font-size="13" lengthAdjust="spacing" textLength="10" x="361.5" y="651.4951">is</text></g><!--MD5=[1d9775c27ee1238ee302eb89eb65120c]
link Interview to TypeOfInterview--><g id="link_Interview_TypeOfInterview"><path codeLine="37" d="M432.5,607.06 C432.5,642.02 432.5,682.09 432.5,711.22 " fill="none" id="Interview-TypeOfInterview" style="stroke:#181818;stroke-width:1.0;"/><polygon fill="#000000" points="437.5,651.1758,440.4389,642.1307,434.5611,642.1307,437.5,651.1758" style="stroke:#000000;stroke-width:1.0;"/><text fill="#000000" font-family="sans-serif" font-size="13" lengthAdjust="spacing" textLength="10" x="446.5" y="651.4951">is</text></g><!--MD5=[0b572abb4a84df7a32cbc74d61f265e4]
link LineOfBusiness to JobPosition--><g id="link_LineOfBusiness_JobPosition"><path codeLine="50" d="M911.09,563.14 C894.72,597.25 868.51,651.91 848.48,693.66 " fill="none" id="LineOfBusiness-JobPosition" style="stroke:#181818;stroke-width:1.0;"/><text fill="#000000" font-family="sans-serif" font-size="13" lengthAdjust="spacing" textLength="7" x="900.7217" y="584.0293">1</text><text fill="#000000" font-family="sans-serif" font-size="13" lengthAdjust="spacing" textLength="5" x="846.5854" y="682.9428">*</text></g><!--MD5=[08047943c065864ab9a563da49729134]
link Skill to JobPosition--><g id="link_Skill_JobPosition"><path codeLine="65" d="M727.41,571.53 C745.09,605.8 770.63,655.32 790.49,693.82 " fill="none" id="Skill-JobPosition" style="stroke:#181818;stroke-width:1.0;"/><text fill="#000000" font-family="sans-serif" font-size="13" lengthAdjust="spacing" textLength="5" x="725.4592" y="593.2395">*</text><text fill="#000000" font-family="sans-serif" font-size="13" lengthAdjust="spacing" textLength="7" x="779.406" y="683.1223">1</text></g><!--MD5=[77fc2325c3b6cb5565594f7a79fc26b0]
link Skill to LevelOfExpertise--><g id="link_Skill_LevelOfExpertise"><path codeLine="66" d="M687.79,571.53 C673.18,603.19 652.57,647.85 635.51,684.82 " fill="none" id="Skill-LevelOfExpertise" style="stroke:#181818;stroke-width:1.0;"/><polygon fill="#000000" points="658.405,650.7157,664.8634,643.7343,659.5264,641.2715,658.405,650.7157" style="stroke:#000000;stroke-width:1.0;"/><text fill="#000000" font-family="sans-serif" font-size="13" lengthAdjust="spacing" textLength="26" x="669.5" y="651.4951">have</text></g><!--MD5=[b5e097a96365bc34d75e85dd3801b9d4]
link Interview to JobPosition--><g id="link_Interview_JobPosition"><path codeLine="67" d="M552.14,603.53 C580.94,620.65 611.7,638.67 640.5,655 C663.04,667.78 687.36,681.17 710.62,693.76 " fill="none" id="Interview-JobPosition" style="stroke:#181818;stroke-width:1.0;"/><text fill="#000000" font-family="sans-serif" font-size="13" lengthAdjust="spacing" textLength="5" x="559.9646" y="605.2454">*</text><text fill="#000000" font-family="sans-serif" font-size="13" lengthAdjust="spacing" textLength="7" x="693.8764" y="685.473">1</text></g><!--MD5=[a9555c7d1a9b3c45f662e8ae28813214]
link Interview to LevelOfExpertise--><g id="link_Interview_LevelOfExpertise"><path codeLine="68" d="M490.57,607.23 C502.72,623.06 515.49,639.6 527.5,655 C535.04,664.66 543.03,674.83 550.91,684.8 " fill="none" id="Interview-LevelOfExpertise" style="stroke:#181818;stroke-width:1.0;"/><polygon fill="#000000" points="535.5699,650.1224,532.3361,641.1785,527.6966,644.7874,535.5699,650.1224" style="stroke:#000000;stroke-width:1.0;"/><text fill="#000000" font-family="sans-serif" font-size="13" lengthAdjust="spacing" textLength="26" x="541.5" y="651.4951">have</text></g><!--MD5=[1da728fec725fb0ddd5f3bca6e0d30e1]
link TechnicalAdvisor to Skill--><g id="link_TechnicalAdvisor_Skill"><path codeLine="76" d="M706.5,357.6 C706.5,397.05 706.5,451.56 706.5,488.44 " fill="none" id="TechnicalAdvisor-Skill" style="stroke:#181818;stroke-width:1.0;"/><text fill="#000000" font-family="sans-serif" font-size="13" lengthAdjust="spacing" textLength="5" x="701.1641" y="379.0047">*</text><text fill="#000000" font-family="sans-serif" font-size="13" lengthAdjust="spacing" textLength="5" x="701.0859" y="477.7377">*</text></g><!--MD5=[85b06acd31b1887e45f830ca06cc4ef0]
link InterviewRequest to Recruiter--><g id="link_InterviewRequest_Recruiter"><path codeLine="87" d="M580.69,161.05 C572.74,171.02 564.84,181.18 557.5,191 C539.45,215.16 520.43,243.14 505.69,265.46 " fill="none" id="InterviewRequest-Recruiter" style="stroke:#181818;stroke-width:1.0;"/><text fill="#000000" font-family="sans-serif" font-size="13" lengthAdjust="spacing" textLength="5" x="569.7843" y="182.1508">*</text><text fill="#000000" font-family="sans-serif" font-size="13" lengthAdjust="spacing" textLength="7" x="502.448" y="254.7611">1</text></g><!--MD5=[27105e6ca44d7c30f4d7bffccc670f1e]
link InterviewRequest to Interview--><g id="link_InterviewRequest_Interview"><path codeLine="88" d="M627.99,161.11 C609.72,233.31 575.12,342.43 518.5,423 C511.55,432.89 503.96,443.04 496.25,452.97 " fill="none" id="InterviewRequest-Interview" style="stroke:#181818;stroke-width:1.0;"/><text fill="#000000" font-family="sans-serif" font-size="13" lengthAdjust="spacing" textLength="5" x="621.2969" y="182.2162">*</text><text fill="#000000" font-family="sans-serif" font-size="13" lengthAdjust="spacing" textLength="7" x="495.1809" y="442.1292">1</text></g><!--MD5=[72632b515c88e6ca4f50b81b9fe7fbed]
link InterviewRequest to TechnicalAdvisor--><g id="link_InterviewRequest_TechnicalAdvisor"><path codeLine="89" d="M665.84,161.06 C674.66,192.52 684.65,228.12 692.52,256.17 " fill="none" id="InterviewRequest-TechnicalAdvisor" style="stroke:#181818;stroke-width:1.0;"/><text fill="#000000" font-family="sans-serif" font-size="13" lengthAdjust="spacing" textLength="5" x="662.5179" y="182.1617">*</text><text fill="#000000" font-family="sans-serif" font-size="13" lengthAdjust="spacing" textLength="7" x="683.1711" y="245.795">1</text></g><!--MD5=[e9b177ce1776bf849f4ad006da86a100]
link TechnicalAdvisorSelectionProcess to Interview--><g id="link_TechnicalAdvisorSelectionProcess_Interview"><path codeLine="97" d="M199.05,357.6 C237.27,385.66 285.87,421.34 328.82,452.87 " fill="none" id="TechnicalAdvisorSelectionProcess-Interview" style="stroke:#181818;stroke-width:1.0;"/><text fill="#000000" font-family="sans-serif" font-size="13" lengthAdjust="spacing" textLength="7" x="200.6567" y="379.0047">1</text><text fill="#000000" font-family="sans-serif" font-size="13" lengthAdjust="spacing" textLength="7" x="311.2695" y="442.0194">1</text></g><!--MD5=[4d5cb15cdc985f1c447f1b167e6298a4]
link InterviewRequest to StatusOfRequest--><g id="link_InterviewRequest_StatusOfRequest"><path codeLine="107" d="M747.4,161.06 C781.52,186.28 819.24,214.16 852.41,238.68 " fill="none" id="InterviewRequest-StatusOfRequest" style="stroke:#181818;stroke-width:1.0;"/><polygon fill="#000000" points="820.5208,203.1478,814.994,195.408,811.5002,200.1347,820.5208,203.1478" style="stroke:#000000;stroke-width:1.0;"/><text fill="#000000" font-family="sans-serif" font-size="13" lengthAdjust="spacing" textLength="26" x="825.5" y="205.4951">have</text></g><!--MD5=[1e71cd1ed5932b30ba86a5e3c3c0bd66]
@startuml

class Applicant {
 - String name
 - String email
}

class Recruiter {
 - String name
 - String email
}

class Interview {
 - Applicant applicant
 - Recruiter recruiter
 - JobPosition jobPosition
 - StateOfInterview stateOfInterview
 - LevelOfExpertise levelOfExpertise
 - TypeOfInterview typeOfInterview
}

Recruiter "1" - - "*" Interview : create >
Applicant "1" - - "1" Interview : have <

enum StateOfInterview {
 OPEN
 IN_PROGRESS
 INTERRUPTED
 CLOSED
}

enum TypeOfInterview {
 URGENT
 NOT_URGENT
}

Interview - - StateOfInterview : is >
Interview - - TypeOfInterview : is >

class LineOfBusiness {
 - String label
}

class JobPosition {
 - String label
 - LineOfBusiness lineOfBusiness
 - String hierarchicalLine
 - Integer hierarchicalLevel
}

LineOfBusiness "1" - - "*" JobPosition

enum LevelOfExpertise {
 A : Junior
 B : Intermédiaire
 C : Senior
 D : Senior +
 E : Emérite
}

class Skill {
 - JobPosition jobPosition
 - LevelOfExpertise levelOfExpertise
}

Skill "*" - - "1" JobPosition
Skill - -  LevelOfExpertise : have >
Interview "*" - - "1" JobPosition
Interview - - LevelOfExpertise : have >

class TechnicalAdvisor {
 - String name
 - String email
 - List<Skill> skills
}

TechnicalAdvisor "*" - - "*" Skill

class InterviewRequest {
    - Interview Interview
    - TechnicalAdvisor technicalAdvisor
    - StatusOfRequest statusOfRequest
    - Recruiter recruiter
    - LocalDateTime acceptedAt
    - String motif
}

InterviewRequest "*" - - "1" Recruiter
InterviewRequest "*" - - "1" Interview
InterviewRequest "*" - - "1" TechnicalAdvisor

class TechnicalAdvisorSelectionProcess {
    - LocalDateTime lastDateProcess
    - Interview interview
    - Integer delayBeforeRetrying
}

TechnicalAdvisorSelectionProcess "1" - - "1" Interview

enum StatusOfRequest {
 OPENED
 ASSIGNED
 ACCEPTED
 REJECTED_BY_TECHNICAL_ADVISOR
 DECLINED_BY_RECRUITER
}

InterviewRequest - - StatusOfRequest : have >

@enduml

PlantUML version 1.2022.7(Mon Aug 22 13:01:30 EDT 2022)
(GPL source distribution)
Java Runtime: OpenJDK Runtime Environment
JVM: OpenJDK 64-Bit Server VM
Default Encoding: Cp1252
Language: en
Country: US
--></g></svg>