<?xml version="1.0" encoding="UTF-8" standalone="no"?><svg xmlns="http://www.w3.org/2000/svg" xmlns:xlink="http://www.w3.org/1999/xlink" contentStyleType="text/css" height="277px" preserveAspectRatio="none" style="width:340px;height:277px;background:#FFFFFF;" version="1.1" viewBox="0 0 340 277" width="340px" zoomAndPan="magnify"><defs/><g><rect fill="none" height="79.0547" style="stroke:#000000;stroke-width:1.5;" width="324.5" x="10" y="99.6094"/><line style="stroke:#181818;stroke-width:0.5;stroke-dasharray:5.0,5.0;" x1="68" x2="68" y1="82.6094" y2="195.6641"/><line style="stroke:#181818;stroke-width:0.5;stroke-dasharray:5.0,5.0;" x1="263.5" x2="263.5" y1="82.6094" y2="195.6641"/><text fill="#000000" font-family="sans-serif" font-size="14" lengthAdjust="spacing" textLength="91" x="20" y="79.5332">RecruiterActor</text><ellipse cx="68.5" cy="13.5" fill="#E2E2F0" rx="8" ry="8" style="stroke:#181818;stroke-width:0.5;"/><path d="M68.5,21.5 L68.5,48.5 M55.5,29.5 L81.5,29.5 M68.5,48.5 L55.5,63.5 M68.5,48.5 L81.5,63.5 " fill="none" style="stroke:#181818;stroke-width:0.5;"/><text fill="#000000" font-family="sans-serif" font-size="14" lengthAdjust="spacing" textLength="91" x="20" y="209.1973">RecruiterActor</text><ellipse cx="68.5" cy="220.7734" fill="#E2E2F0" rx="8" ry="8" style="stroke:#181818;stroke-width:0.5;"/><path d="M68.5,228.7734 L68.5,255.7734 M55.5,236.7734 L81.5,236.7734 M68.5,255.7734 L55.5,270.7734 M68.5,255.7734 L81.5,270.7734 " fill="none" style="stroke:#181818;stroke-width:0.5;"/><rect fill="#E2E2F0" height="31.6094" rx="2.5" ry="2.5" style="stroke:#181818;stroke-width:0.5;" width="122" x="202.5" y="50"/><text fill="#000000" font-family="sans-serif" font-size="14" lengthAdjust="spacing" textLength="108" x="209.5" y="71.5332">InterviewRequest</text><rect fill="#E2E2F0" height="31.6094" rx="2.5" ry="2.5" style="stroke:#181818;stroke-width:0.5;" width="122" x="202.5" y="194.6641"/><text fill="#000000" font-family="sans-serif" font-size="14" lengthAdjust="spacing" textLength="108" x="209.5" y="216.1973">InterviewRequest</text><path d="M10,99.6094 L177,99.6094 L177,107.9609 L167,117.9609 L10,117.9609 L10,99.6094 " fill="#EEEEEE" style="stroke:#000000;stroke-width:1.5;"/><rect fill="none" height="79.0547" style="stroke:#000000;stroke-width:1.5;" width="324.5" x="10" y="99.6094"/><text fill="#000000" font-family="sans-serif" font-size="13" font-weight="bold" lengthAdjust="spacing" textLength="122" x="25" y="114.1045">Choise the Request</text><polygon fill="#181818" points="251.5,136.3125,261.5,140.3125,251.5,144.3125,255.5,140.3125" style="stroke:#181818;stroke-width:1.0;"/><line style="stroke:#181818;stroke-width:1.0;" x1="68.5" x2="257.5" y1="140.3125" y2="140.3125"/><text fill="#000000" font-family="sans-serif" font-size="13" lengthAdjust="spacing" textLength="171" x="75.5" y="135.4561">Choise the accepted Request</text><polygon fill="#181818" points="79.5,166.6641,69.5,170.6641,79.5,174.6641,75.5,170.6641" style="stroke:#181818;stroke-width:1.0;"/><line style="stroke:#181818;stroke-width:1.0;" x1="73.5" x2="262.5" y1="170.6641" y2="170.6641"/><text fill="#000000" font-family="sans-serif" font-size="13" lengthAdjust="spacing" textLength="146" x="85.5" y="165.8076">Response of the Request</text><!--MD5=[c1651951b6a49290387a32f20781b160]
@startuml
actor RecruiterActor
participant InterviewRequest

group Choise the Request
    RecruiterActor -> InterviewRequest: Choise the accepted Request
    InterviewRequest -> RecruiterActor: Response of the Request
end ref

@enduml

PlantUML version 1.2022.7(Mon Aug 22 13:01:30 EDT 2022)
(GPL source distribution)
Java Runtime: OpenJDK Runtime Environment
JVM: OpenJDK 64-Bit Server VM
Default Encoding: Cp1252
Language: en
Country: US
--></g></svg>