<?xml version="1.0" encoding="UTF-8" standalone="no"?><svg xmlns="http://www.w3.org/2000/svg" xmlns:xlink="http://www.w3.org/1999/xlink" contentStyleType="text/css" height="403px" preserveAspectRatio="none" style="width:661px;height:403px;background:#FFFFFF;" version="1.1" viewBox="0 0 661 403" width="661px" zoomAndPan="magnify"><defs/><g><rect fill="none" height="205.2031" style="stroke:#000000;stroke-width:1.5;" width="570" x="10" y="99.6094"/><rect fill="none" height="129.5" style="stroke:#000000;stroke-width:1.5;" width="490" x="20" y="168.3125"/><rect fill="none" height="97.1484" style="stroke:#000000;stroke-width:1.5;" width="470" x="30" y="193.6641"/><line style="stroke:#181818;stroke-width:0.5;stroke-dasharray:5.0,5.0;" x1="72" x2="72" y1="82.6094" y2="321.8125"/><line style="stroke:#181818;stroke-width:0.5;stroke-dasharray:5.0,5.0;" x1="171" x2="171" y1="82.6094" y2="321.8125"/><line style="stroke:#181818;stroke-width:0.5;stroke-dasharray:5.0,5.0;" x1="460" x2="460" y1="82.6094" y2="321.8125"/><text fill="#000000" font-family="sans-serif" font-size="14" lengthAdjust="spacing" textLength="58" x="40" y="79.5332">Recruiter</text><ellipse cx="72" cy="13.5" fill="#E2E2F0" rx="8" ry="8" style="stroke:#181818;stroke-width:0.5;"/><path d="M72,21.5 L72,48.5 M59,29.5 L85,29.5 M72,48.5 L59,63.5 M72,48.5 L85,63.5 " fill="none" style="stroke:#181818;stroke-width:0.5;"/><text fill="#000000" font-family="sans-serif" font-size="14" lengthAdjust="spacing" textLength="58" x="40" y="335.3457">Recruiter</text><ellipse cx="72" cy="346.9219" fill="#E2E2F0" rx="8" ry="8" style="stroke:#181818;stroke-width:0.5;"/><path d="M72,354.9219 L72,381.9219 M59,362.9219 L85,362.9219 M72,381.9219 L59,396.9219 M72,381.9219 L85,396.9219 " fill="none" style="stroke:#181818;stroke-width:0.5;"/><text fill="#000000" font-family="sans-serif" font-size="14" lengthAdjust="spacing" textLength="108" x="114" y="79.5332">TechnicalAdvisor</text><ellipse cx="171" cy="13.5" fill="#E2E2F0" rx="8" ry="8" style="stroke:#181818;stroke-width:0.5;"/><path d="M171,21.5 L171,48.5 M158,29.5 L184,29.5 M171,48.5 L158,63.5 M171,48.5 L184,63.5 " fill="none" style="stroke:#181818;stroke-width:0.5;"/><text fill="#000000" font-family="sans-serif" font-size="14" lengthAdjust="spacing" textLength="108" x="114" y="335.3457">TechnicalAdvisor</text><ellipse cx="171" cy="346.9219" fill="#E2E2F0" rx="8" ry="8" style="stroke:#181818;stroke-width:0.5;"/><path d="M171,354.9219 L171,381.9219 M158,362.9219 L184,362.9219 M171,381.9219 L158,396.9219 M171,381.9219 L184,396.9219 " fill="none" style="stroke:#181818;stroke-width:0.5;"/><rect fill="#E2E2F0" height="31.6094" rx="2.5" ry="2.5" style="stroke:#181818;stroke-width:0.5;" width="60" x="430" y="50"/><text fill="#000000" font-family="sans-serif" font-size="14" lengthAdjust="spacing" textLength="46" x="437" y="71.5332">System</text><rect fill="#E2E2F0" height="31.6094" rx="2.5" ry="2.5" style="stroke:#181818;stroke-width:0.5;" width="60" x="430" y="320.8125"/><text fill="#000000" font-family="sans-serif" font-size="14" lengthAdjust="spacing" textLength="46" x="437" y="342.3457">System</text><path d="M10,99.6094 L156,99.6094 L156,107.9609 L146,117.9609 L10,117.9609 L10,99.6094 " fill="#EEEEEE" style="stroke:#000000;stroke-width:1.5;"/><rect fill="none" height="205.2031" style="stroke:#000000;stroke-width:1.5;" width="570" x="10" y="99.6094"/><text fill="#000000" font-family="sans-serif" font-size="13" font-weight="bold" lengthAdjust="spacing" textLength="101" x="25" y="114.1045">Asynchrone Job</text><line style="stroke:#181818;stroke-width:1.0;" x1="460" x2="502" y1="140.3125" y2="140.3125"/><line style="stroke:#181818;stroke-width:1.0;" x1="502" x2="502" y1="140.3125" y2="153.3125"/><line style="stroke:#181818;stroke-width:1.0;" x1="461" x2="502" y1="153.3125" y2="153.3125"/><line style="stroke:#181818;stroke-width:1.0;" x1="461" x2="471" y1="153.3125" y2="149.3125"/><line style="stroke:#181818;stroke-width:1.0;" x1="461" x2="471" y1="153.3125" y2="157.3125"/><text fill="#000000" font-family="sans-serif" font-size="13" lengthAdjust="spacing" textLength="101" x="467" y="135.4561">Wait for Y heures</text><path d="M20,168.3125 L81,168.3125 L81,176.6641 L71,186.6641 L20,186.6641 L20,168.3125 " fill="#EEEEEE" style="stroke:#000000;stroke-width:1.5;"/><rect fill="none" height="129.5" style="stroke:#000000;stroke-width:1.5;" width="490" x="20" y="168.3125"/><text fill="#000000" font-family="sans-serif" font-size="13" font-weight="bold" lengthAdjust="spacing" textLength="16" x="35" y="182.8076">alt</text><text fill="#000000" font-family="sans-serif" font-size="11" font-weight="bold" lengthAdjust="spacing" textLength="274" x="96" y="181.7314">[If no TechnicalAdvisor has accepted the request]</text><path d="M30,193.6641 L91,193.6641 L91,202.0156 L81,212.0156 L30,212.0156 L30,193.6641 " fill="#EEEEEE" style="stroke:#000000;stroke-width:1.5;"/><rect fill="none" height="97.1484" style="stroke:#000000;stroke-width:1.5;" width="470" x="30" y="193.6641"/><text fill="#000000" font-family="sans-serif" font-size="13" font-weight="bold" lengthAdjust="spacing" textLength="16" x="45" y="208.1592">alt</text><text fill="#000000" font-family="sans-serif" font-size="11" font-weight="bold" lengthAdjust="spacing" textLength="344" x="106" y="207.083">[If there are more of TechnicalAdvisor eligible for the request]</text><rect fill="none" height="41.4453" style="stroke:#000000;stroke-width:1.5;" width="228" x="427" y="212.0156"/><path d="M427,212.0156 L489,212.0156 L489,220.0156 L479,230.0156 L427,230.0156 L427,212.0156 " fill="#EEEEEE" style="stroke:#000000;stroke-width:2.0;"/><text fill="#000000" font-family="sans-serif" font-size="13" font-weight="bold" lengthAdjust="spacing" textLength="17" x="440" y="227.5107">ref</text><text fill="#000000" font-family="sans-serif" font-size="12" lengthAdjust="spacing" textLength="220" x="431" y="246.4727">Random selection of X TechnicalAdvisor</text><line style="stroke:#000000;stroke-width:1.0;stroke-dasharray:2.0,2.0;" x1="30" x2="500" y1="259.4609" y2="259.4609"/><line style="stroke:#181818;stroke-width:1.0;" x1="73" x2="83" y1="282.8125" y2="278.8125"/><line style="stroke:#181818;stroke-width:1.0;" x1="73" x2="83" y1="282.8125" y2="286.8125"/><line style="stroke:#181818;stroke-width:1.0;" x1="72" x2="459" y1="282.8125" y2="282.8125"/><text fill="#000000" font-family="sans-serif" font-size="13" lengthAdjust="spacing" textLength="364" x="89" y="277.9561">Send email all the TechnicalAdvisor eligible refused the request</text><!--MD5=[412258f526125b719b773bb64b40d6df]
@startuml
actor Recruiter
actor TechnicalAdvisor
participant System

group Asynchrone Job
    System ->> System: Wait for Y heures
    alt If no TechnicalAdvisor has accepted the request
        alt If there are more of TechnicalAdvisor eligible for the request
            ref over System
                Random selection of X TechnicalAdvisor
            end ref
        else
            System ->> Recruiter: Send email all the TechnicalAdvisor eligible refused the request
        end
    end
end
@enduml

PlantUML version 1.2022.7(Mon Aug 22 13:01:30 EDT 2022)
(GPL source distribution)
Java Runtime: OpenJDK Runtime Environment
JVM: OpenJDK 64-Bit Server VM
Default Encoding: Cp1252
Language: en
Country: US
--></g></svg>