<?xml version="1.0" encoding="UTF-8" standalone="no"?><svg xmlns="http://www.w3.org/2000/svg" xmlns:xlink="http://www.w3.org/1999/xlink" contentStyleType="text/css" height="599px" preserveAspectRatio="none" style="width:1074px;height:599px;background:#FFFFFF;" version="1.1" viewBox="0 0 1074 599" width="1074px" zoomAndPan="magnify"><defs/><g><rect fill="none" height="400.3125" style="stroke:#000000;stroke-width:1.5;" width="1058.5" x="10" y="99.6094"/><rect fill="none" height="324.6094" style="stroke:#000000;stroke-width:1.5;" width="1038.5" x="20" y="168.3125"/><rect fill="none" height="292.2578" style="stroke:#000000;stroke-width:1.5;" width="1018.5" x="30" y="193.6641"/><line style="stroke:#181818;stroke-width:0.5;stroke-dasharray:5.0,5.0;" x1="88" x2="88" y1="82.6094" y2="516.9219"/><line style="stroke:#181818;stroke-width:0.5;stroke-dasharray:5.0,5.0;" x1="204" x2="204" y1="82.6094" y2="516.9219"/><line style="stroke:#181818;stroke-width:0.5;stroke-dasharray:5.0,5.0;" x1="305" x2="305" y1="82.6094" y2="516.9219"/><line style="stroke:#181818;stroke-width:0.5;stroke-dasharray:5.0,5.0;" x1="476.5" x2="476.5" y1="82.6094" y2="516.9219"/><line style="stroke:#181818;stroke-width:0.5;stroke-dasharray:5.0,5.0;" x1="591" x2="591" y1="82.6094" y2="516.9219"/><line style="stroke:#181818;stroke-width:0.5;stroke-dasharray:5.0,5.0;" x1="899.5" x2="899.5" y1="82.6094" y2="516.9219"/><line style="stroke:#181818;stroke-width:0.5;stroke-dasharray:5.0,5.0;" x1="1002.5" x2="1002.5" y1="82.6094" y2="516.9219"/><text fill="#000000" font-family="sans-serif" font-size="14" lengthAdjust="spacing" textLength="91" x="40" y="79.5332">RecruiterActor</text><ellipse cx="88.5" cy="13.5" fill="#E2E2F0" rx="8" ry="8" style="stroke:#181818;stroke-width:0.5;"/><path d="M88.5,21.5 L88.5,48.5 M75.5,29.5 L101.5,29.5 M88.5,48.5 L75.5,63.5 M88.5,48.5 L101.5,63.5 " fill="none" style="stroke:#181818;stroke-width:0.5;"/><text fill="#000000" font-family="sans-serif" font-size="14" lengthAdjust="spacing" textLength="91" x="40" y="530.4551">RecruiterActor</text><ellipse cx="88.5" cy="542.0313" fill="#E2E2F0" rx="8" ry="8" style="stroke:#181818;stroke-width:0.5;"/><path d="M88.5,550.0313 L88.5,577.0313 M75.5,558.0313 L101.5,558.0313 M88.5,577.0313 L75.5,592.0313 M88.5,577.0313 L101.5,592.0313 " fill="none" style="stroke:#181818;stroke-width:0.5;"/><text fill="#000000" font-family="sans-serif" font-size="14" lengthAdjust="spacing" textLength="108" x="147" y="79.5332">TechnicalAdvisor</text><ellipse cx="204" cy="13.5" fill="#E2E2F0" rx="8" ry="8" style="stroke:#181818;stroke-width:0.5;"/><path d="M204,21.5 L204,48.5 M191,29.5 L217,29.5 M204,48.5 L191,63.5 M204,48.5 L217,63.5 " fill="none" style="stroke:#181818;stroke-width:0.5;"/><text fill="#000000" font-family="sans-serif" font-size="14" lengthAdjust="spacing" textLength="108" x="147" y="530.4551">TechnicalAdvisor</text><ellipse cx="204" cy="542.0313" fill="#E2E2F0" rx="8" ry="8" style="stroke:#181818;stroke-width:0.5;"/><path d="M204,550.0313 L204,577.0313 M191,558.0313 L217,558.0313 M204,577.0313 L191,592.0313 M204,577.0313 L217,592.0313 " fill="none" style="stroke:#181818;stroke-width:0.5;"/><rect fill="#E2E2F0" height="31.6094" rx="2.5" ry="2.5" style="stroke:#181818;stroke-width:0.5;" width="69" x="271" y="50"/><text fill="#000000" font-family="sans-serif" font-size="14" lengthAdjust="spacing" textLength="55" x="278" y="71.5332">Interview</text><rect fill="#E2E2F0" height="31.6094" rx="2.5" ry="2.5" style="stroke:#181818;stroke-width:0.5;" width="69" x="271" y="515.9219"/><text fill="#000000" font-family="sans-serif" font-size="14" lengthAdjust="spacing" textLength="55" x="278" y="537.4551">Interview</text><rect fill="#E2E2F0" height="31.6094" rx="2.5" ry="2.5" style="stroke:#181818;stroke-width:0.5;" width="122" x="415.5" y="50"/><text fill="#000000" font-family="sans-serif" font-size="14" lengthAdjust="spacing" textLength="108" x="422.5" y="71.5332">InterviewRequest</text><rect fill="#E2E2F0" height="31.6094" rx="2.5" ry="2.5" style="stroke:#181818;stroke-width:0.5;" width="122" x="415.5" y="515.9219"/><text fill="#000000" font-family="sans-serif" font-size="14" lengthAdjust="spacing" textLength="108" x="422.5" y="537.4551">InterviewRequest</text><rect fill="#E2E2F0" height="31.6094" rx="2.5" ry="2.5" style="stroke:#181818;stroke-width:0.5;" width="83" x="550" y="50"/><text fill="#000000" font-family="sans-serif" font-size="14" lengthAdjust="spacing" textLength="69" x="557" y="71.5332">Notification</text><rect fill="#E2E2F0" height="31.6094" rx="2.5" ry="2.5" style="stroke:#181818;stroke-width:0.5;" width="83" x="550" y="515.9219"/><text fill="#000000" font-family="sans-serif" font-size="14" lengthAdjust="spacing" textLength="69" x="557" y="537.4551">Notification</text><rect fill="#E2E2F0" height="31.6094" rx="2.5" ry="2.5" style="stroke:#181818;stroke-width:0.5;" width="114" x="842.5" y="50"/><text fill="#000000" font-family="sans-serif" font-size="14" lengthAdjust="spacing" textLength="100" x="849.5" y="71.5332">MessageQueue</text><rect fill="#E2E2F0" height="31.6094" rx="2.5" ry="2.5" style="stroke:#181818;stroke-width:0.5;" width="114" x="842.5" y="515.9219"/><text fill="#000000" font-family="sans-serif" font-size="14" lengthAdjust="spacing" textLength="100" x="849.5" y="537.4551">MessageQueue</text><rect fill="#E2E2F0" height="31.6094" rx="2.5" ry="2.5" style="stroke:#181818;stroke-width:0.5;" width="72" x="966.5" y="50"/><text fill="#000000" font-family="sans-serif" font-size="14" lengthAdjust="spacing" textLength="58" x="973.5" y="71.5332">Recruiter</text><rect fill="#E2E2F0" height="31.6094" rx="2.5" ry="2.5" style="stroke:#181818;stroke-width:0.5;" width="72" x="966.5" y="515.9219"/><text fill="#000000" font-family="sans-serif" font-size="14" lengthAdjust="spacing" textLength="58" x="973.5" y="537.4551">Recruiter</text><path d="M10,99.6094 L156,99.6094 L156,107.9609 L146,117.9609 L10,117.9609 L10,99.6094 " fill="#EEEEEE" style="stroke:#000000;stroke-width:1.5;"/><rect fill="none" height="400.3125" style="stroke:#000000;stroke-width:1.5;" width="1058.5" x="10" y="99.6094"/><text fill="#000000" font-family="sans-serif" font-size="13" font-weight="bold" lengthAdjust="spacing" textLength="101" x="25" y="114.1045">Asynchrone Job</text><line style="stroke:#181818;stroke-width:1.0;" x1="476.5" x2="518.5" y1="140.3125" y2="140.3125"/><line style="stroke:#181818;stroke-width:1.0;" x1="518.5" x2="518.5" y1="140.3125" y2="153.3125"/><line style="stroke:#181818;stroke-width:1.0;" x1="477.5" x2="518.5" y1="153.3125" y2="153.3125"/><line style="stroke:#181818;stroke-width:1.0;" x1="477.5" x2="487.5" y1="153.3125" y2="149.3125"/><line style="stroke:#181818;stroke-width:1.0;" x1="477.5" x2="487.5" y1="153.3125" y2="157.3125"/><text fill="#000000" font-family="sans-serif" font-size="13" lengthAdjust="spacing" textLength="101" x="483.5" y="135.4561">Wait for Y heures</text><path d="M20,168.3125 L81,168.3125 L81,176.6641 L71,186.6641 L20,186.6641 L20,168.3125 " fill="#EEEEEE" style="stroke:#000000;stroke-width:1.5;"/><rect fill="none" height="324.6094" style="stroke:#000000;stroke-width:1.5;" width="1038.5" x="20" y="168.3125"/><text fill="#000000" font-family="sans-serif" font-size="13" font-weight="bold" lengthAdjust="spacing" textLength="16" x="35" y="182.8076">alt</text><text fill="#000000" font-family="sans-serif" font-size="11" font-weight="bold" lengthAdjust="spacing" textLength="274" x="96" y="181.7314">[If no TechnicalAdvisor has accepted the request]</text><path d="M30,193.6641 L91,193.6641 L91,202.0156 L81,212.0156 L30,212.0156 L30,193.6641 " fill="#EEEEEE" style="stroke:#000000;stroke-width:1.5;"/><rect fill="none" height="292.2578" style="stroke:#000000;stroke-width:1.5;" width="1018.5" x="30" y="193.6641"/><text fill="#000000" font-family="sans-serif" font-size="13" font-weight="bold" lengthAdjust="spacing" textLength="16" x="45" y="208.1592">alt</text><text fill="#000000" font-family="sans-serif" font-size="11" font-weight="bold" lengthAdjust="spacing" textLength="344" x="106" y="207.083">[If there are more of TechnicalAdvisor eligible for the request]</text><rect fill="none" height="41.4453" style="stroke:#000000;stroke-width:1.5;" width="142" x="412.5" y="212.0156"/><path d="M412.5,212.0156 L474.5,212.0156 L474.5,220.0156 L464.5,230.0156 L412.5,230.0156 L412.5,212.0156 " fill="#EEEEEE" style="stroke:#000000;stroke-width:2.0;"/><text fill="#000000" font-family="sans-serif" font-size="13" font-weight="bold" lengthAdjust="spacing" textLength="17" x="425.5" y="227.5107">ref</text><text fill="#000000" font-family="sans-serif" font-size="12" lengthAdjust="spacing" textLength="134" x="416.5" y="246.4727">Run Iteration Of Process</text><line style="stroke:#000000;stroke-width:1.0;stroke-dasharray:2.0,2.0;" x1="30" x2="1048.5" y1="259.4609" y2="259.4609"/><line style="stroke:#181818;stroke-width:1.0;" x1="897.5" x2="887.5" y1="282.8125" y2="278.8125"/><line style="stroke:#181818;stroke-width:1.0;" x1="897.5" x2="887.5" y1="282.8125" y2="286.8125"/><line style="stroke:#181818;stroke-width:1.0;" x1="476.5" x2="898.5" y1="282.8125" y2="282.8125"/><text fill="#000000" font-family="sans-serif" font-size="13" lengthAdjust="spacing" textLength="277" x="483.5" y="277.9561">Produce Message No Availible TechnicalAdvisor</text><line style="stroke:#181818;stroke-width:1.0;" x1="306.5" x2="316.5" y1="313.1641" y2="309.1641"/><line style="stroke:#181818;stroke-width:1.0;" x1="306.5" x2="316.5" y1="313.1641" y2="317.1641"/><line style="stroke:#181818;stroke-width:1.0;" x1="305.5" x2="898.5" y1="313.1641" y2="313.1641"/><text fill="#000000" font-family="sans-serif" font-size="13" lengthAdjust="spacing" textLength="284" x="322.5" y="308.3076">Consume Message No Availible TechnicalAdvisor</text><line style="stroke:#181818;stroke-width:1.0;" x1="305.5" x2="347.5" y1="343.5156" y2="343.5156"/><line style="stroke:#181818;stroke-width:1.0;" x1="347.5" x2="347.5" y1="343.5156" y2="356.5156"/><line style="stroke:#181818;stroke-width:1.0;" x1="306.5" x2="347.5" y1="356.5156" y2="356.5156"/><line style="stroke:#181818;stroke-width:1.0;" x1="306.5" x2="316.5" y1="356.5156" y2="352.5156"/><line style="stroke:#181818;stroke-width:1.0;" x1="306.5" x2="316.5" y1="356.5156" y2="360.5156"/><text fill="#000000" font-family="sans-serif" font-size="13" lengthAdjust="spacing" textLength="157" x="312.5" y="338.6592">Set Status Of The Interview</text><line style="stroke:#181818;stroke-width:1.0;" x1="592.5" x2="602.5" y1="386.8672" y2="382.8672"/><line style="stroke:#181818;stroke-width:1.0;" x1="592.5" x2="602.5" y1="386.8672" y2="390.8672"/><line style="stroke:#181818;stroke-width:1.0;" x1="591.5" x2="898.5" y1="386.8672" y2="386.8672"/><text fill="#000000" font-family="sans-serif" font-size="13" lengthAdjust="spacing" textLength="284" x="608.5" y="382.0107">Consume Message No Availible TechnicalAdvisor</text><line style="stroke:#181818;stroke-width:1.0;" x1="1000.5" x2="990.5" y1="417.2188" y2="413.2188"/><line style="stroke:#181818;stroke-width:1.0;" x1="1000.5" x2="990.5" y1="417.2188" y2="421.2188"/><line style="stroke:#181818;stroke-width:1.0;" x1="591.5" x2="1001.5" y1="417.2188" y2="417.2188"/><text fill="#000000" font-family="sans-serif" font-size="13" lengthAdjust="spacing" textLength="114" x="598.5" y="412.3623">Get Recruiter Detail</text><polygon fill="#181818" points="602.5,443.5703,592.5,447.5703,602.5,451.5703,598.5,447.5703" style="stroke:#181818;stroke-width:1.0;"/><line style="stroke:#181818;stroke-width:1.0;stroke-dasharray:2.0,2.0;" x1="596.5" x2="1001.5" y1="447.5703" y2="447.5703"/><text fill="#000000" font-family="sans-serif" font-size="13" lengthAdjust="spacing" textLength="131" x="608.5" y="442.7139">Return Recruiter Detail</text><line style="stroke:#181818;stroke-width:1.0;" x1="89.5" x2="99.5" y1="477.9219" y2="473.9219"/><line style="stroke:#181818;stroke-width:1.0;" x1="89.5" x2="99.5" y1="477.9219" y2="481.9219"/><line style="stroke:#181818;stroke-width:1.0;" x1="88.5" x2="590.5" y1="477.9219" y2="477.9219"/><text fill="#000000" font-family="sans-serif" font-size="13" lengthAdjust="spacing" textLength="364" x="105.5" y="473.0654">Send email all the TechnicalAdvisor eligible refused the request</text><!--MD5=[8825993e0d2c628b8a9d09ed0b00f05d]
@startuml
actor RecruiterActor
actor TechnicalAdvisor
participant Interview
participant InterviewRequest
participant Notification
participant MessageQueue
participant Recruiter

group Asynchrone Job
    InterviewRequest ->> InterviewRequest: Wait for Y heures
    alt If no TechnicalAdvisor has accepted the request
        alt If there are more of TechnicalAdvisor eligible for the request
            ref over InterviewRequest
                Run Iteration Of Process
            end ref
        else
            InterviewRequest ->> MessageQueue: Produce Message No Availible TechnicalAdvisor
            Interview <<- MessageQueue: Consume Message No Availible TechnicalAdvisor
            Interview ->> Interview: Set Status Of The Interview
            Notification <<- MessageQueue: Consume Message No Availible TechnicalAdvisor
            Notification ->> Recruiter: Get Recruiter Detail
            Recruiter - -> Notification: Return Recruiter Detail
            Notification ->> RecruiterActor: Send email all the TechnicalAdvisor eligible refused the request
        end
    end
end
@enduml

PlantUML version 1.2022.7(Mon Aug 22 13:01:30 EDT 2022)
(GPL source distribution)
Java Runtime: OpenJDK Runtime Environment
JVM: OpenJDK 64-Bit Server VM
Default Encoding: Cp1252
Language: en
Country: US
--></g></svg>