<?xml version="1.0" encoding="UTF-8" standalone="no"?><svg xmlns="http://www.w3.org/2000/svg" xmlns:xlink="http://www.w3.org/1999/xlink" contentStyleType="text/css" height="421px" preserveAspectRatio="none" style="width:661px;height:421px;background:#FFFFFF;" version="1.1" viewBox="0 0 661 421" width="661px" zoomAndPan="magnify"><defs/><g><rect fill="none" height="161.8516" style="stroke:#000000;stroke-width:1.5;" width="510" x="10" y="160.3125"/><rect fill="#ADD8E6" height="129.5" style="stroke:#000000;stroke-width:1.5;" width="490" x="20" y="185.6641"/><rect fill="#87CEFA" height="97.1484" style="stroke:#000000;stroke-width:1.5;" width="470" x="30" y="211.0156"/><rect fill="#E0FFFF" height="32.3516" style="stroke:none;stroke-width:1.0;" width="470" x="30" y="275.8125"/><line style="stroke:#181818;stroke-width:0.5;stroke-dasharray:5.0,5.0;" x1="72" x2="72" y1="82.6094" y2="339.1641"/><line style="stroke:#181818;stroke-width:0.5;stroke-dasharray:5.0,5.0;" x1="171" x2="171" y1="82.6094" y2="339.1641"/><line style="stroke:#181818;stroke-width:0.5;stroke-dasharray:5.0,5.0;" x1="460" x2="460" y1="82.6094" y2="339.1641"/><text fill="#000000" font-family="sans-serif" font-size="14" lengthAdjust="spacing" textLength="58" x="40" y="79.5332">Recruiter</text><ellipse cx="72" cy="13.5" fill="#E2E2F0" rx="8" ry="8" style="stroke:#181818;stroke-width:0.5;"/><path d="M72,21.5 L72,48.5 M59,29.5 L85,29.5 M72,48.5 L59,63.5 M72,48.5 L85,63.5 " fill="none" style="stroke:#181818;stroke-width:0.5;"/><text fill="#000000" font-family="sans-serif" font-size="14" lengthAdjust="spacing" textLength="58" x="40" y="352.6973">Recruiter</text><ellipse cx="72" cy="364.2734" fill="#E2E2F0" rx="8" ry="8" style="stroke:#181818;stroke-width:0.5;"/><path d="M72,372.2734 L72,399.2734 M59,380.2734 L85,380.2734 M72,399.2734 L59,414.2734 M72,399.2734 L85,414.2734 " fill="none" style="stroke:#181818;stroke-width:0.5;"/><text fill="#000000" font-family="sans-serif" font-size="14" lengthAdjust="spacing" textLength="108" x="114" y="79.5332">TechnicalAdvisor</text><ellipse cx="171" cy="13.5" fill="#E2E2F0" rx="8" ry="8" style="stroke:#181818;stroke-width:0.5;"/><path d="M171,21.5 L171,48.5 M158,29.5 L184,29.5 M171,48.5 L158,63.5 M171,48.5 L184,63.5 " fill="none" style="stroke:#181818;stroke-width:0.5;"/><text fill="#000000" font-family="sans-serif" font-size="14" lengthAdjust="spacing" textLength="108" x="114" y="352.6973">TechnicalAdvisor</text><ellipse cx="171" cy="364.2734" fill="#E2E2F0" rx="8" ry="8" style="stroke:#181818;stroke-width:0.5;"/><path d="M171,372.2734 L171,399.2734 M158,380.2734 L184,380.2734 M171,399.2734 L158,414.2734 M171,399.2734 L184,414.2734 " fill="none" style="stroke:#181818;stroke-width:0.5;"/><rect fill="#E2E2F0" height="31.6094" rx="2.5" ry="2.5" style="stroke:#181818;stroke-width:0.5;" width="60" x="430" y="50"/><text fill="#000000" font-family="sans-serif" font-size="14" lengthAdjust="spacing" textLength="46" x="437" y="71.5332">System</text><rect fill="#E2E2F0" height="31.6094" rx="2.5" ry="2.5" style="stroke:#181818;stroke-width:0.5;" width="60" x="430" y="338.1641"/><text fill="#000000" font-family="sans-serif" font-size="14" lengthAdjust="spacing" textLength="46" x="437" y="359.6973">System</text><polygon fill="#181818" points="448,110.9609,458,114.9609,448,118.9609,452,114.9609" style="stroke:#181818;stroke-width:1.0;"/><line style="stroke:#181818;stroke-width:1.0;" x1="171" x2="454" y1="114.9609" y2="114.9609"/><text fill="#000000" font-family="sans-serif" font-size="13" lengthAdjust="spacing" textLength="182" x="178" y="110.1045">Click on the link reject Interview</text><polygon fill="#181818" points="182,141.3125,172,145.3125,182,149.3125,178,145.3125" style="stroke:#181818;stroke-width:1.0;"/><line style="stroke:#181818;stroke-width:1.0;stroke-dasharray:2.0,2.0;" x1="176" x2="459" y1="145.3125" y2="145.3125"/><text fill="#000000" font-family="sans-serif" font-size="13" lengthAdjust="spacing" textLength="141" x="188" y="140.4561">Response of the request</text><path d="M10,160.3125 L209,160.3125 L209,168.6641 L199,178.6641 L10,178.6641 L10,160.3125 " fill="#EEEEEE" style="stroke:#000000;stroke-width:1.5;"/><rect fill="none" height="161.8516" style="stroke:#000000;stroke-width:1.5;" width="510" x="10" y="160.3125"/><text fill="#000000" font-family="sans-serif" font-size="13" font-weight="bold" lengthAdjust="spacing" textLength="154" x="25" y="174.8076">Check Rejected Request</text><path d="M20,185.6641 L81,185.6641 L81,194.0156 L71,204.0156 L20,204.0156 L20,185.6641 " fill="#87CEEB" style="stroke:#000000;stroke-width:1.5;"/><rect fill="none" height="129.5" style="stroke:#000000;stroke-width:1.5;" width="490" x="20" y="185.6641"/><text fill="#000000" font-family="sans-serif" font-size="13" font-weight="bold" lengthAdjust="spacing" textLength="16" x="35" y="200.1592">alt</text><text fill="#000000" font-family="sans-serif" font-size="11" font-weight="bold" lengthAdjust="spacing" textLength="263" x="96" y="199.083">[If X TechnicalAdvisor has rejected the request]</text><path d="M30,211.0156 L91,211.0156 L91,219.3672 L81,229.3672 L30,229.3672 L30,211.0156 " fill="#E0FFFF" style="stroke:#000000;stroke-width:1.5;"/><rect fill="none" height="97.1484" style="stroke:#000000;stroke-width:1.5;" width="470" x="30" y="211.0156"/><text fill="#000000" font-family="sans-serif" font-size="13" font-weight="bold" lengthAdjust="spacing" textLength="16" x="45" y="225.5107">alt</text><text fill="#000000" font-family="sans-serif" font-size="11" font-weight="bold" lengthAdjust="spacing" textLength="344" x="106" y="224.4346">[If there are more of TechnicalAdvisor eligible for the request]</text><rect fill="none" height="41.4453" style="stroke:#000000;stroke-width:1.5;" width="228" x="427" y="229.3672"/><path d="M427,229.3672 L489,229.3672 L489,237.3672 L479,247.3672 L427,247.3672 L427,229.3672 " fill="#EEEEEE" style="stroke:#000000;stroke-width:2.0;"/><text fill="#000000" font-family="sans-serif" font-size="13" font-weight="bold" lengthAdjust="spacing" textLength="17" x="440" y="244.8623">ref</text><text fill="#000000" font-family="sans-serif" font-size="12" lengthAdjust="spacing" textLength="220" x="431" y="263.8242">Random selection of X TechnicalAdvisor</text><line style="stroke:#000000;stroke-width:1.0;stroke-dasharray:2.0,2.0;" x1="30" x2="500" y1="276.8125" y2="276.8125"/><line style="stroke:#181818;stroke-width:1.0;" x1="73" x2="83" y1="300.1641" y2="296.1641"/><line style="stroke:#181818;stroke-width:1.0;" x1="73" x2="83" y1="300.1641" y2="304.1641"/><line style="stroke:#181818;stroke-width:1.0;" x1="72" x2="459" y1="300.1641" y2="300.1641"/><text fill="#000000" font-family="sans-serif" font-size="13" lengthAdjust="spacing" textLength="364" x="89" y="295.3076">Send email all the TechnicalAdvisor eligible refused the request</text><!--MD5=[f5478f4429da8233bac031463b97a934]
@startuml

actor Recruiter
actor TechnicalAdvisor
participant System

TechnicalAdvisor -> System: Click on the link reject Interview
System - -> TechnicalAdvisor: Response of the request
group Check Rejected Request
    alt#SkyBlue #LightBlue If X TechnicalAdvisor has rejected the request
        alt#LightCyan #LightSkyBlue If there are more of TechnicalAdvisor eligible for the request
            ref over System
                Random selection of X TechnicalAdvisor
            end ref
        else #LightCyan
            System ->> Recruiter: Send email all the TechnicalAdvisor eligible refused the request
        end
    end
end
@enduml

PlantUML version 1.2022.7(Mon Aug 22 13:01:30 EDT 2022)
(GPL source distribution)
Java Runtime: OpenJDK Runtime Environment
JVM: OpenJDK 64-Bit Server VM
Default Encoding: Cp1252
Language: en
Country: US
--></g></svg>