<?xml version="1.0" encoding="UTF-8" standalone="no"?><svg xmlns="http://www.w3.org/2000/svg" xmlns:xlink="http://www.w3.org/1999/xlink" contentStyleType="text/css" height="616px" preserveAspectRatio="none" style="width:1473px;height:616px;background:#FFFFFF;" version="1.1" viewBox="0 0 1473 616" width="1473px" zoomAndPan="magnify"><defs/><g><rect fill="none" height="356.9609" style="stroke:#000000;stroke-width:1.5;" width="1457" x="10" y="160.3125"/><rect fill="none" height="324.6094" style="stroke:#000000;stroke-width:1.5;" width="1437" x="20" y="185.6641"/><rect fill="none" height="292.2578" style="stroke:#000000;stroke-width:1.5;" width="1417" x="30" y="211.0156"/><line style="stroke:#181818;stroke-width:0.5;stroke-dasharray:5.0,5.0;" x1="88" x2="88" y1="82.6094" y2="534.2734"/><line style="stroke:#181818;stroke-width:0.5;stroke-dasharray:5.0,5.0;" x1="220" x2="220" y1="82.6094" y2="534.2734"/><line style="stroke:#181818;stroke-width:0.5;stroke-dasharray:5.0,5.0;" x1="426.5" x2="426.5" y1="82.6094" y2="534.2734"/><line style="stroke:#181818;stroke-width:0.5;stroke-dasharray:5.0,5.0;" x1="558.5" x2="558.5" y1="82.6094" y2="534.2734"/><line style="stroke:#181818;stroke-width:0.5;stroke-dasharray:5.0,5.0;" x1="727.5" x2="727.5" y1="82.6094" y2="534.2734"/><line style="stroke:#181818;stroke-width:0.5;stroke-dasharray:5.0,5.0;" x1="1035" x2="1035" y1="82.6094" y2="534.2734"/><line style="stroke:#181818;stroke-width:0.5;stroke-dasharray:5.0,5.0;" x1="1190.5" x2="1190.5" y1="82.6094" y2="534.2734"/><line style="stroke:#181818;stroke-width:0.5;stroke-dasharray:5.0,5.0;" x1="1270.5" x2="1270.5" y1="82.6094" y2="534.2734"/><text fill="#000000" font-family="sans-serif" font-size="14" lengthAdjust="spacing" textLength="91" x="40" y="79.5332">RecruiterActor</text><ellipse cx="88.5" cy="13.5" fill="#E2E2F0" rx="8" ry="8" style="stroke:#181818;stroke-width:0.5;"/><path d="M88.5,21.5 L88.5,48.5 M75.5,29.5 L101.5,29.5 M88.5,48.5 L75.5,63.5 M88.5,48.5 L101.5,63.5 " fill="none" style="stroke:#181818;stroke-width:0.5;"/><text fill="#000000" font-family="sans-serif" font-size="14" lengthAdjust="spacing" textLength="91" x="40" y="547.8066">RecruiterActor</text><ellipse cx="88.5" cy="559.3828" fill="#E2E2F0" rx="8" ry="8" style="stroke:#181818;stroke-width:0.5;"/><path d="M88.5,567.3828 L88.5,594.3828 M75.5,575.3828 L101.5,575.3828 M88.5,594.3828 L75.5,609.3828 M88.5,594.3828 L101.5,609.3828 " fill="none" style="stroke:#181818;stroke-width:0.5;"/><text fill="#000000" font-family="sans-serif" font-size="14" lengthAdjust="spacing" textLength="141" x="147" y="79.5332">TechnicalAdvisorActor</text><ellipse cx="220.5" cy="13.5" fill="#E2E2F0" rx="8" ry="8" style="stroke:#181818;stroke-width:0.5;"/><path d="M220.5,21.5 L220.5,48.5 M207.5,29.5 L233.5,29.5 M220.5,48.5 L207.5,63.5 M220.5,48.5 L233.5,63.5 " fill="none" style="stroke:#181818;stroke-width:0.5;"/><text fill="#000000" font-family="sans-serif" font-size="14" lengthAdjust="spacing" textLength="141" x="147" y="547.8066">TechnicalAdvisorActor</text><ellipse cx="220.5" cy="559.3828" fill="#E2E2F0" rx="8" ry="8" style="stroke:#181818;stroke-width:0.5;"/><path d="M220.5,567.3828 L220.5,594.3828 M207.5,575.3828 L233.5,575.3828 M220.5,594.3828 L207.5,609.3828 M220.5,594.3828 L233.5,609.3828 " fill="none" style="stroke:#181818;stroke-width:0.5;"/><rect fill="#E2E2F0" height="31.6094" rx="2.5" ry="2.5" style="stroke:#181818;stroke-width:0.5;" width="122" x="365.5" y="50"/><text fill="#000000" font-family="sans-serif" font-size="14" lengthAdjust="spacing" textLength="108" x="372.5" y="71.5332">InterviewRequest</text><rect fill="#E2E2F0" height="31.6094" rx="2.5" ry="2.5" style="stroke:#181818;stroke-width:0.5;" width="122" x="365.5" y="533.2734"/><text fill="#000000" font-family="sans-serif" font-size="14" lengthAdjust="spacing" textLength="108" x="372.5" y="554.8066">InterviewRequest</text><rect fill="#E2E2F0" height="31.6094" rx="2.5" ry="2.5" style="stroke:#181818;stroke-width:0.5;" width="122" x="497.5" y="50"/><text fill="#000000" font-family="sans-serif" font-size="14" lengthAdjust="spacing" textLength="108" x="504.5" y="71.5332">TechnicalAdvisor</text><rect fill="#E2E2F0" height="31.6094" rx="2.5" ry="2.5" style="stroke:#181818;stroke-width:0.5;" width="122" x="497.5" y="533.2734"/><text fill="#000000" font-family="sans-serif" font-size="14" lengthAdjust="spacing" textLength="108" x="504.5" y="554.8066">TechnicalAdvisor</text><rect fill="#E2E2F0" height="31.6094" rx="2.5" ry="2.5" style="stroke:#181818;stroke-width:0.5;" width="114" x="670.5" y="50"/><text fill="#000000" font-family="sans-serif" font-size="14" lengthAdjust="spacing" textLength="100" x="677.5" y="71.5332">MessageQueue</text><rect fill="#E2E2F0" height="31.6094" rx="2.5" ry="2.5" style="stroke:#181818;stroke-width:0.5;" width="114" x="670.5" y="533.2734"/><text fill="#000000" font-family="sans-serif" font-size="14" lengthAdjust="spacing" textLength="100" x="677.5" y="554.8066">MessageQueue</text><rect fill="#E2E2F0" height="31.6094" rx="2.5" ry="2.5" style="stroke:#181818;stroke-width:0.5;" width="83" x="994" y="50"/><text fill="#000000" font-family="sans-serif" font-size="14" lengthAdjust="spacing" textLength="69" x="1001" y="71.5332">Notification</text><rect fill="#E2E2F0" height="31.6094" rx="2.5" ry="2.5" style="stroke:#181818;stroke-width:0.5;" width="83" x="994" y="533.2734"/><text fill="#000000" font-family="sans-serif" font-size="14" lengthAdjust="spacing" textLength="69" x="1001" y="554.8066">Notification</text><rect fill="#E2E2F0" height="31.6094" rx="2.5" ry="2.5" style="stroke:#181818;stroke-width:0.5;" width="72" x="1154.5" y="50"/><text fill="#000000" font-family="sans-serif" font-size="14" lengthAdjust="spacing" textLength="58" x="1161.5" y="71.5332">Recruiter</text><rect fill="#E2E2F0" height="31.6094" rx="2.5" ry="2.5" style="stroke:#181818;stroke-width:0.5;" width="72" x="1154.5" y="533.2734"/><text fill="#000000" font-family="sans-serif" font-size="14" lengthAdjust="spacing" textLength="58" x="1161.5" y="554.8066">Recruiter</text><rect fill="#E2E2F0" height="31.6094" rx="2.5" ry="2.5" style="stroke:#181818;stroke-width:0.5;" width="69" x="1236.5" y="50"/><text fill="#000000" font-family="sans-serif" font-size="14" lengthAdjust="spacing" textLength="55" x="1243.5" y="71.5332">Interview</text><rect fill="#E2E2F0" height="31.6094" rx="2.5" ry="2.5" style="stroke:#181818;stroke-width:0.5;" width="69" x="1236.5" y="533.2734"/><text fill="#000000" font-family="sans-serif" font-size="14" lengthAdjust="spacing" textLength="55" x="1243.5" y="554.8066">Interview</text><polygon fill="#181818" points="414.5,110.9609,424.5,114.9609,414.5,118.9609,418.5,114.9609" style="stroke:#181818;stroke-width:1.0;"/><line style="stroke:#181818;stroke-width:1.0;" x1="220.5" x2="420.5" y1="114.9609" y2="114.9609"/><text fill="#000000" font-family="sans-serif" font-size="13" lengthAdjust="spacing" textLength="182" x="227.5" y="110.1045">Click on the link reject Interview</text><polygon fill="#181818" points="231.5,141.3125,221.5,145.3125,231.5,149.3125,227.5,145.3125" style="stroke:#181818;stroke-width:1.0;"/><line style="stroke:#181818;stroke-width:1.0;stroke-dasharray:2.0,2.0;" x1="225.5" x2="425.5" y1="145.3125" y2="145.3125"/><text fill="#000000" font-family="sans-serif" font-size="13" lengthAdjust="spacing" textLength="141" x="237.5" y="140.4561">Response of the request</text><path d="M10,160.3125 L209,160.3125 L209,168.6641 L199,178.6641 L10,178.6641 L10,160.3125 " fill="#EEEEEE" style="stroke:#000000;stroke-width:1.5;"/><rect fill="none" height="356.9609" style="stroke:#000000;stroke-width:1.5;" width="1457" x="10" y="160.3125"/><text fill="#000000" font-family="sans-serif" font-size="13" font-weight="bold" lengthAdjust="spacing" textLength="154" x="25" y="174.8076">Check Rejected Request</text><path d="M20,185.6641 L81,185.6641 L81,194.0156 L71,204.0156 L20,204.0156 L20,185.6641 " fill="#EEEEEE" style="stroke:#000000;stroke-width:1.5;"/><rect fill="none" height="324.6094" style="stroke:#000000;stroke-width:1.5;" width="1437" x="20" y="185.6641"/><text fill="#000000" font-family="sans-serif" font-size="13" font-weight="bold" lengthAdjust="spacing" textLength="16" x="35" y="200.1592">alt</text><text fill="#000000" font-family="sans-serif" font-size="11" font-weight="bold" lengthAdjust="spacing" textLength="263" x="96" y="199.083">[If X TechnicalAdvisor has rejected the request]</text><path d="M30,211.0156 L91,211.0156 L91,219.3672 L81,229.3672 L30,229.3672 L30,211.0156 " fill="#EEEEEE" style="stroke:#000000;stroke-width:1.5;"/><rect fill="none" height="292.2578" style="stroke:#000000;stroke-width:1.5;" width="1417" x="30" y="211.0156"/><text fill="#000000" font-family="sans-serif" font-size="13" font-weight="bold" lengthAdjust="spacing" textLength="16" x="45" y="225.5107">alt</text><text fill="#000000" font-family="sans-serif" font-size="11" font-weight="bold" lengthAdjust="spacing" textLength="344" x="106" y="224.4346">[If there are more of TechnicalAdvisor eligible for the request]</text><rect fill="none" height="41.4453" style="stroke:#000000;stroke-width:1.5;" width="142" x="362.5" y="229.3672"/><path d="M362.5,229.3672 L424.5,229.3672 L424.5,237.3672 L414.5,247.3672 L362.5,247.3672 L362.5,229.3672 " fill="#EEEEEE" style="stroke:#000000;stroke-width:2.0;"/><text fill="#000000" font-family="sans-serif" font-size="13" font-weight="bold" lengthAdjust="spacing" textLength="17" x="375.5" y="244.8623">ref</text><text fill="#000000" font-family="sans-serif" font-size="12" lengthAdjust="spacing" textLength="134" x="366.5" y="263.8242">Run Iteration Of Process</text><line style="stroke:#000000;stroke-width:1.0;stroke-dasharray:2.0,2.0;" x1="30" x2="1447" y1="276.8125" y2="276.8125"/><line style="stroke:#181818;stroke-width:1.0;" x1="725.5" x2="715.5" y1="300.1641" y2="296.1641"/><line style="stroke:#181818;stroke-width:1.0;" x1="725.5" x2="715.5" y1="300.1641" y2="304.1641"/><line style="stroke:#181818;stroke-width:1.0;" x1="426.5" x2="726.5" y1="300.1641" y2="300.1641"/><text fill="#000000" font-family="sans-serif" font-size="13" lengthAdjust="spacing" textLength="277" x="433.5" y="295.3076">Produce Message No Availible TechnicalAdvisor</text><line style="stroke:#181818;stroke-width:1.0;" x1="1269" x2="1259" y1="330.5156" y2="326.5156"/><line style="stroke:#181818;stroke-width:1.0;" x1="1269" x2="1259" y1="330.5156" y2="334.5156"/><line style="stroke:#181818;stroke-width:1.0;" x1="727.5" x2="1270" y1="330.5156" y2="330.5156"/><text fill="#000000" font-family="sans-serif" font-size="13" lengthAdjust="spacing" textLength="284" x="734.5" y="325.6592">Consume Message No Availible TechnicalAdvisor</text><line style="stroke:#181818;stroke-width:1.0;" x1="1271" x2="1313" y1="360.8672" y2="360.8672"/><line style="stroke:#181818;stroke-width:1.0;" x1="1313" x2="1313" y1="360.8672" y2="373.8672"/><line style="stroke:#181818;stroke-width:1.0;" x1="1272" x2="1313" y1="373.8672" y2="373.8672"/><line style="stroke:#181818;stroke-width:1.0;" x1="1272" x2="1282" y1="373.8672" y2="369.8672"/><line style="stroke:#181818;stroke-width:1.0;" x1="1272" x2="1282" y1="373.8672" y2="377.8672"/><text fill="#000000" font-family="sans-serif" font-size="13" lengthAdjust="spacing" textLength="157" x="1278" y="356.0107">Set Status Of The Interview</text><line style="stroke:#181818;stroke-width:1.0;" x1="1033.5" x2="1023.5" y1="404.2188" y2="400.2188"/><line style="stroke:#181818;stroke-width:1.0;" x1="1033.5" x2="1023.5" y1="404.2188" y2="408.2188"/><line style="stroke:#181818;stroke-width:1.0;" x1="727.5" x2="1034.5" y1="404.2188" y2="404.2188"/><text fill="#000000" font-family="sans-serif" font-size="13" lengthAdjust="spacing" textLength="284" x="734.5" y="399.3623">Consume Message No Availible TechnicalAdvisor</text><line style="stroke:#181818;stroke-width:1.0;" x1="1188.5" x2="1178.5" y1="434.5703" y2="430.5703"/><line style="stroke:#181818;stroke-width:1.0;" x1="1188.5" x2="1178.5" y1="434.5703" y2="438.5703"/><line style="stroke:#181818;stroke-width:1.0;" x1="1035.5" x2="1189.5" y1="434.5703" y2="434.5703"/><text fill="#000000" font-family="sans-serif" font-size="13" lengthAdjust="spacing" textLength="114" x="1042.5" y="429.7139">Get Recruiter Detail</text><polygon fill="#181818" points="1046.5,460.9219,1036.5,464.9219,1046.5,468.9219,1042.5,464.9219" style="stroke:#181818;stroke-width:1.0;"/><line style="stroke:#181818;stroke-width:1.0;stroke-dasharray:2.0,2.0;" x1="1040.5" x2="1189.5" y1="464.9219" y2="464.9219"/><text fill="#000000" font-family="sans-serif" font-size="13" lengthAdjust="spacing" textLength="131" x="1052.5" y="460.0654">Return Recruiter Detail</text><line style="stroke:#181818;stroke-width:1.0;" x1="89.5" x2="99.5" y1="495.2734" y2="491.2734"/><line style="stroke:#181818;stroke-width:1.0;" x1="89.5" x2="99.5" y1="495.2734" y2="499.2734"/><line style="stroke:#181818;stroke-width:1.0;" x1="88.5" x2="1034.5" y1="495.2734" y2="495.2734"/><text fill="#000000" font-family="sans-serif" font-size="13" lengthAdjust="spacing" textLength="364" x="105.5" y="490.417">Send email all the TechnicalAdvisor eligible refused the request</text><!--MD5=[54c6a7c5d3ba0042cd6a16daddbf4637]
@startuml

actor RecruiterActor
actor TechnicalAdvisorActor
participant InterviewRequest
participant TechnicalAdvisor
participant MessageQueue
participant Notification
participant Recruiter
participant Interview

TechnicalAdvisorActor -> InterviewRequest: Click on the link reject Interview
InterviewRequest - -> TechnicalAdvisorActor: Response of the request
group Check Rejected Request
    alt If X TechnicalAdvisor has rejected the request
        alt If there are more of TechnicalAdvisor eligible for the request
            ref over InterviewRequest
                Run Iteration Of Process
            end ref
        else
            InterviewRequest ->> MessageQueue: Produce Message No Availible TechnicalAdvisor
            Interview <<- MessageQueue: Consume Message No Availible TechnicalAdvisor
            Interview ->> Interview: Set Status Of The Interview
            Notification <<- MessageQueue: Consume Message No Availible TechnicalAdvisor
            Notification ->> Recruiter: Get Recruiter Detail
            Recruiter - -> Notification: Return Recruiter Detail
            Notification ->> RecruiterActor: Send email all the TechnicalAdvisor eligible refused the request
        end
    end
end
@enduml

PlantUML version 1.2022.7(Mon Aug 22 13:01:30 EDT 2022)
(GPL source distribution)
Java Runtime: OpenJDK Runtime Environment
JVM: OpenJDK 64-Bit Server VM
Default Encoding: Cp1252
Language: en
Country: US
--></g></svg>